<svg width="125" height="37" viewBox="0 0 125 37" fill="none" xmlns="http://www.w3.org/2000/svg">
<path d="M22.078 12.82H13.547V36.475H9.12V12.82H0.57V9.11501H22.078V12.82ZM30.3507 36.475H25.8857V9.11501H30.3507V36.475ZM45.345 23.061C46.333 23.061 47.2007 22.9343 47.948 22.681C48.708 22.4277 49.335 22.073 49.829 21.617C50.3357 21.1483 50.7157 20.5847 50.969 19.926C51.2223 19.2673 51.349 18.5327 51.349 17.722C51.349 16.924 51.2223 16.2083 50.969 15.575C50.7283 14.9417 50.361 14.4033 49.867 13.96C49.373 13.5167 48.746 13.181 47.986 12.953C47.2387 12.7123 46.3583 12.592 45.345 12.592H41.279V23.061H45.345ZM45.345 9.11501C47.131 9.11501 48.6763 9.324 49.981 9.742C51.2983 10.16 52.3813 10.749 53.23 11.509C54.0913 12.2563 54.731 13.162 55.149 14.226C55.567 15.2773 55.776 16.4427 55.776 17.722C55.776 19.0267 55.5543 20.2237 55.111 21.313C54.6677 22.3897 54.009 23.3207 53.135 24.106C52.261 24.8787 51.1717 25.4867 49.867 25.93C48.575 26.3607 47.0677 26.576 45.345 26.576H41.279V36.475H36.833V9.11501H45.345ZM76.2903 33.378V36.475H61.3753V33.378H67.0753V16.24C67.0753 15.632 67.0943 15.0113 67.1323 14.378L62.7433 18.083C62.5533 18.235 62.357 18.3363 62.1543 18.387C61.9643 18.425 61.7807 18.425 61.6033 18.387C61.4387 18.349 61.2867 18.292 61.1473 18.216C61.0207 18.1273 60.9193 18.0323 60.8433 17.931L59.5703 16.145L67.8163 9.058H71.1413V33.378H76.2903ZM99.8153 22.795C99.8153 25.189 99.5556 27.26 99.0363 29.008C98.5296 30.756 97.8266 32.2063 96.9273 33.359C96.028 34.5117 94.9703 35.3667 93.7543 35.924C92.5383 36.4813 91.2273 36.76 89.8213 36.76C88.4153 36.76 87.1043 36.4813 85.8883 35.924C84.6723 35.3667 83.6146 34.5117 82.7153 33.359C81.8286 32.2063 81.132 30.756 80.6253 29.008C80.1186 27.26 79.8653 25.189 79.8653 22.795C79.8653 20.401 80.1186 18.33 80.6253 16.582C81.132 14.8213 81.8286 13.371 82.7153 12.231C83.6146 11.0783 84.6723 10.2233 85.8883 9.66601C87.1043 9.096 88.4153 8.811 89.8213 8.811C91.2273 8.811 92.5383 9.096 93.7543 9.66601C94.9703 10.2233 96.028 11.0783 96.9273 12.231C97.8266 13.371 98.5296 14.8213 99.0363 16.582C99.5556 18.33 99.8153 20.401 99.8153 22.795ZM95.5973 22.795C95.5973 20.7683 95.4326 19.0837 95.1033 17.741C94.7866 16.3857 94.3623 15.3027 93.8303 14.492C93.2983 13.6813 92.684 13.105 91.9873 12.763C91.2906 12.421 90.5686 12.25 89.8213 12.25C89.0613 12.25 88.333 12.421 87.6363 12.763C86.9523 13.105 86.3443 13.6813 85.8123 14.492C85.2803 15.3027 84.856 16.3857 84.5393 17.741C84.2226 19.0837 84.0643 20.7683 84.0643 22.795C84.0643 24.8217 84.2226 26.5127 84.5393 27.868C84.856 29.2107 85.2803 30.2873 85.8123 31.098C86.3443 31.9087 86.9523 32.485 87.6363 32.827C88.333 33.169 89.0613 33.34 89.8213 33.34C90.5686 33.34 91.2906 33.169 91.9873 32.827C92.684 32.485 93.2983 31.9087 93.8303 31.098C94.3623 30.2873 94.7866 29.2107 95.1033 27.868C95.4326 26.5127 95.5973 24.8217 95.5973 22.795ZM121.858 22.795C121.858 25.189 121.599 27.26 121.079 29.008C120.573 30.756 119.87 32.2063 118.97 33.359C118.071 34.5117 117.013 35.3667 115.797 35.924C114.581 36.4813 113.27 36.76 111.864 36.76C110.458 36.76 109.147 36.4813 107.931 35.924C106.715 35.3667 105.658 34.5117 104.758 33.359C103.872 32.2063 103.175 30.756 102.668 29.008C102.162 27.26 101.908 25.189 101.908 22.795C101.908 20.401 102.162 18.33 102.668 16.582C103.175 14.8213 103.872 13.371 104.758 12.231C105.658 11.0783 106.715 10.2233 107.931 9.66601C109.147 9.096 110.458 8.811 111.864 8.811C113.27 8.811 114.581 9.096 115.797 9.66601C117.013 10.2233 118.071 11.0783 118.97 12.231C119.87 13.371 120.573 14.8213 121.079 16.582C121.599 18.33 121.858 20.401 121.858 22.795ZM117.64 22.795C117.64 20.7683 117.476 19.0837 117.146 17.741C116.83 16.3857 116.405 15.3027 115.873 14.492C115.341 13.6813 114.727 13.105 114.03 12.763C113.334 12.421 112.612 12.25 111.864 12.25C111.104 12.25 110.376 12.421 109.679 12.763C108.995 13.105 108.387 13.6813 107.855 14.492C107.323 15.3027 106.899 16.3857 106.582 17.741C106.266 19.0837 106.107 20.7683 106.107 22.795C106.107 24.8217 106.266 26.5127 106.582 27.868C106.899 29.2107 107.323 30.2873 107.855 31.098C108.387 31.9087 108.995 32.485 109.679 32.827C110.376 33.169 111.104 33.34 111.864 33.34C112.612 33.34 113.334 33.169 114.03 32.827C114.727 32.485 115.341 31.9087 115.873 31.098C116.405 30.2873 116.83 29.2107 117.146 27.868C117.476 26.5127 117.64 24.8217 117.64 22.795Z" fill="#011627"/>
</svg>
