<svg width="168" height="125" viewBox="0 0 168 125" fill="none" xmlns="http://www.w3.org/2000/svg">
<g filter="url(#filter0_d_201_20419)">
<rect x="25" y="25" width="118" height="75" rx="10" fill="#081049"/>
</g>
<path d="M72.3306 87H70.5681V76.2H72.3306V87ZM78.2494 81.705C78.6394 81.705 78.9819 81.655 79.2769 81.555C79.5769 81.455 79.8244 81.315 80.0194 81.135C80.2194 80.95 80.3694 80.7275 80.4694 80.4675C80.5694 80.2075 80.6194 79.9175 80.6194 79.5975C80.6194 79.2825 80.5694 79 80.4694 78.75C80.3744 78.5 80.2294 78.2875 80.0344 78.1125C79.8394 77.9375 79.5919 77.805 79.2919 77.715C78.9969 77.62 78.6494 77.5725 78.2494 77.5725H76.6444V81.705H78.2494ZM78.2494 76.2C78.9544 76.2 79.5644 76.2825 80.0794 76.4475C80.5994 76.6125 81.0269 76.845 81.3619 77.145C81.7019 77.44 81.9544 77.7975 82.1194 78.2175C82.2844 78.6325 82.3669 79.0925 82.3669 79.5975C82.3669 80.1125 82.2794 80.585 82.1044 81.015C81.9294 81.44 81.6694 81.8075 81.3244 82.1175C80.9794 82.4225 80.5494 82.6625 80.0344 82.8375C79.5244 83.0075 78.9294 83.0925 78.2494 83.0925H76.6444V87H74.8894V76.2H78.2494ZM87.1797 81.375C87.5797 81.375 87.9297 81.3275 88.2297 81.2325C88.5297 81.1325 88.7797 80.995 88.9797 80.82C89.1797 80.645 89.3297 80.4375 89.4297 80.1975C89.5297 79.9525 89.5797 79.6825 89.5797 79.3875C89.5797 78.7975 89.3847 78.3475 88.9947 78.0375C88.6047 77.7275 88.0147 77.5725 87.2247 77.5725H85.7997V81.375H87.1797ZM92.2647 87H90.6972C90.3872 87 90.1622 86.88 90.0222 86.64L87.5022 83.0025C87.4172 82.8775 87.3247 82.7875 87.2247 82.7325C87.1247 82.6775 86.9747 82.65 86.7747 82.65H85.7997V87H84.0447V76.2H87.2247C87.9347 76.2 88.5447 76.2725 89.0547 76.4175C89.5697 76.5625 89.9922 76.77 90.3222 77.04C90.6522 77.305 90.8947 77.625 91.0497 78C91.2097 78.375 91.2897 78.7925 91.2897 79.2525C91.2897 79.6275 91.2322 79.9775 91.1172 80.3025C91.0072 80.6275 90.8447 80.9225 90.6297 81.1875C90.4197 81.4525 90.1597 81.6825 89.8497 81.8775C89.5397 82.0725 89.1872 82.225 88.7922 82.335C89.0072 82.465 89.1922 82.6475 89.3472 82.8825L92.2647 87ZM97.7165 80.7375C97.6765 80.8075 97.6315 80.8575 97.5815 80.8875C97.5315 80.9175 97.469 80.9325 97.394 80.9325C97.309 80.9325 97.2165 80.9075 97.1165 80.8575C97.0165 80.8025 96.899 80.7425 96.764 80.6775C96.629 80.6125 96.469 80.555 96.284 80.505C96.104 80.45 95.8915 80.4225 95.6465 80.4225C95.4465 80.4225 95.264 80.4475 95.099 80.4975C94.939 80.5425 94.8015 80.61 94.6865 80.7C94.5765 80.785 94.4915 80.8875 94.4315 81.0075C94.3715 81.1225 94.3415 81.2475 94.3415 81.3825C94.3415 81.5625 94.3965 81.7125 94.5065 81.8325C94.6165 81.9525 94.7615 82.0575 94.9415 82.1475C95.1215 82.2325 95.3265 82.31 95.5565 82.38C95.7865 82.45 96.0215 82.525 96.2615 82.605C96.5015 82.685 96.7365 82.7775 96.9665 82.8825C97.1965 82.9875 97.4015 83.1175 97.5815 83.2725C97.7615 83.4225 97.9065 83.6075 98.0165 83.8275C98.1265 84.0425 98.1815 84.305 98.1815 84.615C98.1815 84.975 98.1165 85.3075 97.9865 85.6125C97.8565 85.9175 97.6665 86.1825 97.4165 86.4075C97.1665 86.6325 96.854 86.8075 96.479 86.9325C96.109 87.0575 95.684 87.12 95.204 87.12C94.939 87.12 94.6815 87.095 94.4315 87.045C94.1865 87 93.9515 86.9375 93.7265 86.8575C93.5065 86.7725 93.299 86.6725 93.104 86.5575C92.914 86.4425 92.744 86.3175 92.594 86.1825L92.969 85.5675C93.014 85.4925 93.069 85.435 93.134 85.395C93.204 85.35 93.289 85.3275 93.389 85.3275C93.494 85.3275 93.5965 85.3625 93.6965 85.4325C93.8015 85.4975 93.9215 85.57 94.0565 85.65C94.1965 85.73 94.364 85.805 94.559 85.875C94.754 85.94 94.9965 85.9725 95.2865 85.9725C95.5265 85.9725 95.734 85.945 95.909 85.89C96.084 85.83 96.229 85.75 96.344 85.65C96.459 85.55 96.544 85.4375 96.599 85.3125C96.654 85.1825 96.6815 85.045 96.6815 84.9C96.6815 84.705 96.6265 84.545 96.5165 84.42C96.4065 84.295 96.259 84.1875 96.074 84.0975C95.894 84.0075 95.6865 83.9275 95.4515 83.8575C95.2215 83.7875 94.9865 83.7125 94.7465 83.6325C94.5065 83.5525 94.269 83.46 94.034 83.355C93.804 83.25 93.5965 83.1175 93.4115 82.9575C93.2315 82.7925 93.0865 82.595 92.9765 82.365C92.8665 82.13 92.8115 81.845 92.8115 81.51C92.8115 81.205 92.8715 80.915 92.9915 80.64C93.1165 80.365 93.2965 80.1225 93.5315 79.9125C93.7715 79.7025 94.064 79.5375 94.409 79.4175C94.759 79.2925 95.1615 79.23 95.6165 79.23C96.1315 79.23 96.599 79.3125 97.019 79.4775C97.439 79.6425 97.7915 79.8675 98.0765 80.1525L97.7165 80.7375Z" fill="white"/>
<circle cx="84" cy="52" r="12" stroke="white" stroke-width="2.5" stroke-linecap="round" stroke-linejoin="round"/>
<path d="M83.8125 52.01C84.1575 52.01 84.45 51.9675 84.69 51.8825C84.935 51.7925 85.135 51.67 85.29 51.515C85.445 51.36 85.5575 51.18 85.6275 50.975C85.6975 50.765 85.7325 50.54 85.7325 50.3C85.7325 49.82 85.575 49.445 85.26 49.175C84.95 48.905 84.4675 48.77 83.8125 48.77H82.7925V52.01H83.8125ZM89.1975 57.8H86.9025C86.4775 57.8 86.1725 57.64 85.9875 57.32L84.1725 54.1475C84.0875 54.0125 83.9925 53.915 83.8875 53.855C83.7825 53.79 83.6325 53.7575 83.4375 53.7575H82.7925V57.8H80.2575V46.8725H83.8125C84.6025 46.8725 85.275 46.955 85.83 47.12C86.39 47.28 86.845 47.505 87.195 47.795C87.55 48.085 87.8075 48.4275 87.9675 48.8225C88.1275 49.2175 88.2075 49.6475 88.2075 50.1125C88.2075 50.4675 88.16 50.8025 88.065 51.1175C87.97 51.4325 87.83 51.725 87.645 51.995C87.46 52.26 87.23 52.4975 86.955 52.7075C86.685 52.9175 86.3725 53.09 86.0175 53.225C86.1825 53.31 86.3375 53.4175 86.4825 53.5475C86.6275 53.6725 86.7575 53.8225 86.8725 53.9975L89.1975 57.8Z" fill="white"/>
<path d="M82.7441 19.8729C83.1428 19.4124 83.8572 19.4124 84.2559 19.8729L88.5622 24.8453C89.1231 25.493 88.663 26.5 87.8063 26.5H79.1937C78.337 26.5 77.8769 25.493 78.4378 24.8453L82.7441 19.8729Z" fill="#081049"/>
<defs>
<filter id="filter0_d_201_20419" x="0" y="0" width="168" height="125" filterUnits="userSpaceOnUse" color-interpolation-filters="sRGB">
<feFlood flood-opacity="0" result="BackgroundImageFix"/>
<feColorMatrix in="SourceAlpha" type="matrix" values="0 0 0 0 0 0 0 0 0 0 0 0 0 0 0 0 0 0 127 0" result="hardAlpha"/>
<feMorphology radius="5" operator="dilate" in="SourceAlpha" result="effect1_dropShadow_201_20419"/>
<feOffset/>
<feGaussianBlur stdDeviation="10"/>
<feComposite in2="hardAlpha" operator="out"/>
<feColorMatrix type="matrix" values="0 0 0 0 0.131441 0 0 0 0 0.213079 0 0 0 0 0.279167 0 0 0 0.06 0"/>
<feBlend mode="normal" in2="BackgroundImageFix" result="effect1_dropShadow_201_20419"/>
<feBlend mode="normal" in="SourceGraphic" in2="effect1_dropShadow_201_20419" result="shape"/>
</filter>
</defs>
</svg>
