<svg width="66" height="66" viewBox="0 0 66 66" fill="none" xmlns="http://www.w3.org/2000/svg">
<g filter="url(#filter0_d_143_18380)">
<rect x="15" y="15" width="36" height="36" rx="10" fill="#2667FF"/>
<path d="M35.9527 35.4345L38.5283 37.8928M40 39.2976L38.5283 37.8928L40 39.2976ZM32.9283 32.5476C32.5534 32.9103 32.107 33.1986 31.6149 33.3959C31.1228 33.5933 30.5946 33.6958 30.0609 33.6975C29.5271 33.6992 28.9982 33.6001 28.5047 33.4059C28.0112 33.2117 27.5629 32.9263 27.1854 32.566C26.808 32.2057 26.5089 31.7778 26.3055 31.3067C26.1021 30.8357 25.9982 30.3309 26 29.8214C26.0018 29.3119 26.1092 28.8078 26.3159 28.3381C26.5227 27.8683 26.8247 27.4423 27.2047 27.0844C27.968 26.3807 28.9903 25.9913 30.0515 26.0001C31.1127 26.0089 32.1278 26.4152 32.8782 27.1315C33.6286 27.8477 34.0543 28.8167 34.0635 29.8296C34.0727 30.8425 33.6648 31.8183 32.9275 32.5469L32.9283 32.5476ZM32.9283 32.5476L35.9527 35.4345L32.9283 32.5476ZM35.9527 35.4345L33.7451 37.5416L36.3206 40L38.5283 37.8928L35.9527 35.4345Z" stroke="white" stroke-width="2" stroke-linecap="round" stroke-linejoin="round"/>
</g>
<defs>
<filter id="filter0_d_143_18380" x="0" y="0" width="66" height="66" filterUnits="userSpaceOnUse" color-interpolation-filters="sRGB">
<feFlood flood-opacity="0" result="BackgroundImageFix"/>
<feColorMatrix in="SourceAlpha" type="matrix" values="0 0 0 0 0 0 0 0 0 0 0 0 0 0 0 0 0 0 127 0" result="hardAlpha"/>
<feOffset/>
<feGaussianBlur stdDeviation="7.5"/>
<feComposite in2="hardAlpha" operator="out"/>
<feColorMatrix type="matrix" values="0 0 0 0 0.131441 0 0 0 0 0.213079 0 0 0 0 0.279167 0 0 0 0.2 0"/>
<feBlend mode="normal" in2="BackgroundImageFix" result="effect1_dropShadow_143_18380"/>
<feBlend mode="normal" in="SourceGraphic" in2="effect1_dropShadow_143_18380" result="shape"/>
</filter>
</defs>
</svg>
