<svg width="168" height="125" viewBox="0 0 168 125" fill="none" xmlns="http://www.w3.org/2000/svg">
<g filter="url(#filter0_d_201_20409)">
<rect x="25" y="25" width="118" height="75" rx="10" fill="white"/>
</g>
<path d="M56.9156 85.53V87H50.6756V76.2H52.4306V85.53H56.9156ZM59.8046 79.35V87H58.1921V79.35H59.8046ZM60.0746 77.04C60.0746 77.185 60.0446 77.3225 59.9846 77.4525C59.9296 77.5825 59.8521 77.6975 59.7521 77.7975C59.6521 77.8925 59.5346 77.97 59.3996 78.03C59.2696 78.085 59.1296 78.1125 58.9796 78.1125C58.8346 78.1125 58.6971 78.085 58.5671 78.03C58.4421 77.97 58.3321 77.8925 58.2371 77.7975C58.1421 77.6975 58.0646 77.5825 58.0046 77.4525C57.9496 77.3225 57.9221 77.185 57.9221 77.04C57.9221 76.89 57.9496 76.75 58.0046 76.62C58.0646 76.49 58.1421 76.3775 58.2371 76.2825C58.3321 76.1825 58.4421 76.105 58.5671 76.05C58.6971 75.99 58.8346 75.96 58.9796 75.96C59.1296 75.96 59.2696 75.99 59.3996 76.05C59.5346 76.105 59.6521 76.1825 59.7521 76.2825C59.8521 76.3775 59.9296 76.49 59.9846 76.62C60.0446 76.75 60.0746 76.89 60.0746 77.04ZM69.2556 87H67.6431V80.6175H63.9156V84.96C63.9156 85.235 63.9831 85.445 64.1181 85.59C64.2531 85.735 64.4331 85.8075 64.6581 85.8075C64.7831 85.8075 64.8906 85.7925 64.9806 85.7625C65.0706 85.7275 65.1481 85.6925 65.2131 85.6575C65.2781 85.6175 65.3331 85.5825 65.3781 85.5525C65.4281 85.5175 65.4756 85.5 65.5206 85.5C65.6106 85.5 65.6831 85.55 65.7381 85.65L66.2181 86.4375C65.9681 86.6575 65.6731 86.8275 65.3331 86.9475C64.9931 87.0625 64.6431 87.12 64.2831 87.12C63.6481 87.12 63.1581 86.9425 62.8131 86.5875C62.4731 86.2275 62.3031 85.7225 62.3031 85.0725V80.6175H61.4631C61.3731 80.6175 61.2956 80.59 61.2306 80.535C61.1656 80.475 61.1331 80.3875 61.1331 80.2725V79.62L62.3706 79.44L62.7231 77.2275C62.7481 77.1425 62.7906 77.075 62.8506 77.025C62.9106 76.97 62.9906 76.9425 63.0906 76.9425H63.9156V79.455H69.2556V87ZM69.5856 77.0025C69.5856 77.1475 69.5556 77.285 69.4956 77.415C69.4406 77.54 69.3631 77.6525 69.2631 77.7525C69.1631 77.8475 69.0456 77.925 68.9106 77.985C68.7806 78.04 68.6431 78.0675 68.4981 78.0675C68.3531 78.0675 68.2156 78.04 68.0856 77.985C67.9606 77.925 67.8481 77.8475 67.7481 77.7525C67.6531 77.6525 67.5756 77.54 67.5156 77.415C67.4606 77.285 67.4331 77.1475 67.4331 77.0025C67.4331 76.8525 67.4606 76.7125 67.5156 76.5825C67.5756 76.4475 67.6531 76.3325 67.7481 76.2375C67.8481 76.1375 67.9606 76.06 68.0856 76.005C68.2156 75.945 68.3531 75.915 68.4981 75.915C68.6431 75.915 68.7806 75.945 68.9106 76.005C69.0456 76.06 69.1631 76.1375 69.2631 76.2375C69.3631 76.3325 69.4406 76.4475 69.4956 76.5825C69.5556 76.7125 69.5856 76.8525 69.5856 77.0025ZM74.0235 83.1075C74.5235 83.1075 74.8985 82.98 75.1485 82.725C75.3985 82.47 75.5235 82.1375 75.5235 81.7275C75.5235 81.3075 75.3985 80.975 75.1485 80.73C74.8985 80.485 74.5235 80.3625 74.0235 80.3625C73.5285 80.3625 73.1535 80.485 72.8985 80.73C72.6485 80.975 72.5235 81.3075 72.5235 81.7275C72.5235 81.9275 72.556 82.1125 72.621 82.2825C72.686 82.4525 72.781 82.6 72.906 82.725C73.031 82.845 73.186 82.94 73.371 83.01C73.561 83.075 73.7785 83.1075 74.0235 83.1075ZM76.266 87.375C76.266 87.205 76.216 87.07 76.116 86.97C76.021 86.865 75.891 86.785 75.726 86.73C75.561 86.67 75.3685 86.6275 75.1485 86.6025C74.9285 86.5725 74.6935 86.5525 74.4435 86.5425C74.1985 86.5275 73.946 86.515 73.686 86.505C73.431 86.49 73.1835 86.465 72.9435 86.43C72.7035 86.555 72.506 86.705 72.351 86.88C72.201 87.055 72.126 87.2575 72.126 87.4875C72.126 87.6375 72.1635 87.7775 72.2385 87.9075C72.3185 88.0375 72.4385 88.15 72.5985 88.245C72.7635 88.34 72.971 88.415 73.221 88.47C73.476 88.525 73.781 88.5525 74.136 88.5525C74.846 88.5525 75.3785 88.4425 75.7335 88.2225C76.0885 88.0025 76.266 87.72 76.266 87.375ZM77.886 79.6275V80.2275C77.886 80.4275 77.766 80.55 77.526 80.595L76.761 80.7225C76.891 81.0125 76.956 81.335 76.956 81.69C76.956 82.065 76.881 82.405 76.731 82.71C76.586 83.015 76.3835 83.275 76.1235 83.49C75.8635 83.705 75.5535 83.87 75.1935 83.985C74.8335 84.1 74.4435 84.1575 74.0235 84.1575C73.8635 84.1575 73.706 84.15 73.551 84.135C73.401 84.115 73.2535 84.09 73.1085 84.06C72.9635 84.145 72.856 84.235 72.786 84.33C72.716 84.425 72.681 84.5225 72.681 84.6225C72.681 84.7875 72.7535 84.91 72.8985 84.99C73.0435 85.07 73.2335 85.1275 73.4685 85.1625C73.7085 85.1975 73.981 85.22 74.286 85.23C74.591 85.24 74.901 85.2575 75.216 85.2825C75.531 85.3075 75.841 85.35 76.146 85.41C76.451 85.465 76.721 85.56 76.956 85.695C77.196 85.825 77.3885 86.0025 77.5335 86.2275C77.6785 86.4525 77.751 86.745 77.751 87.105C77.751 87.435 77.6685 87.7575 77.5035 88.0725C77.3385 88.3875 77.0985 88.6675 76.7835 88.9125C76.4735 89.1575 76.0935 89.3525 75.6435 89.4975C75.1935 89.6475 74.681 89.7225 74.106 89.7225C73.536 89.7225 73.0385 89.6675 72.6135 89.5575C72.1935 89.4475 71.841 89.2975 71.556 89.1075C71.276 88.9225 71.066 88.7075 70.926 88.4625C70.791 88.2175 70.7235 87.9625 70.7235 87.6975C70.7235 87.3375 70.836 87.03 71.061 86.775C71.291 86.52 71.601 86.32 71.991 86.175C71.781 86.075 71.611 85.9375 71.481 85.7625C71.356 85.5875 71.2935 85.3575 71.2935 85.0725C71.2935 84.8475 71.376 84.6125 71.541 84.3675C71.706 84.1225 71.9535 83.915 72.2835 83.745C71.9035 83.535 71.6035 83.2575 71.3835 82.9125C71.1635 82.5625 71.0535 82.155 71.0535 81.69C71.0535 81.31 71.126 80.9675 71.271 80.6625C71.421 80.3575 71.6285 80.0975 71.8935 79.8825C72.1585 79.6675 72.471 79.5025 72.831 79.3875C73.196 79.2725 73.5935 79.215 74.0235 79.215C74.6835 79.215 75.2585 79.3525 75.7485 79.6275H77.886ZM83.2472 83.655C82.6722 83.675 82.1872 83.7225 81.7922 83.7975C81.3972 83.8675 81.0772 83.96 80.8322 84.075C80.5872 84.185 80.4097 84.3175 80.2997 84.4725C80.1947 84.6275 80.1422 84.7975 80.1422 84.9825C80.1422 85.1625 80.1697 85.3175 80.2247 85.4475C80.2847 85.5725 80.3647 85.6775 80.4647 85.7625C80.5697 85.8425 80.6897 85.9025 80.8247 85.9425C80.9647 85.9775 81.1172 85.995 81.2822 85.995C81.7022 85.995 82.0622 85.9175 82.3622 85.7625C82.6672 85.6025 82.9622 85.3725 83.2472 85.0725V83.655ZM78.9722 80.415C79.8372 79.61 80.8672 79.2075 82.0622 79.2075C82.5022 79.2075 82.8922 79.28 83.2322 79.425C83.5772 79.565 83.8647 79.765 84.0947 80.025C84.3297 80.285 84.5072 80.595 84.6272 80.955C84.7522 81.31 84.8147 81.705 84.8147 82.14V87H84.0947C83.9397 87 83.8222 86.9775 83.7422 86.9325C83.6622 86.8825 83.5947 86.785 83.5397 86.64L83.3822 86.0175C83.1872 86.1925 82.9947 86.35 82.8047 86.49C82.6147 86.625 82.4172 86.74 82.2122 86.835C82.0122 86.93 81.7947 87 81.5597 87.045C81.3297 87.095 81.0747 87.12 80.7947 87.12C80.4847 87.12 80.1947 87.0775 79.9247 86.9925C79.6597 86.9075 79.4297 86.78 79.2347 86.61C79.0397 86.435 78.8847 86.22 78.7697 85.965C78.6597 85.71 78.6047 85.41 78.6047 85.065C78.6047 84.77 78.6822 84.4825 78.8372 84.2025C78.9972 83.9225 79.2572 83.6725 79.6172 83.4525C79.9822 83.2275 80.4597 83.0425 81.0497 82.8975C81.6447 82.7525 82.3772 82.67 83.2472 82.65V82.14C83.2472 81.59 83.1297 81.18 82.8947 80.91C82.6597 80.64 82.3147 80.505 81.8597 80.505C81.5497 80.505 81.2897 80.545 81.0797 80.625C80.8697 80.7 80.6872 80.7825 80.5322 80.8725C80.3772 80.9625 80.2397 81.0475 80.1197 81.1275C79.9997 81.2025 79.8722 81.24 79.7372 81.24C79.6272 81.24 79.5322 81.2125 79.4522 81.1575C79.3772 81.0975 79.3147 81.025 79.2647 80.94L78.9722 80.415ZM94.0262 87H92.4137V80.6175H88.6862V84.96C88.6862 85.235 88.7537 85.445 88.8887 85.59C89.0237 85.735 89.2037 85.8075 89.4287 85.8075C89.5537 85.8075 89.6612 85.7925 89.7512 85.7625C89.8412 85.7275 89.9187 85.6925 89.9837 85.6575C90.0487 85.6175 90.1037 85.5825 90.1487 85.5525C90.1987 85.5175 90.2462 85.5 90.2912 85.5C90.3812 85.5 90.4537 85.55 90.5087 85.65L90.9887 86.4375C90.7387 86.6575 90.4437 86.8275 90.1037 86.9475C89.7637 87.0625 89.4137 87.12 89.0537 87.12C88.4187 87.12 87.9287 86.9425 87.5837 86.5875C87.2437 86.2275 87.0737 85.7225 87.0737 85.0725V80.6175H86.2337C86.1437 80.6175 86.0662 80.59 86.0012 80.535C85.9362 80.475 85.9037 80.3875 85.9037 80.2725V79.62L87.1412 79.44L87.4937 77.2275C87.5187 77.1425 87.5612 77.075 87.6212 77.025C87.6812 76.97 87.7612 76.9425 87.8612 76.9425H88.6862V79.455H94.0262V87ZM94.3562 77.0025C94.3562 77.1475 94.3262 77.285 94.2662 77.415C94.2112 77.54 94.1337 77.6525 94.0337 77.7525C93.9337 77.8475 93.8162 77.925 93.6812 77.985C93.5512 78.04 93.4137 78.0675 93.2687 78.0675C93.1237 78.0675 92.9862 78.04 92.8562 77.985C92.7312 77.925 92.6187 77.8475 92.5187 77.7525C92.4237 77.6525 92.3462 77.54 92.2862 77.415C92.2312 77.285 92.2037 77.1475 92.2037 77.0025C92.2037 76.8525 92.2312 76.7125 92.2862 76.5825C92.3462 76.4475 92.4237 76.3325 92.5187 76.2375C92.6187 76.1375 92.7312 76.06 92.8562 76.005C92.9862 75.945 93.1237 75.915 93.2687 75.915C93.4137 75.915 93.5512 75.945 93.6812 76.005C93.8162 76.06 93.9337 76.1375 94.0337 76.2375C94.1337 76.3325 94.2112 76.4475 94.2662 76.5825C94.3262 76.7125 94.3562 76.8525 94.3562 77.0025ZM99.3715 79.23C99.9365 79.23 100.447 79.3225 100.902 79.5075C101.362 79.6925 101.752 79.955 102.072 80.295C102.397 80.635 102.647 81.0475 102.822 81.5325C102.997 82.0175 103.084 82.5625 103.084 83.1675C103.084 83.7725 102.997 84.3175 102.822 84.8025C102.647 85.2875 102.397 85.7025 102.072 86.0475C101.752 86.3875 101.362 86.65 100.902 86.835C100.447 87.02 99.9365 87.1125 99.3715 87.1125C98.8015 87.1125 98.2865 87.02 97.8265 86.835C97.3715 86.65 96.9815 86.3875 96.6565 86.0475C96.3315 85.7025 96.0815 85.2875 95.9065 84.8025C95.7315 84.3175 95.644 83.7725 95.644 83.1675C95.644 82.5625 95.7315 82.0175 95.9065 81.5325C96.0815 81.0475 96.3315 80.635 96.6565 80.295C96.9815 79.955 97.3715 79.6925 97.8265 79.5075C98.2865 79.3225 98.8015 79.23 99.3715 79.23ZM99.3715 85.8525C100.062 85.8525 100.574 85.6225 100.909 85.1625C101.249 84.6975 101.419 84.035 101.419 83.175C101.419 82.315 101.249 81.6525 100.909 81.1875C100.574 80.7175 100.062 80.4825 99.3715 80.4825C98.6715 80.4825 98.1515 80.7175 97.8115 81.1875C97.4715 81.6525 97.3015 82.315 97.3015 83.175C97.3015 84.035 97.4715 84.6975 97.8115 85.1625C98.1515 85.6225 98.6715 85.8525 99.3715 85.8525ZM106.141 80.3625C106.306 80.1925 106.476 80.04 106.651 79.905C106.831 79.765 107.021 79.645 107.221 79.545C107.421 79.445 107.633 79.3675 107.858 79.3125C108.083 79.2575 108.328 79.23 108.593 79.23C109.013 79.23 109.381 79.3 109.696 79.44C110.016 79.58 110.283 79.7775 110.498 80.0325C110.718 80.2875 110.883 80.595 110.993 80.955C111.103 81.31 111.158 81.7025 111.158 82.1325V87H109.553V82.1325C109.553 81.6175 109.433 81.2175 109.193 80.9325C108.958 80.6475 108.598 80.505 108.113 80.505C107.753 80.505 107.418 80.5875 107.108 80.7525C106.803 80.9175 106.516 81.1425 106.246 81.4275V87H104.633V79.35H105.608C105.828 79.35 105.968 79.4525 106.028 79.6575L106.141 80.3625ZM117.609 80.7375C117.569 80.8075 117.524 80.8575 117.474 80.8875C117.424 80.9175 117.362 80.9325 117.287 80.9325C117.202 80.9325 117.109 80.9075 117.009 80.8575C116.909 80.8025 116.792 80.7425 116.657 80.6775C116.522 80.6125 116.362 80.555 116.177 80.505C115.997 80.45 115.784 80.4225 115.539 80.4225C115.339 80.4225 115.157 80.4475 114.992 80.4975C114.832 80.5425 114.694 80.61 114.579 80.7C114.469 80.785 114.384 80.8875 114.324 81.0075C114.264 81.1225 114.234 81.2475 114.234 81.3825C114.234 81.5625 114.289 81.7125 114.399 81.8325C114.509 81.9525 114.654 82.0575 114.834 82.1475C115.014 82.2325 115.219 82.31 115.449 82.38C115.679 82.45 115.914 82.525 116.154 82.605C116.394 82.685 116.629 82.7775 116.859 82.8825C117.089 82.9875 117.294 83.1175 117.474 83.2725C117.654 83.4225 117.799 83.6075 117.909 83.8275C118.019 84.0425 118.074 84.305 118.074 84.615C118.074 84.975 118.009 85.3075 117.879 85.6125C117.749 85.9175 117.559 86.1825 117.309 86.4075C117.059 86.6325 116.747 86.8075 116.372 86.9325C116.002 87.0575 115.577 87.12 115.097 87.12C114.832 87.12 114.574 87.095 114.324 87.045C114.079 87 113.844 86.9375 113.619 86.8575C113.399 86.7725 113.192 86.6725 112.997 86.5575C112.807 86.4425 112.637 86.3175 112.487 86.1825L112.862 85.5675C112.907 85.4925 112.962 85.435 113.027 85.395C113.097 85.35 113.182 85.3275 113.282 85.3275C113.387 85.3275 113.489 85.3625 113.589 85.4325C113.694 85.4975 113.814 85.57 113.949 85.65C114.089 85.73 114.257 85.805 114.452 85.875C114.647 85.94 114.889 85.9725 115.179 85.9725C115.419 85.9725 115.627 85.945 115.802 85.89C115.977 85.83 116.122 85.75 116.237 85.65C116.352 85.55 116.437 85.4375 116.492 85.3125C116.547 85.1825 116.574 85.045 116.574 84.9C116.574 84.705 116.519 84.545 116.409 84.42C116.299 84.295 116.152 84.1875 115.967 84.0975C115.787 84.0075 115.579 83.9275 115.344 83.8575C115.114 83.7875 114.879 83.7125 114.639 83.6325C114.399 83.5525 114.162 83.46 113.927 83.355C113.697 83.25 113.489 83.1175 113.304 82.9575C113.124 82.7925 112.979 82.595 112.869 82.365C112.759 82.13 112.704 81.845 112.704 81.51C112.704 81.205 112.764 80.915 112.884 80.64C113.009 80.365 113.189 80.1225 113.424 79.9125C113.664 79.7025 113.957 79.5375 114.302 79.4175C114.652 79.2925 115.054 79.23 115.509 79.23C116.024 79.23 116.492 79.3125 116.912 79.4775C117.332 79.6425 117.684 79.8675 117.969 80.1525L117.609 80.7375Z" fill="#223647"/>
<path d="M95.6395 53.1758L83.8586 47.9618C83.7882 47.9304 83.7127 47.914 83.6364 47.9138C83.5601 47.9136 83.4845 47.9295 83.414 47.9606C83.3435 47.9916 83.2794 48.0373 83.2254 48.0949C83.1714 48.1525 83.1286 48.2209 83.0994 48.2962L82.8155 49.0331L81.6913 48.5315L82.3809 46.81L82.885 47.033C82.9542 47.0664 83.0293 47.0833 83.1052 47.0825C83.2206 47.0831 83.3336 47.0469 83.4296 46.9785C83.5256 46.9101 83.6003 46.8126 83.6442 46.6986L84.6409 44.073C84.6704 43.9975 84.6855 43.9165 84.6855 43.8346C84.6855 43.7528 84.6704 43.6717 84.6409 43.5962C84.5795 43.4467 84.4678 43.3274 84.3279 43.2618L77.0554 40.048C76.985 40.0165 76.9095 40.0002 76.8333 40C76.757 39.9998 76.6814 40.0157 76.6109 40.0467C76.5403 40.0778 76.4762 40.1234 76.4223 40.181C76.3683 40.2386 76.3255 40.3071 76.2963 40.3824L75.2822 43.0141C75.2245 43.1653 75.225 43.3347 75.2836 43.4854C75.3423 43.6362 75.4542 43.7561 75.5951 43.8191L76.0993 44.0421L74.326 48.6306L73.8161 48.4077C73.6746 48.346 73.5161 48.3466 73.375 48.4092C73.234 48.4718 73.1217 48.5915 73.0628 48.7421L72.0429 51.38C71.9852 51.5312 71.9857 51.7005 72.0443 51.8513C72.1029 52.0021 72.2149 52.122 72.3558 52.185L79.6225 55.3988C79.6947 55.4282 79.7713 55.4429 79.8485 55.4422C79.9239 55.4432 79.9987 55.4284 80.0687 55.3988C80.2103 55.336 80.3229 55.2158 80.3817 55.0644L81.4015 52.4327C81.431 52.3575 81.4463 52.2768 81.4465 52.1953C81.4467 52.1138 81.4318 52.033 81.4027 51.9577C81.3737 51.8823 81.3309 51.8138 81.277 51.7561C81.2231 51.6984 81.1591 51.6527 81.0886 51.6215L80.5787 51.38L81.2219 49.6771L82.3461 50.1725L82.0622 50.9094C82.0042 51.0601 82.0042 51.2292 82.0622 51.38C82.0906 51.4561 82.133 51.5253 82.1867 51.5838C82.2404 51.6423 82.3044 51.6887 82.3751 51.7206L94.185 56.9531C94.255 56.9837 94.3296 57.0005 94.4052 57.0026C94.5206 57.0033 94.6335 56.9671 94.7295 56.8987C94.8255 56.8303 94.9002 56.7328 94.9441 56.6187L95.9524 54.0056C95.9838 53.9316 96 53.8514 96 53.7702C96 53.6891 95.9838 53.6089 95.9524 53.5349C95.9259 53.4554 95.8845 53.3826 95.8307 53.3208C95.7768 53.2591 95.7118 53.2097 95.6395 53.1758ZM77.1655 41.4289L83.366 44.1721L82.7865 45.6521L76.586 42.9151L77.1655 41.4289ZM79.5472 54.0179L73.3351 51.2747L73.9146 49.7886L80.1151 52.5318L79.5472 54.0179ZM77.1655 44.5189L81.2799 46.3394L79.4835 50.928L75.4271 49.1074L77.1655 44.5189ZM94.0865 55.5474L83.3776 50.8103L83.9571 49.3427L94.6659 54.0799L94.0865 55.5474ZM91.9829 59.9812H78C77.8463 59.9812 77.6989 60.0464 77.5902 60.1625C77.4815 60.2787 77.4205 60.4362 77.4205 60.6004V62.7615H76.2963C76.1426 62.7615 75.9952 62.8268 75.8865 62.9429C75.7779 63.059 75.7168 63.2165 75.7168 63.3808C75.7168 63.545 75.7779 63.7025 75.8865 63.8186C75.9952 63.9348 76.1426 64 76.2963 64H93.6808C93.8345 64 93.9819 63.9348 94.0906 63.8186C94.1993 63.7025 94.2603 63.545 94.2603 63.3808C94.2603 63.2165 94.1993 63.059 94.0906 62.9429C93.9819 62.8268 93.8345 62.7615 93.6808 62.7615H92.5624V60.6004C92.5624 60.4362 92.5014 60.2787 92.3927 60.1625C92.284 60.0464 92.1366 59.9812 91.9829 59.9812ZM78.5795 62.7615V61.2196H91.4034V62.7615H78.5795Z" fill="#5C8DFF" stroke="#5C8DFF" stroke-width="0.7"/>
<defs>
<filter id="filter0_d_201_20409" x="0" y="0" width="168" height="125" filterUnits="userSpaceOnUse" color-interpolation-filters="sRGB">
<feFlood flood-opacity="0" result="BackgroundImageFix"/>
<feColorMatrix in="SourceAlpha" type="matrix" values="0 0 0 0 0 0 0 0 0 0 0 0 0 0 0 0 0 0 127 0" result="hardAlpha"/>
<feMorphology radius="5" operator="dilate" in="SourceAlpha" result="effect1_dropShadow_201_20409"/>
<feOffset/>
<feGaussianBlur stdDeviation="10"/>
<feComposite in2="hardAlpha" operator="out"/>
<feColorMatrix type="matrix" values="0 0 0 0 0.131441 0 0 0 0 0.213079 0 0 0 0 0.279167 0 0 0 0.06 0"/>
<feBlend mode="normal" in2="BackgroundImageFix" result="effect1_dropShadow_201_20409"/>
<feBlend mode="normal" in="SourceGraphic" in2="effect1_dropShadow_201_20409" result="shape"/>
</filter>
</defs>
</svg>
