<svg width="168" height="125" viewBox="0 0 168 125" fill="none" xmlns="http://www.w3.org/2000/svg">
<g filter="url(#filter0_d_201_20399)">
<rect x="25" y="25" width="118" height="75" rx="10" fill="white"/>
</g>
<path d="M69.3441 76.2V87H68.4516C68.3166 87 68.2016 86.9775 68.1066 86.9325C68.0116 86.8825 67.9216 86.8025 67.8366 86.6925L61.9041 79.0725C61.9191 79.2175 61.9291 79.3625 61.9341 79.5075C61.9441 79.6475 61.9491 79.7775 61.9491 79.8975V87H60.4041V76.2H61.3191C61.3941 76.2 61.4566 76.205 61.5066 76.215C61.5616 76.22 61.6116 76.2325 61.6566 76.2525C61.7016 76.2725 61.7441 76.3025 61.7841 76.3425C61.8241 76.3825 61.8666 76.4325 61.9116 76.4925L67.8516 84.12C67.8366 83.965 67.8241 83.8125 67.8141 83.6625C67.8091 83.5125 67.8066 83.3725 67.8066 83.2425V76.2H69.3441ZM74.6909 79.23C75.2559 79.23 75.7659 79.3225 76.2209 79.5075C76.6809 79.6925 77.0709 79.955 77.3909 80.295C77.7159 80.635 77.9659 81.0475 78.1409 81.5325C78.3159 82.0175 78.4034 82.5625 78.4034 83.1675C78.4034 83.7725 78.3159 84.3175 78.1409 84.8025C77.9659 85.2875 77.7159 85.7025 77.3909 86.0475C77.0709 86.3875 76.6809 86.65 76.2209 86.835C75.7659 87.02 75.2559 87.1125 74.6909 87.1125C74.1209 87.1125 73.6059 87.02 73.1459 86.835C72.6909 86.65 72.3009 86.3875 71.9759 86.0475C71.6509 85.7025 71.4009 85.2875 71.2259 84.8025C71.0509 84.3175 70.9634 83.7725 70.9634 83.1675C70.9634 82.5625 71.0509 82.0175 71.2259 81.5325C71.4009 81.0475 71.6509 80.635 71.9759 80.295C72.3009 79.955 72.6909 79.6925 73.1459 79.5075C73.6059 79.3225 74.1209 79.23 74.6909 79.23ZM74.6909 85.8525C75.3809 85.8525 75.8934 85.6225 76.2284 85.1625C76.5684 84.6975 76.7384 84.035 76.7384 83.175C76.7384 82.315 76.5684 81.6525 76.2284 81.1875C75.8934 80.7175 75.3809 80.4825 74.6909 80.4825C73.9909 80.4825 73.4709 80.7175 73.1309 81.1875C72.7909 81.6525 72.6209 82.315 72.6209 83.175C72.6209 84.035 72.7909 84.6975 73.1309 85.1625C73.4709 85.6225 73.9909 85.8525 74.6909 85.8525ZM87.2312 87H85.6187V80.6175H81.8912V84.96C81.8912 85.235 81.9587 85.445 82.0937 85.59C82.2287 85.735 82.4087 85.8075 82.6337 85.8075C82.7587 85.8075 82.8662 85.7925 82.9562 85.7625C83.0462 85.7275 83.1237 85.6925 83.1887 85.6575C83.2537 85.6175 83.3087 85.5825 83.3537 85.5525C83.4037 85.5175 83.4512 85.5 83.4962 85.5C83.5862 85.5 83.6587 85.55 83.7137 85.65L84.1937 86.4375C83.9437 86.6575 83.6487 86.8275 83.3087 86.9475C82.9687 87.0625 82.6187 87.12 82.2587 87.12C81.6237 87.12 81.1337 86.9425 80.7887 86.5875C80.4487 86.2275 80.2787 85.7225 80.2787 85.0725V80.6175H79.4387C79.3487 80.6175 79.2712 80.59 79.2062 80.535C79.1412 80.475 79.1087 80.3875 79.1087 80.2725V79.62L80.3462 79.44L80.6987 77.2275C80.7237 77.1425 80.7662 77.075 80.8262 77.025C80.8862 76.97 80.9662 76.9425 81.0662 76.9425H81.8912V79.455H87.2312V87ZM87.5612 77.0025C87.5612 77.1475 87.5312 77.285 87.4712 77.415C87.4162 77.54 87.3387 77.6525 87.2387 77.7525C87.1387 77.8475 87.0212 77.925 86.8862 77.985C86.7562 78.04 86.6187 78.0675 86.4737 78.0675C86.3287 78.0675 86.1912 78.04 86.0612 77.985C85.9362 77.925 85.8237 77.8475 85.7237 77.7525C85.6287 77.6525 85.5512 77.54 85.4912 77.415C85.4362 77.285 85.4087 77.1475 85.4087 77.0025C85.4087 76.8525 85.4362 76.7125 85.4912 76.5825C85.5512 76.4475 85.6287 76.3325 85.7237 76.2375C85.8237 76.1375 85.9362 76.06 86.0612 76.005C86.1912 75.945 86.3287 75.915 86.4737 75.915C86.6187 75.915 86.7562 75.945 86.8862 76.005C87.0212 76.06 87.1387 76.1375 87.2387 76.2375C87.3387 76.3325 87.4162 76.4475 87.4712 76.5825C87.5312 76.7125 87.5612 76.8525 87.5612 77.0025ZM94.6766 80.85C94.6266 80.915 94.5791 80.965 94.5341 81C94.4891 81.035 94.4241 81.0525 94.3391 81.0525C94.2541 81.0525 94.1641 81.0225 94.0691 80.9625C93.9791 80.9025 93.8691 80.8375 93.7391 80.7675C93.6141 80.6925 93.4616 80.625 93.2816 80.565C93.1016 80.505 92.8766 80.475 92.6066 80.475C92.2566 80.475 91.9491 80.5375 91.6841 80.6625C91.4241 80.7875 91.2041 80.9675 91.0241 81.2025C90.8491 81.4325 90.7166 81.715 90.6266 82.05C90.5416 82.38 90.4991 82.7525 90.4991 83.1675C90.4991 83.5975 90.5466 83.98 90.6416 84.315C90.7366 84.65 90.8716 84.9325 91.0466 85.1625C91.2266 85.3925 91.4416 85.5675 91.6916 85.6875C91.9466 85.8075 92.2316 85.8675 92.5466 85.8675C92.8566 85.8675 93.1091 85.83 93.3041 85.755C93.4991 85.68 93.6616 85.5975 93.7916 85.5075C93.9216 85.4175 94.0316 85.335 94.1216 85.26C94.2166 85.185 94.3166 85.1475 94.4216 85.1475C94.5516 85.1475 94.6516 85.1975 94.7216 85.2975L95.1791 85.89C94.9941 86.115 94.7891 86.305 94.5641 86.46C94.3391 86.615 94.1016 86.7425 93.8516 86.8425C93.6016 86.9375 93.3416 87.005 93.0716 87.045C92.8016 87.09 92.5291 87.1125 92.2541 87.1125C91.7791 87.1125 91.3341 87.025 90.9191 86.85C90.5091 86.67 90.1491 86.4125 89.8391 86.0775C89.5341 85.7375 89.2916 85.325 89.1116 84.84C88.9366 84.35 88.8491 83.7925 88.8491 83.1675C88.8491 82.6025 88.9291 82.08 89.0891 81.6C89.2491 81.115 89.4816 80.6975 89.7866 80.3475C90.0966 79.9975 90.4791 79.725 90.9341 79.53C91.3891 79.33 91.9141 79.23 92.5091 79.23C93.0641 79.23 93.5516 79.32 93.9716 79.5C94.3966 79.68 94.7741 79.935 95.1041 80.265L94.6766 80.85ZM101.362 82.3125C101.362 82.0425 101.322 81.7925 101.242 81.5625C101.167 81.3275 101.054 81.125 100.904 80.955C100.754 80.78 100.567 80.645 100.342 80.55C100.122 80.45 99.8668 80.4 99.5768 80.4C98.9918 80.4 98.5318 80.5675 98.1968 80.9025C97.8618 81.2375 97.6493 81.7075 97.5593 82.3125H101.362ZM97.5143 83.3025C97.5343 83.7375 97.6018 84.115 97.7168 84.435C97.8318 84.75 97.9843 85.0125 98.1743 85.2225C98.3693 85.4325 98.5993 85.59 98.8643 85.695C99.1343 85.795 99.4343 85.845 99.7643 85.845C100.079 85.845 100.352 85.81 100.582 85.74C100.812 85.665 101.012 85.585 101.182 85.5C101.352 85.41 101.497 85.33 101.617 85.26C101.737 85.185 101.847 85.1475 101.947 85.1475C102.077 85.1475 102.177 85.1975 102.247 85.2975L102.704 85.89C102.514 86.115 102.299 86.305 102.059 86.46C101.819 86.615 101.564 86.7425 101.294 86.8425C101.024 86.9375 100.747 87.005 100.462 87.045C100.177 87.09 99.8993 87.1125 99.6293 87.1125C99.0993 87.1125 98.6068 87.025 98.1518 86.85C97.7018 86.67 97.3093 86.4075 96.9743 86.0625C96.6443 85.7175 96.3843 85.29 96.1943 84.78C96.0093 84.27 95.9168 83.6825 95.9168 83.0175C95.9168 82.4875 95.9993 81.9925 96.1643 81.5325C96.3343 81.0725 96.5743 80.6725 96.8843 80.3325C97.1993 79.9925 97.5793 79.725 98.0243 79.53C98.4743 79.33 98.9818 79.23 99.5468 79.23C100.017 79.23 100.452 79.3075 100.852 79.4625C101.252 79.6125 101.597 79.835 101.887 80.13C102.177 80.425 102.402 80.7875 102.562 81.2175C102.727 81.6425 102.809 82.1275 102.809 82.6725C102.809 82.9225 102.782 83.09 102.727 83.175C102.672 83.26 102.572 83.3025 102.427 83.3025H97.5143ZM108.881 80.7375C108.841 80.8075 108.796 80.8575 108.746 80.8875C108.696 80.9175 108.633 80.9325 108.558 80.9325C108.473 80.9325 108.381 80.9075 108.281 80.8575C108.181 80.8025 108.063 80.7425 107.928 80.6775C107.793 80.6125 107.633 80.555 107.448 80.505C107.268 80.45 107.056 80.4225 106.811 80.4225C106.611 80.4225 106.428 80.4475 106.263 80.4975C106.103 80.5425 105.966 80.61 105.851 80.7C105.741 80.785 105.656 80.8875 105.596 81.0075C105.536 81.1225 105.506 81.2475 105.506 81.3825C105.506 81.5625 105.561 81.7125 105.671 81.8325C105.781 81.9525 105.926 82.0575 106.106 82.1475C106.286 82.2325 106.491 82.31 106.721 82.38C106.951 82.45 107.186 82.525 107.426 82.605C107.666 82.685 107.901 82.7775 108.131 82.8825C108.361 82.9875 108.566 83.1175 108.746 83.2725C108.926 83.4225 109.071 83.6075 109.181 83.8275C109.291 84.0425 109.346 84.305 109.346 84.615C109.346 84.975 109.281 85.3075 109.151 85.6125C109.021 85.9175 108.831 86.1825 108.581 86.4075C108.331 86.6325 108.018 86.8075 107.643 86.9325C107.273 87.0575 106.848 87.12 106.368 87.12C106.103 87.12 105.846 87.095 105.596 87.045C105.351 87 105.116 86.9375 104.891 86.8575C104.671 86.7725 104.463 86.6725 104.268 86.5575C104.078 86.4425 103.908 86.3175 103.758 86.1825L104.133 85.5675C104.178 85.4925 104.233 85.435 104.298 85.395C104.368 85.35 104.453 85.3275 104.553 85.3275C104.658 85.3275 104.761 85.3625 104.861 85.4325C104.966 85.4975 105.086 85.57 105.221 85.65C105.361 85.73 105.528 85.805 105.723 85.875C105.918 85.94 106.161 85.9725 106.451 85.9725C106.691 85.9725 106.898 85.945 107.073 85.89C107.248 85.83 107.393 85.75 107.508 85.65C107.623 85.55 107.708 85.4375 107.763 85.3125C107.818 85.1825 107.846 85.045 107.846 84.9C107.846 84.705 107.791 84.545 107.681 84.42C107.571 84.295 107.423 84.1875 107.238 84.0975C107.058 84.0075 106.851 83.9275 106.616 83.8575C106.386 83.7875 106.151 83.7125 105.911 83.6325C105.671 83.5525 105.433 83.46 105.198 83.355C104.968 83.25 104.761 83.1175 104.576 82.9575C104.396 82.7925 104.251 82.595 104.141 82.365C104.031 82.13 103.976 81.845 103.976 81.51C103.976 81.205 104.036 80.915 104.156 80.64C104.281 80.365 104.461 80.1225 104.696 79.9125C104.936 79.7025 105.228 79.5375 105.573 79.4175C105.923 79.2925 106.326 79.23 106.781 79.23C107.296 79.23 107.763 79.3125 108.183 79.4775C108.603 79.6425 108.956 79.8675 109.241 80.1525L108.881 80.7375Z" fill="#223647"/>
<path d="M86.25 40H77.25C76.6533 40 76.081 40.2529 75.659 40.7029C75.2371 41.153 75 41.7635 75 42.4V61.6C75 62.2365 75.2371 62.847 75.659 63.2971C76.081 63.7471 76.6533 64 77.25 64H90.75C91.3467 64 91.919 63.7471 92.341 63.2971C92.7629 62.847 93 62.2365 93 61.6V47.2L86.25 40Z" stroke="#5C8DFF" stroke-width="2.5" stroke-linecap="round" stroke-linejoin="round"/>
<path d="M86.25 40V47.2H93" stroke="#5C8DFF" stroke-width="2.5" stroke-linecap="round" stroke-linejoin="round"/>
<path d="M88.5 53.2H79.5" stroke="#5C8DFF" stroke-width="2.5" stroke-linecap="round" stroke-linejoin="round"/>
<path d="M88.5 58H79.5" stroke="#5C8DFF" stroke-width="2.5" stroke-linecap="round" stroke-linejoin="round"/>
<path d="M81.75 48.4H80.625H79.5" stroke="#5C8DFF" stroke-width="2.5" stroke-linecap="round" stroke-linejoin="round"/>
<defs>
<filter id="filter0_d_201_20399" x="0" y="0" width="168" height="125" filterUnits="userSpaceOnUse" color-interpolation-filters="sRGB">
<feFlood flood-opacity="0" result="BackgroundImageFix"/>
<feColorMatrix in="SourceAlpha" type="matrix" values="0 0 0 0 0 0 0 0 0 0 0 0 0 0 0 0 0 0 127 0" result="hardAlpha"/>
<feMorphology radius="5" operator="dilate" in="SourceAlpha" result="effect1_dropShadow_201_20399"/>
<feOffset/>
<feGaussianBlur stdDeviation="10"/>
<feComposite in2="hardAlpha" operator="out"/>
<feColorMatrix type="matrix" values="0 0 0 0 0.131441 0 0 0 0 0.213079 0 0 0 0 0.279167 0 0 0 0.06 0"/>
<feBlend mode="normal" in2="BackgroundImageFix" result="effect1_dropShadow_201_20399"/>
<feBlend mode="normal" in="SourceGraphic" in2="effect1_dropShadow_201_20399" result="shape"/>
</filter>
</defs>
</svg>
