<svg width="13" height="14" viewBox="0 0 13 14" fill="none" xmlns="http://www.w3.org/2000/svg">
<path d="M1 3.39986H2.22222H12" stroke="#FF546A" stroke-width="1.6" stroke-linecap="round" stroke-linejoin="round"/>
<path d="M4.05501 3.4V2.2C4.05501 1.88174 4.18378 1.57652 4.41299 1.35147C4.6422 1.12643 4.95308 1 5.27724 1H7.72168C8.04583 1 8.35671 1.12643 8.58592 1.35147C8.81513 1.57652 8.9439 1.88174 8.9439 2.2V3.4M10.7772 3.4V11.8C10.7772 12.1183 10.6485 12.4235 10.4193 12.6485C10.19 12.8736 9.87917 13 9.55501 13H3.4439C3.11975 13 2.80887 12.8736 2.57966 12.6485C2.35045 12.4235 2.22168 12.1183 2.22168 11.8V3.4H10.7772Z" stroke="#FF546A" stroke-width="1.6" stroke-linecap="round" stroke-linejoin="round"/>
</svg>
