<svg width="16" height="16" viewBox="0 0 16 16" fill="none" xmlns="http://www.w3.org/2000/svg">
<path d="M10.9527 10.4345L13.5283 12.8928M15 14.2976L13.5283 12.8928L15 14.2976ZM7.92827 7.54763C7.55337 7.9103 7.10701 8.19861 6.6149 8.39595C6.12278 8.59328 5.59463 8.69576 5.06085 8.69746C4.52708 8.69917 3.99822 8.60008 3.50473 8.40589C3.01124 8.2117 2.56286 7.92626 2.18543 7.56599C1.80799 7.20573 1.50894 6.77775 1.30549 6.30672C1.10205 5.83568 0.998235 5.33088 1.00002 4.82139C1.00181 4.3119 1.10917 3.80778 1.31591 3.33805C1.52266 2.86833 1.8247 2.44228 2.20466 2.08443C2.96799 1.38073 3.99035 0.991344 5.05154 1.00015C6.11272 1.00895 7.12784 1.41523 7.87824 2.13149C8.62864 2.84775 9.05429 3.81668 9.06351 4.82958C9.07273 5.84249 8.66478 6.81833 7.92754 7.54693L7.92827 7.54763ZM7.92827 7.54763L10.9527 10.4345L7.92827 7.54763ZM10.9527 10.4345L8.74509 12.5416L11.3206 15L13.5283 12.8928L10.9527 10.4345Z" stroke="white" stroke-width="2" stroke-linecap="round" stroke-linejoin="round"/>
</svg>
