<svg width="16" height="16" viewBox="0 0 16 16" fill="none" xmlns="http://www.w3.org/2000/svg">
<path d="M6.59961 8.71549C6.90165 9.12064 7.28699 9.45587 7.72951 9.69845C8.17203 9.94103 8.66136 10.0853 9.16433 10.1214C9.66729 10.1576 10.1721 10.0847 10.6446 9.90792C11.117 9.73109 11.5461 9.45438 11.9026 9.09655L14.0125 6.97954C14.653 6.31409 15.0075 5.42282 14.9995 4.49769C14.9915 3.57257 14.6216 2.68762 13.9696 2.03343C13.3176 1.37925 12.4357 1.00817 11.5136 1.00013C10.5916 0.992094 9.70331 1.34773 9.04009 1.99045L7.8304 3.19715" stroke="white" stroke-width="2" stroke-linecap="round" stroke-linejoin="round"/>
<path d="M9.4 7.28457C9.09796 6.87943 8.71262 6.5442 8.2701 6.30162C7.82758 6.05904 7.33825 5.91479 6.83528 5.87864C6.33232 5.8425 5.82749 5.91531 5.35503 6.09215C4.88258 6.26898 4.45355 6.54569 4.09706 6.90351L1.98713 9.02052C1.34657 9.68598 0.992121 10.5772 1.00013 11.5024C1.00815 12.4275 1.37798 13.3124 2.02997 13.9666C2.68197 14.6208 3.56396 14.9919 4.48598 14.9999C5.40801 15.008 6.29629 14.6523 6.95952 14.0096L8.16218 12.8029" stroke="white" stroke-width="2" stroke-linecap="round" stroke-linejoin="round"/>
</svg>
