<svg width="12" height="12" viewBox="0 0 12 12" fill="none" xmlns="http://www.w3.org/2000/svg">
<path d="M10.9799 8.48692V9.99232C10.9804 10.1321 10.9518 10.2704 10.8958 10.3985C10.8398 10.5265 10.7577 10.6414 10.6548 10.7359C10.5518 10.8304 10.4302 10.9023 10.2978 10.9471C10.1654 10.9919 10.0251 11.0085 9.88595 10.9959C8.34183 10.8281 6.85859 10.3005 5.55541 9.4554C4.34297 8.68496 3.31504 7.65703 2.5446 6.44459C1.69655 5.13549 1.16879 3.64504 1.00407 2.09397C0.991533 1.95521 1.00802 1.81536 1.0525 1.68331C1.09697 1.55127 1.16845 1.42994 1.26238 1.32703C1.35632 1.22413 1.47065 1.14191 1.5981 1.08562C1.72555 1.02932 1.86333 1.00018 2.00266 1.00005H3.50806C3.75159 0.997652 3.98768 1.08389 4.17233 1.24269C4.35697 1.40148 4.47758 1.622 4.51166 1.86315C4.5752 2.34491 4.69304 2.81794 4.86292 3.27321C4.93044 3.45281 4.94505 3.64801 4.90503 3.83567C4.86501 4.02332 4.77203 4.19557 4.63711 4.33201L3.99983 4.96929C4.71417 6.22558 5.75435 7.26576 7.01063 7.9801L7.64792 7.34281C7.78435 7.2079 7.95661 7.11492 8.14426 7.0749C8.33192 7.03488 8.52711 7.04949 8.70672 7.117C9.16199 7.28689 9.63502 7.40472 10.1168 7.46826C10.3605 7.50265 10.5832 7.62543 10.7423 7.81325C10.9014 8.00107 10.986 8.24083 10.9799 8.48692Z" stroke="#2667FF" stroke-width="1.4" stroke-linecap="round" stroke-linejoin="round"/>
</svg>
