<svg width="13" height="14" viewBox="0 0 13 14" fill="none" xmlns="http://www.w3.org/2000/svg">
<path d="M10.0002 4.6C10.9943 4.6 11.8002 3.79411 11.8002 2.8C11.8002 1.80589 10.9943 1 10.0002 1C9.00608 1 8.2002 1.80589 8.2002 2.8C8.2002 3.79411 9.00608 4.6 10.0002 4.6Z" stroke="#ED7F09" stroke-width="1.5" stroke-linecap="round" stroke-linejoin="round"/>
<path d="M2.8 8.8C3.79411 8.8 4.6 7.99411 4.6 7C4.6 6.00588 3.79411 5.2 2.8 5.2C1.80589 5.2 1 6.00588 1 7C1 7.99411 1.80589 8.8 2.8 8.8Z" stroke="#ED7F09" stroke-width="1.5" stroke-linecap="round" stroke-linejoin="round"/>
<path d="M10.0002 13C10.9943 13 11.8002 12.1941 11.8002 11.2C11.8002 10.2059 10.9943 9.39999 10.0002 9.39999C9.00608 9.39999 8.2002 10.2059 8.2002 11.2C8.2002 12.1941 9.00608 13 10.0002 13Z" stroke="#ED7F09" stroke-width="1.5" stroke-linecap="round" stroke-linejoin="round"/>
<path d="M4.35352 7.90601L8.45152 10.294" stroke="#ED7F09" stroke-width="1.5" stroke-linecap="round" stroke-linejoin="round"/>
<path d="M8.44552 3.70601L4.35352 6.09401" stroke="#ED7F09" stroke-width="1.5" stroke-linecap="round" stroke-linejoin="round"/>
</svg>
