<svg width="12" height="12" viewBox="0 0 12 12" fill="none" xmlns="http://www.w3.org/2000/svg">
<path d="M6.00586 1C3.25286 1 1.01174 3.23919 1.01074 5.99219C1.01024 6.87219 1.24073 7.73128 1.67773 8.48828L1 11L3.61621 10.3818C4.34571 10.7798 5.16693 10.9888 6.00293 10.9893H6.00488C8.75738 10.9893 10.9975 8.74957 10.999 5.99707C11 4.66257 10.4811 3.40787 9.53809 2.46387C8.59509 1.52037 7.34186 1.0005 6.00586 1ZM6.00488 2C7.07288 2.0005 8.07655 2.4169 8.83105 3.1709C9.58555 3.9259 10 4.92909 9.99902 5.99609C9.99802 8.19809 8.20691 9.98926 6.00391 9.98926C5.33741 9.98876 4.6772 9.82141 4.0957 9.50391L3.75879 9.32031L3.38672 9.4082L2.40234 9.64062L2.64258 8.74805L2.75098 8.34766L2.54395 7.98828C2.19495 7.38428 2.01024 6.69369 2.01074 5.99219C2.01174 3.79119 3.80338 2 6.00488 2ZM4.23828 3.6875C4.15478 3.6875 4.01977 3.71875 3.90527 3.84375C3.79077 3.96825 3.46777 4.26979 3.46777 4.88379C3.46777 5.49779 3.91504 6.0913 3.97754 6.1748C4.03954 6.2578 4.84088 7.55762 6.10938 8.05762C7.16337 8.47312 7.37745 8.39112 7.60645 8.37012C7.83545 8.34962 8.34522 8.06884 8.44922 7.77734C8.55322 7.48584 8.55346 7.23509 8.52246 7.18359C8.49146 7.13159 8.4082 7.10059 8.2832 7.03809C8.1587 6.97559 7.54516 6.67431 7.43066 6.63281C7.31616 6.59131 7.23241 6.57031 7.14941 6.69531C7.06641 6.82031 6.82788 7.10059 6.75488 7.18359C6.68188 7.26709 6.60938 7.27832 6.48438 7.21582C6.35938 7.15282 5.95747 7.0207 5.48047 6.5957C5.10947 6.2652 4.85913 5.85742 4.78613 5.73242C4.71363 5.60792 4.7793 5.53954 4.8418 5.47754C4.8978 5.42154 4.96582 5.33179 5.02832 5.25879C5.09032 5.18579 5.11182 5.13378 5.15332 5.05078C5.19482 4.96778 5.17358 4.89453 5.14258 4.83203C5.11158 4.76953 4.86881 4.15325 4.75781 3.90625C4.66431 3.69875 4.56556 3.69393 4.47656 3.69043C4.40406 3.68743 4.32128 3.6875 4.23828 3.6875Z" fill="#09BD2D" stroke="#09BD2D" stroke-width="0.2"/>
</svg>
