<svg width="70" height="60" viewBox="0 0 70 60" fill="none" xmlns="http://www.w3.org/2000/svg">
<path d="M28.3242 46.27L27.4442 43.865C27.4009 43.7583 27.3559 43.6317 27.3092 43.485C27.2626 43.3383 27.2159 43.18 27.1692 43.01C27.1259 43.18 27.0809 43.34 27.0342 43.49C26.9876 43.6367 26.9426 43.765 26.8992 43.875L26.0242 46.27H28.3242ZM30.6992 49H29.6592C29.5426 49 29.4476 48.9717 29.3742 48.915C29.3009 48.855 29.2459 48.7817 29.2092 48.695L28.6692 47.22H25.6742L25.1342 48.695C25.1076 48.7717 25.0559 48.8417 24.9792 48.905C24.9026 48.9683 24.8076 49 24.6942 49H23.6442L26.4892 41.77H27.8592L30.6992 49ZM32.4928 41.57V49H31.2578V41.57H32.4928ZM37.0283 45.845C37.0283 45.685 37.0049 45.535 36.9583 45.395C36.9149 45.2517 36.8483 45.1267 36.7583 45.02C36.6683 44.9133 36.5533 44.83 36.4133 44.77C36.2766 44.7067 36.1166 44.675 35.9333 44.675C35.5766 44.675 35.2949 44.7767 35.0883 44.98C34.8849 45.1833 34.7549 45.4717 34.6983 45.845H37.0283ZM34.6733 46.59C34.6933 46.8533 34.7399 47.0817 34.8133 47.275C34.8866 47.465 34.9833 47.6233 35.1033 47.75C35.2233 47.8733 35.3649 47.9667 35.5283 48.03C35.6949 48.09 35.8783 48.12 36.0783 48.12C36.2783 48.12 36.4499 48.0967 36.5933 48.05C36.7399 48.0033 36.8666 47.9517 36.9733 47.895C37.0833 47.8383 37.1783 47.7867 37.2583 47.74C37.3416 47.6933 37.4216 47.67 37.4983 47.67C37.6016 47.67 37.6783 47.7083 37.7283 47.785L38.0833 48.235C37.9466 48.395 37.7933 48.53 37.6233 48.64C37.4533 48.7467 37.2749 48.8333 37.0883 48.9C36.9049 48.9633 36.7166 49.0083 36.5233 49.035C36.3333 49.0617 36.1483 49.075 35.9683 49.075C35.6116 49.075 35.2799 49.0167 34.9733 48.9C34.6666 48.78 34.3999 48.605 34.1733 48.375C33.9466 48.1417 33.7683 47.855 33.6383 47.515C33.5083 47.1717 33.4433 46.775 33.4433 46.325C33.4433 45.975 33.4999 45.6467 33.6133 45.34C33.7266 45.03 33.8883 44.7617 34.0983 44.535C34.3116 44.305 34.5699 44.1233 34.8733 43.99C35.1799 43.8567 35.5249 43.79 35.9083 43.79C36.2316 43.79 36.5299 43.8417 36.8033 43.945C37.0766 44.0483 37.3116 44.2 37.5083 44.4C37.7049 44.5967 37.8583 44.84 37.9683 45.13C38.0816 45.4167 38.1383 45.745 38.1383 46.115C38.1383 46.3017 38.1183 46.4283 38.0783 46.495C38.0383 46.5583 37.9616 46.59 37.8483 46.59H34.6733ZM40.2301 44.76C40.3901 44.4533 40.5801 44.2133 40.8001 44.04C41.0201 43.8633 41.2801 43.775 41.5801 43.775C41.8167 43.775 42.0067 43.8267 42.1501 43.93L42.0701 44.855C42.0534 44.915 42.0284 44.9583 41.9951 44.985C41.9651 45.0083 41.9234 45.02 41.8701 45.02C41.8201 45.02 41.7451 45.0117 41.6451 44.995C41.5484 44.9783 41.4534 44.97 41.3601 44.97C41.2234 44.97 41.1017 44.99 40.9951 45.03C40.8884 45.07 40.7917 45.1283 40.7051 45.205C40.6217 45.2783 40.5467 45.3683 40.4801 45.475C40.4167 45.5817 40.3567 45.7033 40.3001 45.84V49H39.0651V43.87H39.7901C39.9167 43.87 40.0051 43.8933 40.0551 43.94C40.1051 43.9833 40.1384 44.0633 40.1551 44.18L40.2301 44.76ZM44.5055 49.08C44.0589 49.08 43.7155 48.955 43.4755 48.705C43.2389 48.4517 43.1205 48.1033 43.1205 47.66V44.795H42.5955C42.5289 44.795 42.4722 44.7733 42.4255 44.73C42.3789 44.6867 42.3555 44.6217 42.3555 44.535V44.045L43.1805 43.91L43.4405 42.51C43.4572 42.4433 43.4889 42.3917 43.5355 42.355C43.5822 42.3183 43.6422 42.3 43.7155 42.3H44.3555V43.915H45.7255V44.795H44.3555V47.575C44.3555 47.735 44.3939 47.86 44.4705 47.95C44.5505 48.04 44.6589 48.085 44.7955 48.085C44.8722 48.085 44.9355 48.0767 44.9855 48.06C45.0389 48.04 45.0839 48.02 45.1205 48C45.1605 47.98 45.1955 47.9617 45.2255 47.945C45.2555 47.925 45.2855 47.915 45.3155 47.915C45.3522 47.915 45.3822 47.925 45.4055 47.945C45.4289 47.9617 45.4539 47.9883 45.4805 48.025L45.8505 48.625C45.6705 48.775 45.4639 48.8883 45.2305 48.965C44.9972 49.0417 44.7555 49.08 44.5055 49.08ZM49.6463 44.87C49.6129 44.9233 49.5779 44.9617 49.5413 44.985C49.5046 45.005 49.4579 45.015 49.4013 45.015C49.3413 45.015 49.2763 44.9983 49.2063 44.965C49.1396 44.9317 49.0613 44.895 48.9713 44.855C48.8813 44.8117 48.7779 44.7733 48.6612 44.74C48.5479 44.7067 48.4129 44.69 48.2563 44.69C48.0129 44.69 47.8213 44.7417 47.6813 44.845C47.5446 44.9483 47.4763 45.0833 47.4763 45.25C47.4763 45.36 47.5113 45.4533 47.5813 45.53C47.6546 45.6033 47.7496 45.6683 47.8663 45.725C47.9863 45.7817 48.1213 45.8333 48.2713 45.88C48.4213 45.9233 48.5729 45.9717 48.7263 46.025C48.8829 46.0783 49.0363 46.14 49.1863 46.21C49.3363 46.2767 49.4696 46.3633 49.5863 46.47C49.7063 46.5733 49.8013 46.6983 49.8713 46.845C49.9446 46.9917 49.9813 47.1683 49.9813 47.375C49.9813 47.6217 49.9363 47.85 49.8463 48.06C49.7596 48.2667 49.6296 48.4467 49.4563 48.6C49.2829 48.75 49.0679 48.8683 48.8113 48.955C48.5579 49.0383 48.2646 49.08 47.9313 49.08C47.7546 49.08 47.5813 49.0633 47.4113 49.03C47.2446 49 47.0829 48.9567 46.9263 48.9C46.7729 48.8433 46.6296 48.7767 46.4963 48.7C46.3663 48.6233 46.2513 48.54 46.1513 48.45L46.4363 47.98C46.4729 47.9233 46.5163 47.88 46.5662 47.85C46.6162 47.82 46.6796 47.805 46.7563 47.805C46.8329 47.805 46.9046 47.8267 46.9713 47.87C47.0413 47.9133 47.1213 47.96 47.2113 48.01C47.3013 48.06 47.4063 48.1067 47.5263 48.15C47.6496 48.1933 47.8046 48.215 47.9913 48.215C48.1379 48.215 48.2629 48.1983 48.3663 48.165C48.4729 48.1283 48.5596 48.0817 48.6263 48.025C48.6963 47.9683 48.7462 47.9033 48.7763 47.83C48.8096 47.7533 48.8263 47.675 48.8263 47.595C48.8263 47.475 48.7896 47.3767 48.7163 47.3C48.6463 47.2233 48.5513 47.1567 48.4312 47.1C48.3146 47.0433 48.1796 46.9933 48.0263 46.95C47.8763 46.9033 47.7213 46.8533 47.5613 46.8C47.4046 46.7467 47.2496 46.685 47.0963 46.615C46.9463 46.5417 46.8113 46.45 46.6913 46.34C46.5746 46.23 46.4796 46.095 46.4063 45.935C46.3363 45.775 46.3013 45.5817 46.3013 45.355C46.3013 45.145 46.3429 44.945 46.4263 44.755C46.5096 44.565 46.6313 44.4 46.7913 44.26C46.9546 44.1167 47.1563 44.0033 47.3963 43.92C47.6396 43.8333 47.9196 43.79 48.2363 43.79C48.5896 43.79 48.9113 43.8483 49.2013 43.965C49.4913 44.0817 49.7329 44.235 49.9263 44.425L49.6463 44.87Z" fill="#223647"/>
<path d="M43.25 19C43.25 17.2098 42.5388 15.4929 41.273 14.227C40.0071 12.9612 38.2902 12.25 36.5 12.25C34.7098 12.25 32.9929 12.9612 31.727 14.227C30.4612 15.4929 29.75 17.2098 29.75 19C29.75 26.875 26.375 29.125 26.375 29.125H46.625C46.625 29.125 43.25 26.875 43.25 19Z" stroke="#081049" stroke-width="2" stroke-linecap="round" stroke-linejoin="round"/>
<path d="M38.4462 33.625C38.2484 33.966 37.9645 34.249 37.623 34.4457C37.2814 34.6425 36.8941 34.746 36.5 34.746C36.1058 34.746 35.7185 34.6425 35.377 34.4457C35.0354 34.249 34.7515 33.966 34.5537 33.625" stroke="#081049" stroke-width="2" stroke-linecap="round" stroke-linejoin="round"/>
</svg>
