<svg width="70" height="60" viewBox="0 0 70 60" fill="none" xmlns="http://www.w3.org/2000/svg">
<path d="M10.2305 46.27L9.35047 43.865C9.30714 43.7583 9.26214 43.6317 9.21547 43.485C9.1688 43.3383 9.12214 43.18 9.07547 43.01C9.03214 43.18 8.98714 43.34 8.94047 43.49C8.8938 43.6367 8.8488 43.765 8.80547 43.875L7.93047 46.27H10.2305ZM12.6055 49H11.5655C11.4488 49 11.3538 48.9717 11.2805 48.915C11.2071 48.855 11.1521 48.7817 11.1155 48.695L10.5755 47.22H7.58047L7.04047 48.695C7.0138 48.7717 6.96214 48.8417 6.88547 48.905C6.8088 48.9683 6.7138 49 6.60047 49H5.55047L8.39547 41.77H9.76547L12.6055 49ZM14.3041 44.5C14.4074 44.3967 14.5157 44.3017 14.6291 44.215C14.7457 44.125 14.8674 44.05 14.9941 43.99C15.1241 43.9267 15.2624 43.8783 15.4091 43.845C15.5557 43.8083 15.7157 43.79 15.8891 43.79C16.1691 43.79 16.4174 43.8383 16.6341 43.935C16.8507 44.0283 17.0307 44.1617 17.1741 44.335C17.3207 44.505 17.4307 44.71 17.5041 44.95C17.5807 45.1867 17.6191 45.4483 17.6191 45.735V49H16.3841V45.735C16.3841 45.4217 16.3124 45.18 16.1691 45.01C16.0257 44.8367 15.8074 44.75 15.5141 44.75C15.3007 44.75 15.1007 44.7983 14.9141 44.895C14.7274 44.9917 14.5507 45.1233 14.3841 45.29V49H13.1491V43.87H13.9041C14.0641 43.87 14.1691 43.945 14.2191 44.095L14.3041 44.5ZM22.4686 44.955C22.4319 45.0017 22.3953 45.0383 22.3586 45.065C22.3253 45.0917 22.2753 45.105 22.2086 45.105C22.1453 45.105 22.0836 45.0867 22.0236 45.05C21.9636 45.01 21.8919 44.9667 21.8086 44.92C21.7253 44.87 21.6253 44.8267 21.5086 44.79C21.3953 44.75 21.2536 44.73 21.0836 44.73C20.8669 44.73 20.6769 44.77 20.5136 44.85C20.3503 44.9267 20.2136 45.0383 20.1036 45.185C19.9969 45.3317 19.9169 45.51 19.8636 45.72C19.8103 45.9267 19.7836 46.1617 19.7836 46.425C19.7836 46.6983 19.8119 46.9417 19.8686 47.155C19.9286 47.3683 20.0136 47.5483 20.1236 47.695C20.2336 47.8383 20.3669 47.9483 20.5236 48.025C20.6803 48.0983 20.8569 48.135 21.0536 48.135C21.2503 48.135 21.4086 48.1117 21.5286 48.065C21.6519 48.015 21.7553 47.9617 21.8386 47.905C21.9219 47.845 21.9936 47.7917 22.0536 47.745C22.1169 47.695 22.1869 47.67 22.2636 47.67C22.3636 47.67 22.4386 47.7083 22.4886 47.785L22.8436 48.235C22.7069 48.395 22.5586 48.53 22.3986 48.64C22.2386 48.7467 22.0719 48.8333 21.8986 48.9C21.7286 48.9633 21.5519 49.0083 21.3686 49.035C21.1886 49.0617 21.0086 49.075 20.8286 49.075C20.5119 49.075 20.2136 49.0167 19.9336 48.9C19.6536 48.78 19.4086 48.6067 19.1986 48.38C18.9886 48.1533 18.8219 47.8767 18.6986 47.55C18.5786 47.22 18.5186 46.845 18.5186 46.425C18.5186 46.0483 18.5719 45.7 18.6786 45.38C18.7886 45.0567 18.9486 44.7783 19.1586 44.545C19.3686 44.3083 19.6286 44.1233 19.9386 43.99C20.2486 43.8567 20.6053 43.79 21.0086 43.79C21.3919 43.79 21.7269 43.8517 22.0136 43.975C22.3036 44.0983 22.5636 44.275 22.7936 44.505L22.4686 44.955ZM24.8978 43.87V49H23.6578V43.87H24.8978ZM25.0678 42.375C25.0678 42.4817 25.0461 42.5817 25.0028 42.675C24.9595 42.7683 24.9011 42.85 24.8278 42.92C24.7578 42.99 24.6745 43.0467 24.5778 43.09C24.4811 43.13 24.3778 43.15 24.2678 43.15C24.1611 43.15 24.0595 43.13 23.9628 43.09C23.8695 43.0467 23.7878 42.99 23.7178 42.92C23.6478 42.85 23.5911 42.7683 23.5478 42.675C23.5078 42.5817 23.4878 42.4817 23.4878 42.375C23.4878 42.265 23.5078 42.1617 23.5478 42.065C23.5911 41.9683 23.6478 41.885 23.7178 41.815C23.7878 41.745 23.8695 41.69 23.9628 41.65C24.0595 41.6067 24.1611 41.585 24.2678 41.585C24.3778 41.585 24.4811 41.6067 24.5778 41.65C24.6745 41.69 24.7578 41.745 24.8278 41.815C24.9011 41.885 24.9595 41.9683 25.0028 42.065C25.0461 42.1617 25.0678 42.265 25.0678 42.375ZM27.4069 41.57V49H26.1719V41.57H27.4069ZM29.8873 41.57V49H28.6523V41.57H29.8873ZM33.8278 46.81C33.4711 46.8267 33.1711 46.8583 32.9278 46.905C32.6845 46.9483 32.4895 47.005 32.3428 47.075C32.1961 47.145 32.0911 47.2267 32.0278 47.32C31.9645 47.4133 31.9328 47.515 31.9328 47.625C31.9328 47.8417 31.9961 47.9967 32.1228 48.09C32.2528 48.1833 32.4211 48.23 32.6278 48.23C32.8811 48.23 33.0995 48.185 33.2828 48.095C33.4695 48.0017 33.6511 47.8617 33.8278 47.675V46.81ZM30.9978 44.585C31.5878 44.045 32.2978 43.775 33.1278 43.775C33.4278 43.775 33.6961 43.825 33.9328 43.925C34.1695 44.0217 34.3695 44.1583 34.5328 44.335C34.6961 44.5083 34.8195 44.7167 34.9028 44.96C34.9895 45.2033 35.0328 45.47 35.0328 45.76V49H34.4728C34.3561 49 34.2661 48.9833 34.2028 48.95C34.1395 48.9133 34.0895 48.8417 34.0528 48.735L33.9428 48.365C33.8128 48.4817 33.6861 48.585 33.5628 48.675C33.4395 48.7617 33.3111 48.835 33.1778 48.895C33.0445 48.955 32.9011 49 32.7478 49.03C32.5978 49.0633 32.4311 49.08 32.2478 49.08C32.0311 49.08 31.8311 49.0517 31.6478 48.995C31.4645 48.935 31.3061 48.8467 31.1728 48.73C31.0395 48.6133 30.9361 48.4683 30.8628 48.295C30.7895 48.1217 30.7528 47.92 30.7528 47.69C30.7528 47.56 30.7745 47.4317 30.8178 47.305C30.8611 47.175 30.9311 47.0517 31.0278 46.935C31.1278 46.8183 31.2561 46.7083 31.4128 46.605C31.5695 46.5017 31.7611 46.4117 31.9878 46.335C32.2178 46.2583 32.4845 46.1967 32.7878 46.15C33.0911 46.1 33.4378 46.07 33.8278 46.06V45.76C33.8278 45.4167 33.7545 45.1633 33.6078 45C33.4611 44.8333 33.2495 44.75 32.9728 44.75C32.7728 44.75 32.6061 44.7733 32.4728 44.82C32.3428 44.8667 32.2278 44.92 32.1278 44.98C32.0278 45.0367 31.9361 45.0883 31.8528 45.135C31.7728 45.1817 31.6828 45.205 31.5828 45.205C31.4961 45.205 31.4228 45.1833 31.3628 45.14C31.3028 45.0933 31.2545 45.04 31.2178 44.98L30.9978 44.585ZM37.3609 44.76C37.5209 44.4533 37.7109 44.2133 37.9309 44.04C38.1509 43.8633 38.4109 43.775 38.7109 43.775C38.9476 43.775 39.1376 43.8267 39.2809 43.93L39.2009 44.855C39.1843 44.915 39.1593 44.9583 39.1259 44.985C39.0959 45.0083 39.0543 45.02 39.0009 45.02C38.9509 45.02 38.8759 45.0117 38.7759 44.995C38.6793 44.9783 38.5843 44.97 38.4909 44.97C38.3543 44.97 38.2326 44.99 38.1259 45.03C38.0193 45.07 37.9226 45.1283 37.8359 45.205C37.7526 45.2783 37.6776 45.3683 37.6109 45.475C37.5476 45.5817 37.4876 45.7033 37.4309 45.84V49H36.1959V43.87H36.9209C37.0476 43.87 37.1359 43.8933 37.1859 43.94C37.2359 43.9833 37.2693 44.0633 37.2859 44.18L37.3609 44.76ZM44.5864 43.87L41.7914 50.41C41.7547 50.4967 41.7064 50.5617 41.6464 50.605C41.5897 50.6517 41.5014 50.675 41.3814 50.675H40.4614L41.4214 48.615L39.3464 43.87H40.4314C40.5281 43.87 40.6031 43.8933 40.6564 43.94C40.7131 43.9867 40.7547 44.04 40.7814 44.1L41.8714 46.76C41.9081 46.85 41.9381 46.94 41.9614 47.03C41.9881 47.12 42.0131 47.2117 42.0364 47.305C42.0664 47.2117 42.0964 47.12 42.1264 47.03C42.1564 46.9367 42.1897 46.845 42.2264 46.755L43.2564 44.1C43.2831 44.0333 43.3264 43.9783 43.3864 43.935C43.4497 43.8917 43.5197 43.87 43.5964 43.87H44.5864ZM53.9926 45.385C53.9926 45.915 53.9042 46.4017 53.7276 46.845C53.5509 47.2883 53.3026 47.67 52.9826 47.99C52.6626 48.31 52.2776 48.5583 51.8276 48.735C51.3776 48.9117 50.8776 49 50.3276 49H47.5726V41.77H50.3276C50.8776 41.77 51.3776 41.86 51.8276 42.04C52.2776 42.2167 52.6626 42.465 52.9826 42.785C53.3026 43.1017 53.5509 43.4817 53.7276 43.925C53.9042 44.3683 53.9926 44.855 53.9926 45.385ZM52.6126 45.385C52.6126 44.9883 52.5592 44.6333 52.4526 44.32C52.3492 44.0033 52.1976 43.7367 51.9976 43.52C51.8009 43.3 51.5609 43.1317 51.2776 43.015C50.9976 42.8983 50.6809 42.84 50.3276 42.84H48.9226V47.93H50.3276C50.6809 47.93 50.9976 47.8717 51.2776 47.755C51.5609 47.6383 51.8009 47.4717 51.9976 47.255C52.1976 47.035 52.3492 46.7683 52.4526 46.455C52.5592 46.1383 52.6126 45.7817 52.6126 45.385ZM58.2216 45.845C58.2216 45.685 58.1983 45.535 58.1516 45.395C58.1083 45.2517 58.0416 45.1267 57.9516 45.02C57.8616 44.9133 57.7466 44.83 57.6066 44.77C57.47 44.7067 57.31 44.675 57.1266 44.675C56.77 44.675 56.4883 44.7767 56.2816 44.98C56.0783 45.1833 55.9483 45.4717 55.8916 45.845H58.2216ZM55.8666 46.59C55.8866 46.8533 55.9333 47.0817 56.0066 47.275C56.08 47.465 56.1766 47.6233 56.2966 47.75C56.4166 47.8733 56.5583 47.9667 56.7216 48.03C56.8883 48.09 57.0716 48.12 57.2716 48.12C57.4716 48.12 57.6433 48.0967 57.7866 48.05C57.9333 48.0033 58.06 47.9517 58.1666 47.895C58.2766 47.8383 58.3716 47.7867 58.4516 47.74C58.535 47.6933 58.615 47.67 58.6916 47.67C58.795 47.67 58.8716 47.7083 58.9216 47.785L59.2766 48.235C59.14 48.395 58.9866 48.53 58.8166 48.64C58.6466 48.7467 58.4683 48.8333 58.2816 48.9C58.0983 48.9633 57.91 49.0083 57.7166 49.035C57.5266 49.0617 57.3416 49.075 57.1616 49.075C56.805 49.075 56.4733 49.0167 56.1666 48.9C55.86 48.78 55.5933 48.605 55.3666 48.375C55.14 48.1417 54.9616 47.855 54.8316 47.515C54.7016 47.1717 54.6366 46.775 54.6366 46.325C54.6366 45.975 54.6933 45.6467 54.8066 45.34C54.92 45.03 55.0816 44.7617 55.2916 44.535C55.505 44.305 55.7633 44.1233 56.0666 43.99C56.3733 43.8567 56.7183 43.79 57.1016 43.79C57.425 43.79 57.7233 43.8417 57.9966 43.945C58.27 44.0483 58.505 44.2 58.7016 44.4C58.8983 44.5967 59.0516 44.84 59.1616 45.13C59.275 45.4167 59.3316 45.745 59.3316 46.115C59.3316 46.3017 59.3116 46.4283 59.2716 46.495C59.2316 46.5583 59.155 46.59 59.0416 46.59H55.8666ZM60.0784 48.32C60.0784 48.2167 60.0968 48.1183 60.1334 48.025C60.1734 47.9317 60.2268 47.8517 60.2934 47.785C60.3601 47.7183 60.4401 47.665 60.5334 47.625C60.6268 47.585 60.7268 47.565 60.8334 47.565C60.9401 47.565 61.0384 47.585 61.1284 47.625C61.2218 47.665 61.3018 47.7183 61.3684 47.785C61.4384 47.8517 61.4934 47.9317 61.5334 48.025C61.5734 48.1183 61.5934 48.2167 61.5934 48.32C61.5934 48.4267 61.5734 48.5267 61.5334 48.62C61.4934 48.71 61.4384 48.7883 61.3684 48.855C61.3018 48.9217 61.2218 48.9733 61.1284 49.01C61.0384 49.05 60.9401 49.07 60.8334 49.07C60.7268 49.07 60.6268 49.05 60.5334 49.01C60.4401 48.9733 60.3601 48.9217 60.2934 48.855C60.2268 48.7883 60.1734 48.71 60.1334 48.62C60.0968 48.5267 60.0784 48.4267 60.0784 48.32ZM62.4515 48.32C62.4515 48.2167 62.4698 48.1183 62.5065 48.025C62.5465 47.9317 62.5998 47.8517 62.6665 47.785C62.7332 47.7183 62.8132 47.665 62.9065 47.625C62.9998 47.585 63.0998 47.565 63.2065 47.565C63.3132 47.565 63.4115 47.585 63.5015 47.625C63.5948 47.665 63.6748 47.7183 63.7415 47.785C63.8115 47.8517 63.8665 47.9317 63.9065 48.025C63.9465 48.1183 63.9665 48.2167 63.9665 48.32C63.9665 48.4267 63.9465 48.5267 63.9065 48.62C63.8665 48.71 63.8115 48.7883 63.7415 48.855C63.6748 48.9217 63.5948 48.9733 63.5015 49.01C63.4115 49.05 63.3132 49.07 63.2065 49.07C63.0998 49.07 62.9998 49.05 62.9065 49.01C62.8132 48.9733 62.7332 48.9217 62.6665 48.855C62.5998 48.7883 62.5465 48.71 62.5065 48.62C62.4698 48.5267 62.4515 48.4267 62.4515 48.32Z" fill="#223647"/>
<path d="M40 12.5H42.5C43.163 12.5 43.7989 12.7634 44.2678 13.2322C44.7366 13.7011 45 14.337 45 15V32.5C45 33.163 44.7366 33.7989 44.2678 34.2678C43.7989 34.7366 43.163 35 42.5 35H27.5C26.837 35 26.2011 34.7366 25.7322 34.2678C25.2634 33.7989 25 33.163 25 32.5V15C25 14.337 25.2634 13.7011 25.7322 13.2322C26.2011 12.7634 26.837 12.5 27.5 12.5H30" stroke="#808E99" stroke-width="2.5" stroke-linecap="round" stroke-linejoin="round"/>
<path d="M38.75 10H31.25C30.5596 10 30 10.5596 30 11.25V13.75C30 14.4404 30.5596 15 31.25 15H38.75C39.4404 15 40 14.4404 40 13.75V11.25C40 10.5596 39.4404 10 38.75 10Z" stroke="#808E99" stroke-width="2.5" stroke-linecap="round" stroke-linejoin="round"/>
</svg>
