<svg width="70" height="60" viewBox="0 0 70 60" fill="none" xmlns="http://www.w3.org/2000/svg">
<path d="M27.8598 47.295C27.9332 47.295 27.9982 47.3233 28.0548 47.38L28.5848 47.955C28.2915 48.3183 27.9298 48.5967 27.4998 48.79C27.0732 48.9833 26.5598 49.08 25.9598 49.08C25.4232 49.08 24.9398 48.9883 24.5098 48.805C24.0832 48.6217 23.7182 48.3667 23.4148 48.04C23.1115 47.7133 22.8782 47.3233 22.7148 46.87C22.5548 46.4167 22.4748 45.9217 22.4748 45.385C22.4748 44.8417 22.5615 44.345 22.7348 43.895C22.9082 43.4417 23.1515 43.0517 23.4648 42.725C23.7815 42.3983 24.1582 42.145 24.5948 41.965C25.0315 41.7817 25.5148 41.69 26.0448 41.69C26.5715 41.69 27.0382 41.7767 27.4448 41.95C27.8548 42.1233 28.2032 42.35 28.4898 42.63L28.0398 43.255C28.0132 43.295 27.9782 43.33 27.9348 43.36C27.8948 43.39 27.8382 43.405 27.7648 43.405C27.7148 43.405 27.6632 43.3917 27.6098 43.365C27.5565 43.335 27.4982 43.3 27.4348 43.26C27.3715 43.2167 27.2982 43.17 27.2148 43.12C27.1315 43.07 27.0348 43.025 26.9248 42.985C26.8148 42.9417 26.6865 42.9067 26.5398 42.88C26.3965 42.85 26.2298 42.835 26.0398 42.835C25.7165 42.835 25.4198 42.8933 25.1498 43.01C24.8832 43.1233 24.6532 43.29 24.4598 43.51C24.2665 43.7267 24.1165 43.9933 24.0098 44.31C23.9032 44.6233 23.8498 44.9817 23.8498 45.385C23.8498 45.7917 23.9065 46.1533 24.0198 46.47C24.1365 46.7867 24.2932 47.0533 24.4898 47.27C24.6865 47.4867 24.9182 47.6533 25.1848 47.77C25.4515 47.8833 25.7382 47.94 26.0448 47.94C26.2282 47.94 26.3932 47.93 26.5398 47.91C26.6898 47.89 26.8265 47.8583 26.9498 47.815C27.0765 47.7717 27.1948 47.7167 27.3048 47.65C27.4182 47.58 27.5298 47.495 27.6398 47.395C27.6732 47.365 27.7082 47.3417 27.7448 47.325C27.7815 47.305 27.8198 47.295 27.8598 47.295ZM32.0212 46.81C31.6645 46.8267 31.3645 46.8583 31.1212 46.905C30.8778 46.9483 30.6828 47.005 30.5362 47.075C30.3895 47.145 30.2845 47.2267 30.2212 47.32C30.1578 47.4133 30.1262 47.515 30.1262 47.625C30.1262 47.8417 30.1895 47.9967 30.3162 48.09C30.4462 48.1833 30.6145 48.23 30.8212 48.23C31.0745 48.23 31.2928 48.185 31.4762 48.095C31.6628 48.0017 31.8445 47.8617 32.0212 47.675V46.81ZM29.1912 44.585C29.7812 44.045 30.4912 43.775 31.3212 43.775C31.6212 43.775 31.8895 43.825 32.1262 43.925C32.3628 44.0217 32.5628 44.1583 32.7262 44.335C32.8895 44.5083 33.0128 44.7167 33.0962 44.96C33.1828 45.2033 33.2262 45.47 33.2262 45.76V49H32.6662C32.5495 49 32.4595 48.9833 32.3962 48.95C32.3328 48.9133 32.2828 48.8417 32.2462 48.735L32.1362 48.365C32.0062 48.4817 31.8795 48.585 31.7562 48.675C31.6328 48.7617 31.5045 48.835 31.3712 48.895C31.2378 48.955 31.0945 49 30.9412 49.03C30.7912 49.0633 30.6245 49.08 30.4412 49.08C30.2245 49.08 30.0245 49.0517 29.8412 48.995C29.6578 48.935 29.4995 48.8467 29.3662 48.73C29.2328 48.6133 29.1295 48.4683 29.0562 48.295C28.9828 48.1217 28.9462 47.92 28.9462 47.69C28.9462 47.56 28.9678 47.4317 29.0112 47.305C29.0545 47.175 29.1245 47.0517 29.2212 46.935C29.3212 46.8183 29.4495 46.7083 29.6062 46.605C29.7628 46.5017 29.9545 46.4117 30.1812 46.335C30.4112 46.2583 30.6778 46.1967 30.9812 46.15C31.2845 46.1 31.6312 46.07 32.0212 46.06V45.76C32.0212 45.4167 31.9478 45.1633 31.8012 45C31.6545 44.8333 31.4428 44.75 31.1662 44.75C30.9662 44.75 30.7995 44.7733 30.6662 44.82C30.5362 44.8667 30.4212 44.92 30.3212 44.98C30.2212 45.0367 30.1295 45.0883 30.0462 45.135C29.9662 45.1817 29.8762 45.205 29.7762 45.205C29.6895 45.205 29.6162 45.1833 29.5562 45.14C29.4962 45.0933 29.4478 45.04 29.4112 44.98L29.1912 44.585ZM37.5193 44.87C37.486 44.9233 37.451 44.9617 37.4143 44.985C37.3776 45.005 37.331 45.015 37.2743 45.015C37.2143 45.015 37.1493 44.9983 37.0793 44.965C37.0126 44.9317 36.9343 44.895 36.8443 44.855C36.7543 44.8117 36.651 44.7733 36.5343 44.74C36.421 44.7067 36.286 44.69 36.1293 44.69C35.886 44.69 35.6943 44.7417 35.5543 44.845C35.4176 44.9483 35.3493 45.0833 35.3493 45.25C35.3493 45.36 35.3843 45.4533 35.4543 45.53C35.5276 45.6033 35.6226 45.6683 35.7393 45.725C35.8593 45.7817 35.9943 45.8333 36.1443 45.88C36.2943 45.9233 36.446 45.9717 36.5993 46.025C36.756 46.0783 36.9093 46.14 37.0593 46.21C37.2093 46.2767 37.3426 46.3633 37.4593 46.47C37.5793 46.5733 37.6743 46.6983 37.7443 46.845C37.8176 46.9917 37.8543 47.1683 37.8543 47.375C37.8543 47.6217 37.8093 47.85 37.7193 48.06C37.6326 48.2667 37.5026 48.4467 37.3293 48.6C37.156 48.75 36.941 48.8683 36.6843 48.955C36.431 49.0383 36.1376 49.08 35.8043 49.08C35.6276 49.08 35.4543 49.0633 35.2843 49.03C35.1176 49 34.956 48.9567 34.7993 48.9C34.646 48.8433 34.5026 48.7767 34.3693 48.7C34.2393 48.6233 34.1243 48.54 34.0243 48.45L34.3093 47.98C34.346 47.9233 34.3893 47.88 34.4393 47.85C34.4893 47.82 34.5526 47.805 34.6293 47.805C34.706 47.805 34.7776 47.8267 34.8443 47.87C34.9143 47.9133 34.9943 47.96 35.0843 48.01C35.1743 48.06 35.2793 48.1067 35.3993 48.15C35.5226 48.1933 35.6776 48.215 35.8643 48.215C36.011 48.215 36.136 48.1983 36.2393 48.165C36.346 48.1283 36.4326 48.0817 36.4993 48.025C36.5693 47.9683 36.6193 47.9033 36.6493 47.83C36.6826 47.7533 36.6993 47.675 36.6993 47.595C36.6993 47.475 36.6626 47.3767 36.5893 47.3C36.5193 47.2233 36.4243 47.1567 36.3043 47.1C36.1876 47.0433 36.0526 46.9933 35.8993 46.95C35.7493 46.9033 35.5943 46.8533 35.4343 46.8C35.2776 46.7467 35.1226 46.685 34.9693 46.615C34.8193 46.5417 34.6843 46.45 34.5643 46.34C34.4476 46.23 34.3526 46.095 34.2793 45.935C34.2093 45.775 34.1743 45.5817 34.1743 45.355C34.1743 45.145 34.216 44.945 34.2993 44.755C34.3826 44.565 34.5043 44.4 34.6643 44.26C34.8276 44.1167 35.0293 44.0033 35.2693 43.92C35.5126 43.8333 35.7926 43.79 36.1093 43.79C36.4626 43.79 36.7843 43.8483 37.0743 43.965C37.3643 44.0817 37.606 44.235 37.7993 44.425L37.5193 44.87ZM42.0888 45.845C42.0888 45.685 42.0655 45.535 42.0188 45.395C41.9755 45.2517 41.9088 45.1267 41.8188 45.02C41.7288 44.9133 41.6138 44.83 41.4738 44.77C41.3372 44.7067 41.1772 44.675 40.9938 44.675C40.6372 44.675 40.3555 44.7767 40.1488 44.98C39.9455 45.1833 39.8155 45.4717 39.7588 45.845H42.0888ZM39.7338 46.59C39.7538 46.8533 39.8005 47.0817 39.8738 47.275C39.9472 47.465 40.0438 47.6233 40.1638 47.75C40.2838 47.8733 40.4255 47.9667 40.5888 48.03C40.7555 48.09 40.9388 48.12 41.1388 48.12C41.3388 48.12 41.5105 48.0967 41.6538 48.05C41.8005 48.0033 41.9272 47.9517 42.0338 47.895C42.1438 47.8383 42.2388 47.7867 42.3188 47.74C42.4022 47.6933 42.4822 47.67 42.5588 47.67C42.6622 47.67 42.7388 47.7083 42.7888 47.785L43.1438 48.235C43.0072 48.395 42.8538 48.53 42.6838 48.64C42.5138 48.7467 42.3355 48.8333 42.1488 48.9C41.9655 48.9633 41.7772 49.0083 41.5838 49.035C41.3938 49.0617 41.2088 49.075 41.0288 49.075C40.6722 49.075 40.3405 49.0167 40.0338 48.9C39.7272 48.78 39.4605 48.605 39.2338 48.375C39.0072 48.1417 38.8288 47.855 38.6988 47.515C38.5688 47.1717 38.5038 46.775 38.5038 46.325C38.5038 45.975 38.5605 45.6467 38.6738 45.34C38.7872 45.03 38.9488 44.7617 39.1588 44.535C39.3722 44.305 39.6305 44.1233 39.9338 43.99C40.2405 43.8567 40.5855 43.79 40.9688 43.79C41.2922 43.79 41.5905 43.8417 41.8638 43.945C42.1372 44.0483 42.3722 44.2 42.5688 44.4C42.7655 44.5967 42.9188 44.84 43.0288 45.13C43.1422 45.4167 43.1988 45.745 43.1988 46.115C43.1988 46.3017 43.1788 46.4283 43.1388 46.495C43.0988 46.5583 43.0222 46.59 42.9088 46.59H39.7338ZM47.2556 44.87C47.2223 44.9233 47.1873 44.9617 47.1506 44.985C47.114 45.005 47.0673 45.015 47.0106 45.015C46.9506 45.015 46.8856 44.9983 46.8156 44.965C46.749 44.9317 46.6706 44.895 46.5806 44.855C46.4906 44.8117 46.3873 44.7733 46.2706 44.74C46.1573 44.7067 46.0223 44.69 45.8656 44.69C45.6223 44.69 45.4306 44.7417 45.2906 44.845C45.154 44.9483 45.0856 45.0833 45.0856 45.25C45.0856 45.36 45.1206 45.4533 45.1906 45.53C45.264 45.6033 45.359 45.6683 45.4756 45.725C45.5956 45.7817 45.7306 45.8333 45.8806 45.88C46.0306 45.9233 46.1823 45.9717 46.3356 46.025C46.4923 46.0783 46.6456 46.14 46.7956 46.21C46.9456 46.2767 47.079 46.3633 47.1956 46.47C47.3156 46.5733 47.4106 46.6983 47.4806 46.845C47.554 46.9917 47.5906 47.1683 47.5906 47.375C47.5906 47.6217 47.5456 47.85 47.4556 48.06C47.369 48.2667 47.239 48.4467 47.0656 48.6C46.8923 48.75 46.6773 48.8683 46.4206 48.955C46.1673 49.0383 45.874 49.08 45.5406 49.08C45.364 49.08 45.1906 49.0633 45.0206 49.03C44.854 49 44.6923 48.9567 44.5356 48.9C44.3823 48.8433 44.239 48.7767 44.1056 48.7C43.9756 48.6233 43.8606 48.54 43.7606 48.45L44.0456 47.98C44.0823 47.9233 44.1256 47.88 44.1756 47.85C44.2256 47.82 44.289 47.805 44.3656 47.805C44.4423 47.805 44.514 47.8267 44.5806 47.87C44.6506 47.9133 44.7306 47.96 44.8206 48.01C44.9106 48.06 45.0156 48.1067 45.1356 48.15C45.259 48.1933 45.414 48.215 45.6006 48.215C45.7473 48.215 45.8723 48.1983 45.9756 48.165C46.0823 48.1283 46.169 48.0817 46.2356 48.025C46.3056 47.9683 46.3556 47.9033 46.3856 47.83C46.419 47.7533 46.4356 47.675 46.4356 47.595C46.4356 47.475 46.399 47.3767 46.3256 47.3C46.2556 47.2233 46.1606 47.1567 46.0406 47.1C45.924 47.0433 45.789 46.9933 45.6356 46.95C45.4856 46.9033 45.3306 46.8533 45.1706 46.8C45.014 46.7467 44.859 46.685 44.7056 46.615C44.5556 46.5417 44.4206 46.45 44.3006 46.34C44.184 46.23 44.089 46.095 44.0156 45.935C43.9456 45.775 43.9106 45.5817 43.9106 45.355C43.9106 45.145 43.9523 44.945 44.0356 44.755C44.119 44.565 44.2406 44.4 44.4006 44.26C44.564 44.1167 44.7656 44.0033 45.0056 43.92C45.249 43.8333 45.529 43.79 45.8456 43.79C46.199 43.79 46.5206 43.8483 46.8106 43.965C47.1006 44.0817 47.3423 44.235 47.5356 44.425L47.2556 44.87Z" fill="#223647"/>
<path d="M48 32.3333C48 33.0406 47.7261 33.7189 47.2385 34.219C46.7509 34.719 46.0896 35 45.4 35H24.6C23.9104 35 23.2491 34.719 22.7615 34.219C22.2739 33.7189 22 33.0406 22 32.3333V13.6667C22 12.9594 22.2739 12.2811 22.7615 11.781C23.2491 11.281 23.9104 11 24.6 11H31.1L33.7 15H45.4C46.0896 15 46.7509 15.281 47.2385 15.781C47.7261 16.2811 48 16.9594 48 17.6667V32.3333Z" stroke="#808E99" stroke-width="2.5" stroke-linecap="round" stroke-linejoin="round"/>
</svg>
