<svg width="70" height="60" viewBox="0 0 70 60" fill="none" xmlns="http://www.w3.org/2000/svg">
<rect width="70" height="60" rx="5" fill="#F9F9F9"/>
<path d="M21.9663 47.295C22.0396 47.295 22.1046 47.3233 22.1613 47.38L22.6913 47.955C22.398 48.3183 22.0363 48.5967 21.6063 48.79C21.1796 48.9833 20.6663 49.08 20.0663 49.08C19.5296 49.08 19.0463 48.9883 18.6163 48.805C18.1896 48.6217 17.8246 48.3667 17.5213 48.04C17.218 47.7133 16.9846 47.3233 16.8213 46.87C16.6613 46.4167 16.5813 45.9217 16.5813 45.385C16.5813 44.8417 16.668 44.345 16.8413 43.895C17.0146 43.4417 17.258 43.0517 17.5713 42.725C17.888 42.3983 18.2646 42.145 18.7013 41.965C19.138 41.7817 19.6213 41.69 20.1513 41.69C20.678 41.69 21.1446 41.7767 21.5513 41.95C21.9613 42.1233 22.3096 42.35 22.5963 42.63L22.1463 43.255C22.1196 43.295 22.0846 43.33 22.0413 43.36C22.0013 43.39 21.9446 43.405 21.8713 43.405C21.8213 43.405 21.7696 43.3917 21.7163 43.365C21.663 43.335 21.6046 43.3 21.5413 43.26C21.478 43.2167 21.4046 43.17 21.3213 43.12C21.238 43.07 21.1413 43.025 21.0313 42.985C20.9213 42.9417 20.793 42.9067 20.6463 42.88C20.503 42.85 20.3363 42.835 20.1463 42.835C19.823 42.835 19.5263 42.8933 19.2563 43.01C18.9896 43.1233 18.7596 43.29 18.5663 43.51C18.373 43.7267 18.223 43.9933 18.1163 44.31C18.0096 44.6233 17.9563 44.9817 17.9563 45.385C17.9563 45.7917 18.013 46.1533 18.1263 46.47C18.243 46.7867 18.3996 47.0533 18.5963 47.27C18.793 47.4867 19.0246 47.6533 19.2913 47.77C19.558 47.8833 19.8446 47.94 20.1513 47.94C20.3346 47.94 20.4996 47.93 20.6463 47.91C20.7963 47.89 20.933 47.8583 21.0563 47.815C21.183 47.7717 21.3013 47.7167 21.4113 47.65C21.5246 47.58 21.6363 47.495 21.7463 47.395C21.7796 47.365 21.8146 47.3417 21.8513 47.325C21.888 47.305 21.9263 47.295 21.9663 47.295ZM25.5802 43.79C25.9602 43.79 26.3052 43.8517 26.6152 43.975C26.9285 44.0983 27.1952 44.2733 27.4152 44.5C27.6385 44.7267 27.8102 45.0033 27.9302 45.33C28.0502 45.6567 28.1102 46.0217 28.1102 46.425C28.1102 46.8317 28.0502 47.1983 27.9302 47.525C27.8102 47.8517 27.6385 48.13 27.4152 48.36C27.1952 48.59 26.9285 48.7667 26.6152 48.89C26.3052 49.0133 25.9602 49.075 25.5802 49.075C25.1969 49.075 24.8485 49.0133 24.5352 48.89C24.2219 48.7667 23.9535 48.59 23.7302 48.36C23.5102 48.13 23.3385 47.8517 23.2152 47.525C23.0952 47.1983 23.0352 46.8317 23.0352 46.425C23.0352 46.0217 23.0952 45.6567 23.2152 45.33C23.3385 45.0033 23.5102 44.7267 23.7302 44.5C23.9535 44.2733 24.2219 44.0983 24.5352 43.975C24.8485 43.8517 25.1969 43.79 25.5802 43.79ZM25.5802 48.125C26.0069 48.125 26.3219 47.9817 26.5252 47.695C26.7319 47.4083 26.8352 46.9883 26.8352 46.435C26.8352 45.8817 26.7319 45.46 26.5252 45.17C26.3219 44.88 26.0069 44.735 25.5802 44.735C25.1469 44.735 24.8252 44.8817 24.6152 45.175C24.4085 45.465 24.3052 45.885 24.3052 46.435C24.3052 46.985 24.4085 47.405 24.6152 47.695C24.8252 47.9817 25.1469 48.125 25.5802 48.125ZM33.4724 43.87V49H32.7174C32.554 49 32.4507 48.925 32.4074 48.775L32.3224 48.365C32.1124 48.5783 31.8807 48.7517 31.6274 48.885C31.374 49.015 31.0757 49.08 30.7324 49.08C30.4524 49.08 30.204 49.0333 29.9874 48.94C29.774 48.8433 29.594 48.7083 29.4474 48.535C29.3007 48.3617 29.189 48.1567 29.1124 47.92C29.039 47.68 29.0024 47.4167 29.0024 47.13V43.87H30.2374V47.13C30.2374 47.4433 30.309 47.6867 30.4524 47.86C30.599 48.03 30.8174 48.115 31.1074 48.115C31.3207 48.115 31.5207 48.0683 31.7074 47.975C31.894 47.8783 32.0707 47.7467 32.2374 47.58V43.87H33.4724ZM35.8619 44.76C36.0219 44.4533 36.2119 44.2133 36.4319 44.04C36.6519 43.8633 36.9119 43.775 37.2119 43.775C37.4486 43.775 37.6386 43.8267 37.7819 43.93L37.7019 44.855C37.6852 44.915 37.6602 44.9583 37.6269 44.985C37.5969 45.0083 37.5552 45.02 37.5019 45.02C37.4519 45.02 37.3769 45.0117 37.2769 44.995C37.1802 44.9783 37.0852 44.97 36.9919 44.97C36.8552 44.97 36.7336 44.99 36.6269 45.03C36.5202 45.07 36.4236 45.1283 36.3369 45.205C36.2536 45.2783 36.1786 45.3683 36.1119 45.475C36.0486 45.5817 35.9886 45.7033 35.9319 45.84V49H34.6969V43.87H35.4219C35.5486 43.87 35.6369 43.8933 35.6869 43.94C35.7369 43.9833 35.7702 44.0633 35.7869 44.18L35.8619 44.76ZM39.7074 43.87V49H38.4674V43.87H39.7074ZM39.8774 42.375C39.8774 42.4817 39.8557 42.5817 39.8124 42.675C39.769 42.7683 39.7107 42.85 39.6374 42.92C39.5674 42.99 39.484 43.0467 39.3874 43.09C39.2907 43.13 39.1874 43.15 39.0774 43.15C38.9707 43.15 38.869 43.13 38.7724 43.09C38.679 43.0467 38.5974 42.99 38.5274 42.92C38.4574 42.85 38.4007 42.7683 38.3574 42.675C38.3174 42.5817 38.2974 42.4817 38.2974 42.375C38.2974 42.265 38.3174 42.1617 38.3574 42.065C38.4007 41.9683 38.4574 41.885 38.5274 41.815C38.5974 41.745 38.679 41.69 38.7724 41.65C38.869 41.6067 38.9707 41.585 39.0774 41.585C39.1874 41.585 39.2907 41.6067 39.3874 41.65C39.484 41.69 39.5674 41.745 39.6374 41.815C39.7107 41.885 39.769 41.9683 39.8124 42.065C39.8557 42.1617 39.8774 42.265 39.8774 42.375ZM44.2714 45.845C44.2714 45.685 44.2481 45.535 44.2014 45.395C44.1581 45.2517 44.0914 45.1267 44.0014 45.02C43.9114 44.9133 43.7964 44.83 43.6564 44.77C43.5198 44.7067 43.3598 44.675 43.1764 44.675C42.8198 44.675 42.5381 44.7767 42.3314 44.98C42.1281 45.1833 41.9981 45.4717 41.9414 45.845H44.2714ZM41.9164 46.59C41.9364 46.8533 41.9831 47.0817 42.0564 47.275C42.1298 47.465 42.2264 47.6233 42.3464 47.75C42.4664 47.8733 42.6081 47.9667 42.7714 48.03C42.9381 48.09 43.1214 48.12 43.3214 48.12C43.5214 48.12 43.6931 48.0967 43.8364 48.05C43.9831 48.0033 44.1098 47.9517 44.2164 47.895C44.3264 47.8383 44.4214 47.7867 44.5014 47.74C44.5848 47.6933 44.6648 47.67 44.7414 47.67C44.8448 47.67 44.9214 47.7083 44.9714 47.785L45.3264 48.235C45.1898 48.395 45.0364 48.53 44.8664 48.64C44.6964 48.7467 44.5181 48.8333 44.3314 48.9C44.1481 48.9633 43.9598 49.0083 43.7664 49.035C43.5764 49.0617 43.3914 49.075 43.2114 49.075C42.8548 49.075 42.5231 49.0167 42.2164 48.9C41.9098 48.78 41.6431 48.605 41.4164 48.375C41.1898 48.1417 41.0114 47.855 40.8814 47.515C40.7514 47.1717 40.6864 46.775 40.6864 46.325C40.6864 45.975 40.7431 45.6467 40.8564 45.34C40.9698 45.03 41.1314 44.7617 41.3414 44.535C41.5548 44.305 41.8131 44.1233 42.1164 43.99C42.4231 43.8567 42.7681 43.79 43.1514 43.79C43.4748 43.79 43.7731 43.8417 44.0464 43.945C44.3198 44.0483 44.5548 44.2 44.7514 44.4C44.9481 44.5967 45.1014 44.84 45.2114 45.13C45.3248 45.4167 45.3814 45.745 45.3814 46.115C45.3814 46.3017 45.3614 46.4283 45.3214 46.495C45.2814 46.5583 45.2048 46.59 45.0914 46.59H41.9164ZM47.4732 44.76C47.6332 44.4533 47.8232 44.2133 48.0432 44.04C48.2632 43.8633 48.5232 43.775 48.8232 43.775C49.0599 43.775 49.2499 43.8267 49.3932 43.93L49.3132 44.855C49.2966 44.915 49.2716 44.9583 49.2382 44.985C49.2082 45.0083 49.1666 45.02 49.1132 45.02C49.0632 45.02 48.9882 45.0117 48.8882 44.995C48.7916 44.9783 48.6966 44.97 48.6032 44.97C48.4666 44.97 48.3449 44.99 48.2382 45.03C48.1316 45.07 48.0349 45.1283 47.9482 45.205C47.8649 45.2783 47.7899 45.3683 47.7232 45.475C47.6599 45.5817 47.5999 45.7033 47.5432 45.84V49H46.3082V43.87H47.0332C47.1599 43.87 47.2482 43.8933 47.2982 43.94C47.3482 43.9833 47.3816 44.0633 47.3982 44.18L47.4732 44.76ZM53.1492 44.87C53.1158 44.9233 53.0808 44.9617 53.0442 44.985C53.0075 45.005 52.9608 45.015 52.9042 45.015C52.8442 45.015 52.7792 44.9983 52.7092 44.965C52.6425 44.9317 52.5642 44.895 52.4742 44.855C52.3842 44.8117 52.2808 44.7733 52.1642 44.74C52.0508 44.7067 51.9158 44.69 51.7592 44.69C51.5158 44.69 51.3242 44.7417 51.1842 44.845C51.0475 44.9483 50.9792 45.0833 50.9792 45.25C50.9792 45.36 51.0142 45.4533 51.0842 45.53C51.1575 45.6033 51.2525 45.6683 51.3692 45.725C51.4892 45.7817 51.6242 45.8333 51.7742 45.88C51.9242 45.9233 52.0758 45.9717 52.2292 46.025C52.3858 46.0783 52.5392 46.14 52.6892 46.21C52.8392 46.2767 52.9725 46.3633 53.0892 46.47C53.2092 46.5733 53.3042 46.6983 53.3742 46.845C53.4475 46.9917 53.4842 47.1683 53.4842 47.375C53.4842 47.6217 53.4392 47.85 53.3492 48.06C53.2625 48.2667 53.1325 48.4467 52.9592 48.6C52.7858 48.75 52.5708 48.8683 52.3142 48.955C52.0608 49.0383 51.7675 49.08 51.4342 49.08C51.2575 49.08 51.0842 49.0633 50.9142 49.03C50.7475 49 50.5858 48.9567 50.4292 48.9C50.2758 48.8433 50.1325 48.7767 49.9992 48.7C49.8692 48.6233 49.7542 48.54 49.6542 48.45L49.9392 47.98C49.9758 47.9233 50.0192 47.88 50.0692 47.85C50.1192 47.82 50.1825 47.805 50.2592 47.805C50.3358 47.805 50.4075 47.8267 50.4742 47.87C50.5442 47.9133 50.6242 47.96 50.7142 48.01C50.8042 48.06 50.9092 48.1067 51.0292 48.15C51.1525 48.1933 51.3075 48.215 51.4942 48.215C51.6408 48.215 51.7658 48.1983 51.8692 48.165C51.9758 48.1283 52.0625 48.0817 52.1292 48.025C52.1992 47.9683 52.2492 47.9033 52.2792 47.83C52.3125 47.7533 52.3292 47.675 52.3292 47.595C52.3292 47.475 52.2925 47.3767 52.2192 47.3C52.1492 47.2233 52.0542 47.1567 51.9342 47.1C51.8175 47.0433 51.6825 46.9933 51.5292 46.95C51.3792 46.9033 51.2242 46.8533 51.0642 46.8C50.9075 46.7467 50.7525 46.685 50.5992 46.615C50.4492 46.5417 50.3142 46.45 50.1942 46.34C50.0775 46.23 49.9825 46.095 49.9092 45.935C49.8392 45.775 49.8042 45.5817 49.8042 45.355C49.8042 45.145 49.8458 44.945 49.9292 44.755C50.0125 44.565 50.1342 44.4 50.2942 44.26C50.4575 44.1167 50.6592 44.0033 50.8992 43.92C51.1425 43.8333 51.4225 43.79 51.7392 43.79C52.0925 43.79 52.4142 43.8483 52.7042 43.965C52.9942 44.0817 53.2358 44.235 53.4292 44.425L53.1492 44.87Z" fill="#011627"/>
<path d="M40.5 19.843L29.5 13.6392" stroke="#2667FF" stroke-width="2.5" stroke-linecap="round" stroke-linejoin="round"/>
<path d="M46 27.7323V18.1696C45.9996 17.7504 45.8864 17.3386 45.6719 16.9757C45.4574 16.6127 45.149 16.3113 44.7778 16.1017L36.2222 11.3203C35.8506 11.1105 35.4291 11 35 11C34.5709 11 34.1494 11.1105 33.7778 11.3203L25.2222 16.1017C24.851 16.3113 24.5426 16.6127 24.3281 16.9757C24.1136 17.3386 24.0004 17.7504 24 18.1696V27.7323C24.0004 28.1516 24.1136 28.5633 24.3281 28.9263C24.5426 29.2893 24.851 29.5907 25.2222 29.8003L33.7778 34.5817C34.1494 34.7915 34.5709 34.902 35 34.902C35.4291 34.902 35.8506 34.7915 36.2222 34.5817L44.7778 29.8003C45.149 29.5907 45.4574 29.2893 45.6719 28.9263C45.8864 28.5633 45.9996 28.1516 46 27.7323Z" stroke="#2667FF" stroke-width="2.5" stroke-linecap="round" stroke-linejoin="round"/>
<path d="M24.3301 16.9263L35.0001 22.9628L45.6701 16.9263" stroke="#2667FF" stroke-width="2.5" stroke-linecap="round" stroke-linejoin="round"/>
<path d="M35 35V22.9509" stroke="#2667FF" stroke-width="2.5" stroke-linecap="round" stroke-linejoin="round"/>
</svg>
