<svg width="70" height="60" viewBox="0 0 70 60" fill="none" xmlns="http://www.w3.org/2000/svg">
<path d="M26.7025 45.385C26.7025 45.915 26.6142 46.4017 26.4375 46.845C26.2609 47.2883 26.0125 47.67 25.6925 47.99C25.3725 48.31 24.9875 48.5583 24.5375 48.735C24.0875 48.9117 23.5875 49 23.0375 49H20.2825V41.77H23.0375C23.5875 41.77 24.0875 41.86 24.5375 42.04C24.9875 42.2167 25.3725 42.465 25.6925 42.785C26.0125 43.1017 26.2609 43.4817 26.4375 43.925C26.6142 44.3683 26.7025 44.855 26.7025 45.385ZM25.3225 45.385C25.3225 44.9883 25.2692 44.6333 25.1625 44.32C25.0592 44.0033 24.9075 43.7367 24.7075 43.52C24.5109 43.3 24.2709 43.1317 23.9875 43.015C23.7075 42.8983 23.3909 42.84 23.0375 42.84H21.6325V47.93H23.0375C23.3909 47.93 23.7075 47.8717 23.9875 47.755C24.2709 47.6383 24.5109 47.4717 24.7075 47.255C24.9075 47.035 25.0592 46.7683 25.1625 46.455C25.2692 46.1383 25.3225 45.7817 25.3225 45.385ZM30.9316 45.845C30.9316 45.685 30.9083 45.535 30.8616 45.395C30.8183 45.2517 30.7516 45.1267 30.6616 45.02C30.5716 44.9133 30.4566 44.83 30.3166 44.77C30.1799 44.7067 30.0199 44.675 29.8366 44.675C29.4799 44.675 29.1983 44.7767 28.9916 44.98C28.7883 45.1833 28.6583 45.4717 28.6016 45.845H30.9316ZM28.5766 46.59C28.5966 46.8533 28.6433 47.0817 28.7166 47.275C28.7899 47.465 28.8866 47.6233 29.0066 47.75C29.1266 47.8733 29.2683 47.9667 29.4316 48.03C29.5983 48.09 29.7816 48.12 29.9816 48.12C30.1816 48.12 30.3533 48.0967 30.4966 48.05C30.6433 48.0033 30.7699 47.9517 30.8766 47.895C30.9866 47.8383 31.0816 47.7867 31.1616 47.74C31.2449 47.6933 31.3249 47.67 31.4016 47.67C31.5049 47.67 31.5816 47.7083 31.6316 47.785L31.9866 48.235C31.8499 48.395 31.6966 48.53 31.5266 48.64C31.3566 48.7467 31.1783 48.8333 30.9916 48.9C30.8083 48.9633 30.6199 49.0083 30.4266 49.035C30.2366 49.0617 30.0516 49.075 29.8716 49.075C29.5149 49.075 29.1833 49.0167 28.8766 48.9C28.5699 48.78 28.3033 48.605 28.0766 48.375C27.8499 48.1417 27.6716 47.855 27.5416 47.515C27.4116 47.1717 27.3466 46.775 27.3466 46.325C27.3466 45.975 27.4033 45.6467 27.5166 45.34C27.6299 45.03 27.7916 44.7617 28.0016 44.535C28.2149 44.305 28.4733 44.1233 28.7766 43.99C29.0833 43.8567 29.4283 43.79 29.8116 43.79C30.1349 43.79 30.4333 43.8417 30.7066 43.945C30.9799 44.0483 31.2149 44.2 31.4116 44.4C31.6083 44.5967 31.7616 44.84 31.8716 45.13C31.9849 45.4167 32.0416 45.745 32.0416 46.115C32.0416 46.3017 32.0216 46.4283 31.9816 46.495C31.9416 46.5583 31.8649 46.59 31.7516 46.59H28.5766ZM34.6296 49.08C34.1829 49.08 33.8396 48.955 33.5996 48.705C33.3629 48.4517 33.2446 48.1033 33.2446 47.66V44.795H32.7196C32.6529 44.795 32.5962 44.7733 32.5496 44.73C32.5029 44.6867 32.4796 44.6217 32.4796 44.535V44.045L33.3046 43.91L33.5646 42.51C33.5812 42.4433 33.6129 42.3917 33.6596 42.355C33.7062 42.3183 33.7662 42.3 33.8396 42.3H34.4796V43.915H35.8496V44.795H34.4796V47.575C34.4796 47.735 34.5179 47.86 34.5946 47.95C34.6746 48.04 34.7829 48.085 34.9196 48.085C34.9962 48.085 35.0596 48.0767 35.1096 48.06C35.1629 48.04 35.2079 48.02 35.2446 48C35.2846 47.98 35.3196 47.9617 35.3496 47.945C35.3796 47.925 35.4096 47.915 35.4396 47.915C35.4762 47.915 35.5062 47.925 35.5296 47.945C35.5529 47.9617 35.5779 47.9883 35.6046 48.025L35.9746 48.625C35.7946 48.775 35.5879 48.8883 35.3546 48.965C35.1212 49.0417 34.8796 49.08 34.6296 49.08ZM39.3503 46.81C38.9936 46.8267 38.6936 46.8583 38.4503 46.905C38.2069 46.9483 38.0119 47.005 37.8653 47.075C37.7186 47.145 37.6136 47.2267 37.5503 47.32C37.4869 47.4133 37.4553 47.515 37.4553 47.625C37.4553 47.8417 37.5186 47.9967 37.6453 48.09C37.7753 48.1833 37.9436 48.23 38.1503 48.23C38.4036 48.23 38.6219 48.185 38.8053 48.095C38.9919 48.0017 39.1736 47.8617 39.3503 47.675V46.81ZM36.5203 44.585C37.1103 44.045 37.8203 43.775 38.6503 43.775C38.9503 43.775 39.2186 43.825 39.4553 43.925C39.6919 44.0217 39.8919 44.1583 40.0553 44.335C40.2186 44.5083 40.3419 44.7167 40.4253 44.96C40.5119 45.2033 40.5553 45.47 40.5553 45.76V49H39.9953C39.8786 49 39.7886 48.9833 39.7253 48.95C39.6619 48.9133 39.6119 48.8417 39.5753 48.735L39.4653 48.365C39.3353 48.4817 39.2086 48.585 39.0853 48.675C38.9619 48.7617 38.8336 48.835 38.7003 48.895C38.5669 48.955 38.4236 49 38.2703 49.03C38.1203 49.0633 37.9536 49.08 37.7703 49.08C37.5536 49.08 37.3536 49.0517 37.1703 48.995C36.9869 48.935 36.8286 48.8467 36.6953 48.73C36.5619 48.6133 36.4586 48.4683 36.3853 48.295C36.3119 48.1217 36.2753 47.92 36.2753 47.69C36.2753 47.56 36.2969 47.4317 36.3403 47.305C36.3836 47.175 36.4536 47.0517 36.5503 46.935C36.6503 46.8183 36.7786 46.7083 36.9353 46.605C37.0919 46.5017 37.2836 46.4117 37.5103 46.335C37.7403 46.2583 38.0069 46.1967 38.3103 46.15C38.6136 46.1 38.9603 46.07 39.3503 46.06V45.76C39.3503 45.4167 39.2769 45.1633 39.1303 45C38.9836 44.8333 38.7719 44.75 38.4953 44.75C38.2953 44.75 38.1286 44.7733 37.9953 44.82C37.8653 44.8667 37.7503 44.92 37.6503 44.98C37.5503 45.0367 37.4586 45.0883 37.3753 45.135C37.2953 45.1817 37.2053 45.205 37.1053 45.205C37.0186 45.205 36.9453 45.1833 36.8853 45.14C36.8253 45.0933 36.7769 45.04 36.7403 44.98L36.5203 44.585ZM42.9984 43.87V49H41.7584V43.87H42.9984ZM43.1684 42.375C43.1684 42.4817 43.1467 42.5817 43.1034 42.675C43.0601 42.7683 43.0017 42.85 42.9284 42.92C42.8584 42.99 42.7751 43.0467 42.6784 43.09C42.5817 43.13 42.4784 43.15 42.3684 43.15C42.2617 43.15 42.1601 43.13 42.0634 43.09C41.9701 43.0467 41.8884 42.99 41.8184 42.92C41.7484 42.85 41.6917 42.7683 41.6484 42.675C41.6084 42.5817 41.5884 42.4817 41.5884 42.375C41.5884 42.265 41.6084 42.1617 41.6484 42.065C41.6917 41.9683 41.7484 41.885 41.8184 41.815C41.8884 41.745 41.9701 41.69 42.0634 41.65C42.1601 41.6067 42.2617 41.585 42.3684 41.585C42.4784 41.585 42.5817 41.6067 42.6784 41.65C42.7751 41.69 42.8584 41.745 42.9284 41.815C43.0017 41.885 43.0601 41.9683 43.1034 42.065C43.1467 42.1617 43.1684 42.265 43.1684 42.375ZM45.5075 41.57V49H44.2725V41.57H45.5075ZM49.8679 44.87C49.8346 44.9233 49.7996 44.9617 49.7629 44.985C49.7263 45.005 49.6796 45.015 49.6229 45.015C49.5629 45.015 49.4979 44.9983 49.4279 44.965C49.3613 44.9317 49.2829 44.895 49.1929 44.855C49.1029 44.8117 48.9996 44.7733 48.8829 44.74C48.7696 44.7067 48.6346 44.69 48.4779 44.69C48.2346 44.69 48.0429 44.7417 47.9029 44.845C47.7663 44.9483 47.6979 45.0833 47.6979 45.25C47.6979 45.36 47.7329 45.4533 47.8029 45.53C47.8763 45.6033 47.9713 45.6683 48.0879 45.725C48.2079 45.7817 48.3429 45.8333 48.4929 45.88C48.6429 45.9233 48.7946 45.9717 48.9479 46.025C49.1046 46.0783 49.2579 46.14 49.4079 46.21C49.5579 46.2767 49.6913 46.3633 49.8079 46.47C49.9279 46.5733 50.0229 46.6983 50.0929 46.845C50.1663 46.9917 50.2029 47.1683 50.2029 47.375C50.2029 47.6217 50.1579 47.85 50.0679 48.06C49.9813 48.2667 49.8513 48.4467 49.6779 48.6C49.5046 48.75 49.2896 48.8683 49.0329 48.955C48.7796 49.0383 48.4863 49.08 48.1529 49.08C47.9763 49.08 47.8029 49.0633 47.6329 49.03C47.4663 49 47.3046 48.9567 47.1479 48.9C46.9946 48.8433 46.8513 48.7767 46.7179 48.7C46.5879 48.6233 46.4729 48.54 46.3729 48.45L46.6579 47.98C46.6946 47.9233 46.7379 47.88 46.7879 47.85C46.8379 47.82 46.9013 47.805 46.9779 47.805C47.0546 47.805 47.1263 47.8267 47.1929 47.87C47.2629 47.9133 47.3429 47.96 47.4329 48.01C47.5229 48.06 47.6279 48.1067 47.7479 48.15C47.8713 48.1933 48.0263 48.215 48.2129 48.215C48.3596 48.215 48.4846 48.1983 48.5879 48.165C48.6946 48.1283 48.7813 48.0817 48.8479 48.025C48.9179 47.9683 48.9679 47.9033 48.9979 47.83C49.0313 47.7533 49.0479 47.675 49.0479 47.595C49.0479 47.475 49.0113 47.3767 48.9379 47.3C48.8679 47.2233 48.7729 47.1567 48.6529 47.1C48.5363 47.0433 48.4013 46.9933 48.2479 46.95C48.0979 46.9033 47.9429 46.8533 47.7829 46.8C47.6263 46.7467 47.4713 46.685 47.3179 46.615C47.1679 46.5417 47.0329 46.45 46.9129 46.34C46.7963 46.23 46.7013 46.095 46.6279 45.935C46.5579 45.775 46.5229 45.5817 46.5229 45.355C46.5229 45.145 46.5646 44.945 46.6479 44.755C46.7313 44.565 46.8529 44.4 47.0129 44.26C47.1763 44.1167 47.3779 44.0033 47.6179 43.92C47.8613 43.8333 48.1413 43.79 48.4579 43.79C48.8113 43.79 49.1329 43.8483 49.4229 43.965C49.7129 44.0817 49.9546 44.235 50.1479 44.425L49.8679 44.87Z" fill="#223647"/>
<path d="M35 34C41.6274 34 47 28.6274 47 22C47 15.3726 41.6274 10 35 10C28.3726 10 23 15.3726 23 22C23 28.6274 28.3726 34 35 34Z" stroke="#808E99" stroke-width="2.5" stroke-linecap="round" stroke-linejoin="round"/>
<path d="M35 26.8V22" stroke="#808E99" stroke-width="2.5" stroke-linecap="round" stroke-linejoin="round"/>
<path d="M35 17.2H35.0125" stroke="#808E99" stroke-width="2.5" stroke-linecap="round" stroke-linejoin="round"/>
</svg>
