<svg width="70" height="60" viewBox="0 0 70 60" fill="none" xmlns="http://www.w3.org/2000/svg">
<rect width="70" height="60" rx="5" fill="#F9F9F9"/>
<path d="M12.7768 45.385C12.7768 45.915 12.6884 46.4017 12.5118 46.845C12.3351 47.2883 12.0868 47.67 11.7668 47.99C11.4468 48.31 11.0618 48.5583 10.6118 48.735C10.1618 48.9117 9.66176 49 9.11176 49H6.35676V41.77H9.11176C9.66176 41.77 10.1618 41.86 10.6118 42.04C11.0618 42.2167 11.4468 42.465 11.7668 42.785C12.0868 43.1017 12.3351 43.4817 12.5118 43.925C12.6884 44.3683 12.7768 44.855 12.7768 45.385ZM11.3968 45.385C11.3968 44.9883 11.3434 44.6333 11.2368 44.32C11.1334 44.0033 10.9818 43.7367 10.7818 43.52C10.5851 43.3 10.3451 43.1317 10.0618 43.015C9.78176 42.8983 9.46509 42.84 9.11176 42.84H7.70676V47.93H9.11176C9.46509 47.93 9.78176 47.8717 10.0618 47.755C10.3451 47.6383 10.5851 47.4717 10.7818 47.255C10.9818 47.035 11.1334 46.7683 11.2368 46.455C11.3434 46.1383 11.3968 45.7817 11.3968 45.385ZM15.9708 43.79C16.3508 43.79 16.6958 43.8517 17.0058 43.975C17.3192 44.0983 17.5858 44.2733 17.8058 44.5C18.0292 44.7267 18.2008 45.0033 18.3208 45.33C18.4408 45.6567 18.5008 46.0217 18.5008 46.425C18.5008 46.8317 18.4408 47.1983 18.3208 47.525C18.2008 47.8517 18.0292 48.13 17.8058 48.36C17.5858 48.59 17.3192 48.7667 17.0058 48.89C16.6958 49.0133 16.3508 49.075 15.9708 49.075C15.5875 49.075 15.2392 49.0133 14.9258 48.89C14.6125 48.7667 14.3442 48.59 14.1208 48.36C13.9008 48.13 13.7292 47.8517 13.6058 47.525C13.4858 47.1983 13.4258 46.8317 13.4258 46.425C13.4258 46.0217 13.4858 45.6567 13.6058 45.33C13.7292 45.0033 13.9008 44.7267 14.1208 44.5C14.3442 44.2733 14.6125 44.0983 14.9258 43.975C15.2392 43.8517 15.5875 43.79 15.9708 43.79ZM15.9708 48.125C16.3975 48.125 16.7125 47.9817 16.9158 47.695C17.1225 47.4083 17.2258 46.9883 17.2258 46.435C17.2258 45.8817 17.1225 45.46 16.9158 45.17C16.7125 44.88 16.3975 44.735 15.9708 44.735C15.5375 44.735 15.2158 44.8817 15.0058 45.175C14.7992 45.465 14.6958 45.885 14.6958 46.435C14.6958 46.985 14.7992 47.405 15.0058 47.695C15.2158 47.9817 15.5375 48.125 15.9708 48.125ZM23.118 44.955C23.0813 45.0017 23.0447 45.0383 23.008 45.065C22.9747 45.0917 22.9247 45.105 22.858 45.105C22.7947 45.105 22.733 45.0867 22.673 45.05C22.613 45.01 22.5413 44.9667 22.458 44.92C22.3747 44.87 22.2747 44.8267 22.158 44.79C22.0447 44.75 21.903 44.73 21.733 44.73C21.5163 44.73 21.3263 44.77 21.163 44.85C20.9997 44.9267 20.863 45.0383 20.753 45.185C20.6463 45.3317 20.5663 45.51 20.513 45.72C20.4597 45.9267 20.433 46.1617 20.433 46.425C20.433 46.6983 20.4613 46.9417 20.518 47.155C20.578 47.3683 20.663 47.5483 20.773 47.695C20.883 47.8383 21.0163 47.9483 21.173 48.025C21.3297 48.0983 21.5063 48.135 21.703 48.135C21.8997 48.135 22.058 48.1117 22.178 48.065C22.3013 48.015 22.4047 47.9617 22.488 47.905C22.5713 47.845 22.643 47.7917 22.703 47.745C22.7663 47.695 22.8363 47.67 22.913 47.67C23.013 47.67 23.088 47.7083 23.138 47.785L23.493 48.235C23.3563 48.395 23.208 48.53 23.048 48.64C22.888 48.7467 22.7213 48.8333 22.548 48.9C22.378 48.9633 22.2013 49.0083 22.018 49.035C21.838 49.0617 21.658 49.075 21.478 49.075C21.1613 49.075 20.863 49.0167 20.583 48.9C20.303 48.78 20.058 48.6067 19.848 48.38C19.638 48.1533 19.4713 47.8767 19.348 47.55C19.228 47.22 19.168 46.845 19.168 46.425C19.168 46.0483 19.2213 45.7 19.328 45.38C19.438 45.0567 19.598 44.7783 19.808 44.545C20.018 44.3083 20.278 44.1233 20.588 43.99C20.898 43.8567 21.2547 43.79 21.658 43.79C22.0413 43.79 22.3763 43.8517 22.663 43.975C22.953 44.0983 23.213 44.275 23.443 44.505L23.118 44.955ZM27.3972 44.87C27.3639 44.9233 27.3289 44.9617 27.2922 44.985C27.2556 45.005 27.2089 45.015 27.1522 45.015C27.0922 45.015 27.0272 44.9983 26.9572 44.965C26.8906 44.9317 26.8122 44.895 26.7222 44.855C26.6322 44.8117 26.5289 44.7733 26.4122 44.74C26.2989 44.7067 26.1639 44.69 26.0072 44.69C25.7639 44.69 25.5722 44.7417 25.4322 44.845C25.2956 44.9483 25.2272 45.0833 25.2272 45.25C25.2272 45.36 25.2622 45.4533 25.3322 45.53C25.4056 45.6033 25.5006 45.6683 25.6172 45.725C25.7372 45.7817 25.8722 45.8333 26.0222 45.88C26.1722 45.9233 26.3239 45.9717 26.4772 46.025C26.6339 46.0783 26.7872 46.14 26.9372 46.21C27.0872 46.2767 27.2206 46.3633 27.3372 46.47C27.4572 46.5733 27.5522 46.6983 27.6222 46.845C27.6956 46.9917 27.7322 47.1683 27.7322 47.375C27.7322 47.6217 27.6872 47.85 27.5972 48.06C27.5106 48.2667 27.3806 48.4467 27.2072 48.6C27.0339 48.75 26.8189 48.8683 26.5622 48.955C26.3089 49.0383 26.0156 49.08 25.6822 49.08C25.5056 49.08 25.3322 49.0633 25.1622 49.03C24.9956 49 24.8339 48.9567 24.6772 48.9C24.5239 48.8433 24.3806 48.7767 24.2472 48.7C24.1172 48.6233 24.0022 48.54 23.9022 48.45L24.1872 47.98C24.2239 47.9233 24.2672 47.88 24.3172 47.85C24.3672 47.82 24.4306 47.805 24.5072 47.805C24.5839 47.805 24.6556 47.8267 24.7222 47.87C24.7922 47.9133 24.8722 47.96 24.9622 48.01C25.0522 48.06 25.1572 48.1067 25.2772 48.15C25.4006 48.1933 25.5556 48.215 25.7422 48.215C25.8889 48.215 26.0139 48.1983 26.1172 48.165C26.2239 48.1283 26.3106 48.0817 26.3772 48.025C26.4472 47.9683 26.4972 47.9033 26.5272 47.83C26.5606 47.7533 26.5772 47.675 26.5772 47.595C26.5772 47.475 26.5406 47.3767 26.4672 47.3C26.3972 47.2233 26.3022 47.1567 26.1822 47.1C26.0656 47.0433 25.9306 46.9933 25.7772 46.95C25.6272 46.9033 25.4722 46.8533 25.3122 46.8C25.1556 46.7467 25.0006 46.685 24.8472 46.615C24.6972 46.5417 24.5622 46.45 24.4422 46.34C24.3256 46.23 24.2306 46.095 24.1572 45.935C24.0872 45.775 24.0522 45.5817 24.0522 45.355C24.0522 45.145 24.0939 44.945 24.1772 44.755C24.2606 44.565 24.3822 44.4 24.5422 44.26C24.7056 44.1167 24.9072 44.0033 25.1472 43.92C25.3906 43.8333 25.6706 43.79 25.9872 43.79C26.3406 43.79 26.6622 43.8483 26.9522 43.965C27.2422 44.0817 27.4839 44.235 27.6772 44.425L27.3972 44.87ZM35.1384 43.085C35.0984 43.155 35.0551 43.2067 35.0084 43.24C34.9651 43.27 34.9101 43.285 34.8434 43.285C34.7734 43.285 34.6967 43.26 34.6134 43.21C34.5334 43.1567 34.4367 43.0983 34.3234 43.035C34.2101 42.9717 34.0767 42.915 33.9234 42.865C33.7734 42.8117 33.5951 42.785 33.3884 42.785C33.2017 42.785 33.0384 42.8083 32.8984 42.855C32.7584 42.8983 32.6401 42.96 32.5434 43.04C32.4501 43.12 32.3801 43.2167 32.3334 43.33C32.2867 43.44 32.2634 43.5617 32.2634 43.695C32.2634 43.865 32.3101 44.0067 32.4034 44.12C32.5001 44.2333 32.6267 44.33 32.7834 44.41C32.9401 44.49 33.1184 44.5617 33.3184 44.625C33.5184 44.6883 33.7234 44.7567 33.9334 44.83C34.1434 44.9 34.3484 44.9833 34.5484 45.08C34.7484 45.1733 34.9267 45.2933 35.0834 45.44C35.2401 45.5833 35.3651 45.76 35.4584 45.97C35.5551 46.18 35.6034 46.435 35.6034 46.735C35.6034 47.0617 35.5467 47.3683 35.4334 47.655C35.3234 47.9383 35.1601 48.1867 34.9434 48.4C34.7301 48.61 34.4684 48.7767 34.1584 48.9C33.8484 49.02 33.4934 49.08 33.0934 49.08C32.8634 49.08 32.6367 49.0567 32.4134 49.01C32.1901 48.9667 31.9751 48.9033 31.7684 48.82C31.5651 48.7367 31.3734 48.6367 31.1934 48.52C31.0134 48.4033 30.8534 48.2733 30.7134 48.13L31.1084 47.485C31.1417 47.4383 31.1851 47.4 31.2384 47.37C31.2917 47.3367 31.3484 47.32 31.4084 47.32C31.4917 47.32 31.5817 47.355 31.6784 47.425C31.7751 47.4917 31.8901 47.5667 32.0234 47.65C32.1567 47.7333 32.3117 47.81 32.4884 47.88C32.6684 47.9467 32.8834 47.98 33.1334 47.98C33.5167 47.98 33.8134 47.89 34.0234 47.71C34.2334 47.5267 34.3384 47.265 34.3384 46.925C34.3384 46.735 34.2901 46.58 34.1934 46.46C34.1001 46.34 33.9751 46.24 33.8184 46.16C33.6617 46.0767 33.4834 46.0067 33.2834 45.95C33.0834 45.8933 32.8801 45.8317 32.6734 45.765C32.4667 45.6983 32.2634 45.6183 32.0634 45.525C31.8634 45.4317 31.6851 45.31 31.5284 45.16C31.3717 45.01 31.2451 44.8233 31.1484 44.6C31.0551 44.3733 31.0084 44.095 31.0084 43.765C31.0084 43.5017 31.0601 43.245 31.1634 42.995C31.2701 42.745 31.4234 42.5233 31.6234 42.33C31.8234 42.1367 32.0701 41.9817 32.3634 41.865C32.6567 41.7483 32.9934 41.69 33.3734 41.69C33.8001 41.69 34.1934 41.7567 34.5534 41.89C34.9134 42.0233 35.2201 42.21 35.4734 42.45L35.1384 43.085ZM38.0671 49.08C37.6204 49.08 37.2771 48.955 37.0371 48.705C36.8004 48.4517 36.6821 48.1033 36.6821 47.66V44.795H36.1571C36.0904 44.795 36.0337 44.7733 35.9871 44.73C35.9404 44.6867 35.9171 44.6217 35.9171 44.535V44.045L36.7421 43.91L37.0021 42.51C37.0187 42.4433 37.0504 42.3917 37.0971 42.355C37.1437 42.3183 37.2037 42.3 37.2771 42.3H37.9171V43.915H39.2871V44.795H37.9171V47.575C37.9171 47.735 37.9554 47.86 38.0321 47.95C38.1121 48.04 38.2204 48.085 38.3571 48.085C38.4337 48.085 38.4971 48.0767 38.5471 48.06C38.6004 48.04 38.6454 48.02 38.6821 48C38.7221 47.98 38.7571 47.9617 38.7871 47.945C38.8171 47.925 38.8471 47.915 38.8771 47.915C38.9137 47.915 38.9437 47.925 38.9671 47.945C38.9904 47.9617 39.0154 47.9883 39.0421 48.025L39.4121 48.625C39.2321 48.775 39.0254 48.8883 38.7921 48.965C38.5587 49.0417 38.3171 49.08 38.0671 49.08ZM42.3087 43.79C42.6887 43.79 43.0337 43.8517 43.3437 43.975C43.657 44.0983 43.9237 44.2733 44.1437 44.5C44.367 44.7267 44.5387 45.0033 44.6587 45.33C44.7787 45.6567 44.8387 46.0217 44.8387 46.425C44.8387 46.8317 44.7787 47.1983 44.6587 47.525C44.5387 47.8517 44.367 48.13 44.1437 48.36C43.9237 48.59 43.657 48.7667 43.3437 48.89C43.0337 49.0133 42.6887 49.075 42.3087 49.075C41.9254 49.075 41.577 49.0133 41.2637 48.89C40.9504 48.7667 40.682 48.59 40.4587 48.36C40.2387 48.13 40.067 47.8517 39.9437 47.525C39.8237 47.1983 39.7637 46.8317 39.7637 46.425C39.7637 46.0217 39.8237 45.6567 39.9437 45.33C40.067 45.0033 40.2387 44.7267 40.4587 44.5C40.682 44.2733 40.9504 44.0983 41.2637 43.975C41.577 43.8517 41.9254 43.79 42.3087 43.79ZM42.3087 48.125C42.7354 48.125 43.0504 47.9817 43.2537 47.695C43.4604 47.4083 43.5637 46.9883 43.5637 46.435C43.5637 45.8817 43.4604 45.46 43.2537 45.17C43.0504 44.88 42.7354 44.735 42.3087 44.735C41.8754 44.735 41.5537 44.8817 41.3437 45.175C41.137 45.465 41.0337 45.885 41.0337 46.435C41.0337 46.985 41.137 47.405 41.3437 47.695C41.5537 47.9817 41.8754 48.125 42.3087 48.125ZM46.9459 44.76C47.1059 44.4533 47.2959 44.2133 47.5159 44.04C47.7359 43.8633 47.9959 43.775 48.2959 43.775C48.5326 43.775 48.7226 43.8267 48.8659 43.93L48.7859 44.855C48.7692 44.915 48.7442 44.9583 48.7109 44.985C48.6809 45.0083 48.6392 45.02 48.5859 45.02C48.5359 45.02 48.4609 45.0117 48.3609 44.995C48.2642 44.9783 48.1692 44.97 48.0759 44.97C47.9392 44.97 47.8176 44.99 47.7109 45.03C47.6042 45.07 47.5076 45.1283 47.4209 45.205C47.3376 45.2783 47.2626 45.3683 47.1959 45.475C47.1326 45.5817 47.0726 45.7033 47.0159 45.84V49H45.7809V43.87H46.5059C46.6326 43.87 46.7209 43.8933 46.7709 43.94C46.8209 43.9833 46.8542 44.0633 46.8709 44.18L46.9459 44.76ZM52.153 46.81C51.7963 46.8267 51.4963 46.8583 51.253 46.905C51.0097 46.9483 50.8147 47.005 50.668 47.075C50.5213 47.145 50.4163 47.2267 50.353 47.32C50.2897 47.4133 50.258 47.515 50.258 47.625C50.258 47.8417 50.3213 47.9967 50.448 48.09C50.578 48.1833 50.7463 48.23 50.953 48.23C51.2063 48.23 51.4247 48.185 51.608 48.095C51.7947 48.0017 51.9763 47.8617 52.153 47.675V46.81ZM49.323 44.585C49.913 44.045 50.623 43.775 51.453 43.775C51.753 43.775 52.0213 43.825 52.258 43.925C52.4947 44.0217 52.6947 44.1583 52.858 44.335C53.0213 44.5083 53.1447 44.7167 53.228 44.96C53.3147 45.2033 53.358 45.47 53.358 45.76V49H52.798C52.6813 49 52.5913 48.9833 52.528 48.95C52.4647 48.9133 52.4147 48.8417 52.378 48.735L52.268 48.365C52.138 48.4817 52.0113 48.585 51.888 48.675C51.7647 48.7617 51.6363 48.835 51.503 48.895C51.3697 48.955 51.2263 49 51.073 49.03C50.923 49.0633 50.7563 49.08 50.573 49.08C50.3563 49.08 50.1563 49.0517 49.973 48.995C49.7897 48.935 49.6313 48.8467 49.498 48.73C49.3647 48.6133 49.2613 48.4683 49.188 48.295C49.1147 48.1217 49.078 47.92 49.078 47.69C49.078 47.56 49.0997 47.4317 49.143 47.305C49.1863 47.175 49.2563 47.0517 49.353 46.935C49.453 46.8183 49.5813 46.7083 49.738 46.605C49.8947 46.5017 50.0863 46.4117 50.313 46.335C50.543 46.2583 50.8097 46.1967 51.113 46.15C51.4163 46.1 51.763 46.07 52.153 46.06V45.76C52.153 45.4167 52.0797 45.1633 51.933 45C51.7863 44.8333 51.5747 44.75 51.298 44.75C51.098 44.75 50.9313 44.7733 50.798 44.82C50.668 44.8667 50.553 44.92 50.453 44.98C50.353 45.0367 50.2613 45.0883 50.178 45.135C50.098 45.1817 50.008 45.205 49.908 45.205C49.8213 45.205 49.748 45.1833 49.688 45.14C49.628 45.0933 49.5797 45.04 49.543 44.98L49.323 44.585ZM56.3961 46.31C56.5495 46.31 56.6828 46.29 56.7961 46.25C56.9095 46.2067 57.0028 46.1483 57.0761 46.075C57.1528 46.0017 57.2095 45.9133 57.2461 45.81C57.2861 45.7067 57.3061 45.5933 57.3061 45.47C57.3061 45.2167 57.2295 45.0167 57.0761 44.87C56.9261 44.72 56.6995 44.645 56.3961 44.645C56.0928 44.645 55.8645 44.72 55.7111 44.87C55.5611 45.0167 55.4861 45.2167 55.4861 45.47C55.4861 45.59 55.5045 45.7017 55.5411 45.805C55.5811 45.9083 55.6378 45.9983 55.7111 46.075C55.7878 46.1483 55.8828 46.2067 55.9961 46.25C56.1128 46.29 56.2461 46.31 56.3961 46.31ZM57.7911 49.23C57.7911 49.13 57.7611 49.0483 57.7011 48.985C57.6411 48.9217 57.5595 48.8733 57.4561 48.84C57.3528 48.8033 57.2311 48.7767 57.0911 48.76C56.9545 48.7433 56.8078 48.7317 56.6511 48.725C56.4978 48.715 56.3378 48.7067 56.1711 48.7C56.0078 48.6933 55.8478 48.68 55.6911 48.66C55.5545 48.7367 55.4428 48.8267 55.3561 48.93C55.2728 49.0333 55.2311 49.1533 55.2311 49.29C55.2311 49.38 55.2528 49.4633 55.2961 49.54C55.3428 49.62 55.4145 49.6883 55.5111 49.745C55.6111 49.8017 55.7395 49.845 55.8961 49.875C56.0528 49.9083 56.2445 49.925 56.4711 49.925C56.7011 49.925 56.8995 49.9067 57.0661 49.87C57.2328 49.8367 57.3695 49.7883 57.4761 49.725C57.5861 49.665 57.6661 49.5917 57.7161 49.505C57.7661 49.4217 57.7911 49.33 57.7911 49.23ZM59.0211 44.045V44.505C59.0211 44.6517 58.9328 44.7417 58.7561 44.775L58.2961 44.86C58.3661 45.0367 58.4011 45.23 58.4011 45.44C58.4011 45.6933 58.3495 45.9233 58.2461 46.13C58.1461 46.3333 58.0061 46.5067 57.8261 46.65C57.6461 46.7933 57.4328 46.905 57.1861 46.985C56.9428 47.0617 56.6795 47.1 56.3961 47.1C56.2961 47.1 56.1995 47.095 56.1061 47.085C56.0128 47.075 55.9211 47.0617 55.8311 47.045C55.6711 47.1417 55.5911 47.25 55.5911 47.37C55.5911 47.4733 55.6378 47.55 55.7311 47.6C55.8278 47.6467 55.9545 47.68 56.1111 47.7C56.2678 47.72 56.4461 47.7333 56.6461 47.74C56.8461 47.7433 57.0511 47.7533 57.2611 47.77C57.4711 47.7867 57.6761 47.8167 57.8761 47.86C58.0761 47.9 58.2545 47.965 58.4111 48.055C58.5678 48.145 58.6928 48.2683 58.7861 48.425C58.8828 48.5783 58.9311 48.7767 58.9311 49.02C58.9311 49.2467 58.8745 49.4667 58.7611 49.68C58.6511 49.8933 58.4895 50.0833 58.2761 50.25C58.0661 50.4167 57.8061 50.55 57.4961 50.65C57.1895 50.7533 56.8395 50.805 56.4461 50.805C56.0595 50.805 55.7228 50.7667 55.4361 50.69C55.1495 50.6167 54.9111 50.5167 54.7211 50.39C54.5311 50.2667 54.3895 50.1233 54.2961 49.96C54.2028 49.7967 54.1561 49.6267 54.1561 49.45C54.1561 49.21 54.2278 49.01 54.3711 48.85C54.5178 48.6867 54.7178 48.5567 54.9711 48.46C54.8345 48.39 54.7261 48.2967 54.6461 48.18C54.5661 48.0633 54.5261 47.91 54.5261 47.72C54.5261 47.6433 54.5395 47.565 54.5661 47.485C54.5961 47.4017 54.6378 47.32 54.6911 47.24C54.7478 47.16 54.8178 47.085 54.9011 47.015C54.9845 46.9417 55.0828 46.8767 55.1961 46.82C54.9361 46.68 54.7311 46.4933 54.5811 46.26C54.4345 46.0267 54.3611 45.7533 54.3611 45.44C54.3611 45.1867 54.4111 44.9583 54.5111 44.755C54.6145 44.5483 54.7561 44.3733 54.9361 44.23C55.1195 44.0833 55.3345 43.9717 55.5811 43.895C55.8311 43.8183 56.1028 43.78 56.3961 43.78C56.6161 43.78 56.8228 43.8033 57.0161 43.85C57.2095 43.8933 57.3861 43.9583 57.5461 44.045H59.0211ZM63.0214 45.845C63.0214 45.685 62.9981 45.535 62.9514 45.395C62.9081 45.2517 62.8414 45.1267 62.7514 45.02C62.6614 44.9133 62.5464 44.83 62.4064 44.77C62.2698 44.7067 62.1098 44.675 61.9264 44.675C61.5698 44.675 61.2881 44.7767 61.0814 44.98C60.8781 45.1833 60.7481 45.4717 60.6914 45.845H63.0214ZM60.6664 46.59C60.6864 46.8533 60.7331 47.0817 60.8064 47.275C60.8798 47.465 60.9764 47.6233 61.0964 47.75C61.2164 47.8733 61.3581 47.9667 61.5214 48.03C61.6881 48.09 61.8714 48.12 62.0714 48.12C62.2714 48.12 62.4431 48.0967 62.5864 48.05C62.7331 48.0033 62.8598 47.9517 62.9664 47.895C63.0764 47.8383 63.1714 47.7867 63.2514 47.74C63.3348 47.6933 63.4148 47.67 63.4914 47.67C63.5948 47.67 63.6714 47.7083 63.7214 47.785L64.0764 48.235C63.9398 48.395 63.7864 48.53 63.6164 48.64C63.4464 48.7467 63.2681 48.8333 63.0814 48.9C62.8981 48.9633 62.7098 49.0083 62.5164 49.035C62.3264 49.0617 62.1414 49.075 61.9614 49.075C61.6048 49.075 61.2731 49.0167 60.9664 48.9C60.6598 48.78 60.3931 48.605 60.1664 48.375C59.9398 48.1417 59.7614 47.855 59.6314 47.515C59.5014 47.1717 59.4364 46.775 59.4364 46.325C59.4364 45.975 59.4931 45.6467 59.6064 45.34C59.7198 45.03 59.8814 44.7617 60.0914 44.535C60.3048 44.305 60.5631 44.1233 60.8664 43.99C61.1731 43.8567 61.5181 43.79 61.9014 43.79C62.2248 43.79 62.5231 43.8417 62.7964 43.945C63.0698 44.0483 63.3048 44.2 63.5014 44.4C63.6981 44.5967 63.8514 44.84 63.9614 45.13C64.0748 45.4167 64.1314 45.745 64.1314 46.115C64.1314 46.3017 64.1114 46.4283 64.0714 46.495C64.0314 46.5583 63.9548 46.59 63.8414 46.59H60.6664Z" fill="#011627"/>
<path d="M48 23H22" stroke="#2667FF" stroke-width="2.5" stroke-linecap="round" stroke-linejoin="round"/>
<path d="M26.485 12.665L22 23V32C22 32.7956 22.2739 33.5587 22.7615 34.1213C23.2491 34.6839 23.9104 35 24.6 35H45.4C46.0896 35 46.7509 34.6839 47.2385 34.1213C47.7261 33.5587 48 32.7956 48 32V23L43.515 12.665C43.2997 12.1652 42.9679 11.7446 42.5568 11.4504C42.1458 11.1563 41.6717 11.0003 41.188 11H28.812C28.3283 11.0003 27.8542 11.1563 27.4432 11.4504C27.0321 11.7446 26.7003 12.1652 26.485 12.665V12.665Z" stroke="#2667FF" stroke-width="2.5" stroke-linecap="round" stroke-linejoin="round"/>
<path d="M27.2002 29H27.2132" stroke="#2667FF" stroke-width="2.5" stroke-linecap="round" stroke-linejoin="round"/>
<path d="M32.4004 29H32.4134" stroke="#2667FF" stroke-width="2.5" stroke-linecap="round" stroke-linejoin="round"/>
</svg>
