<svg width="70" height="60" viewBox="0 0 70 60" fill="none" xmlns="http://www.w3.org/2000/svg">
<path d="M22.1197 41.77V49H20.7697V45.84H17.3747V49H16.0247V41.77H17.3747V44.88H20.7697V41.77H22.1197ZM26.6836 45.845C26.6836 45.685 26.6602 45.535 26.6136 45.395C26.5702 45.2517 26.5036 45.1267 26.4136 45.02C26.3236 44.9133 26.2086 44.83 26.0686 44.77C25.9319 44.7067 25.7719 44.675 25.5886 44.675C25.2319 44.675 24.9502 44.7767 24.7436 44.98C24.5402 45.1833 24.4102 45.4717 24.3536 45.845H26.6836ZM24.3286 46.59C24.3486 46.8533 24.3952 47.0817 24.4686 47.275C24.5419 47.465 24.6386 47.6233 24.7586 47.75C24.8786 47.8733 25.0202 47.9667 25.1836 48.03C25.3502 48.09 25.5336 48.12 25.7336 48.12C25.9336 48.12 26.1052 48.0967 26.2486 48.05C26.3952 48.0033 26.5219 47.9517 26.6286 47.895C26.7386 47.8383 26.8336 47.7867 26.9136 47.74C26.9969 47.6933 27.0769 47.67 27.1536 47.67C27.2569 47.67 27.3336 47.7083 27.3836 47.785L27.7386 48.235C27.6019 48.395 27.4486 48.53 27.2786 48.64C27.1086 48.7467 26.9302 48.8333 26.7436 48.9C26.5602 48.9633 26.3719 49.0083 26.1786 49.035C25.9886 49.0617 25.8036 49.075 25.6236 49.075C25.2669 49.075 24.9352 49.0167 24.6286 48.9C24.3219 48.78 24.0552 48.605 23.8286 48.375C23.6019 48.1417 23.4236 47.855 23.2936 47.515C23.1636 47.1717 23.0986 46.775 23.0986 46.325C23.0986 45.975 23.1552 45.6467 23.2686 45.34C23.3819 45.03 23.5436 44.7617 23.7536 44.535C23.9669 44.305 24.2252 44.1233 24.5286 43.99C24.8352 43.8567 25.1802 43.79 25.5636 43.79C25.8869 43.79 26.1852 43.8417 26.4586 43.945C26.7319 44.0483 26.9669 44.2 27.1636 44.4C27.3602 44.5967 27.5136 44.84 27.6236 45.13C27.7369 45.4167 27.7936 45.745 27.7936 46.115C27.7936 46.3017 27.7736 46.4283 27.7336 46.495C27.6936 46.5583 27.6169 46.59 27.5036 46.59H24.3286ZM31.4304 46.81C31.0737 46.8267 30.7737 46.8583 30.5304 46.905C30.287 46.9483 30.092 47.005 29.9454 47.075C29.7987 47.145 29.6937 47.2267 29.6304 47.32C29.567 47.4133 29.5354 47.515 29.5354 47.625C29.5354 47.8417 29.5987 47.9967 29.7254 48.09C29.8554 48.1833 30.0237 48.23 30.2304 48.23C30.4837 48.23 30.702 48.185 30.8854 48.095C31.072 48.0017 31.2537 47.8617 31.4304 47.675V46.81ZM28.6004 44.585C29.1904 44.045 29.9004 43.775 30.7304 43.775C31.0304 43.775 31.2987 43.825 31.5354 43.925C31.772 44.0217 31.972 44.1583 32.1354 44.335C32.2987 44.5083 32.422 44.7167 32.5054 44.96C32.592 45.2033 32.6354 45.47 32.6354 45.76V49H32.0754C31.9587 49 31.8687 48.9833 31.8054 48.95C31.742 48.9133 31.692 48.8417 31.6554 48.735L31.5454 48.365C31.4154 48.4817 31.2887 48.585 31.1654 48.675C31.042 48.7617 30.9137 48.835 30.7804 48.895C30.647 48.955 30.5037 49 30.3504 49.03C30.2004 49.0633 30.0337 49.08 29.8504 49.08C29.6337 49.08 29.4337 49.0517 29.2504 48.995C29.067 48.935 28.9087 48.8467 28.7754 48.73C28.642 48.6133 28.5387 48.4683 28.4654 48.295C28.392 48.1217 28.3554 47.92 28.3554 47.69C28.3554 47.56 28.377 47.4317 28.4204 47.305C28.4637 47.175 28.5337 47.0517 28.6304 46.935C28.7304 46.8183 28.8587 46.7083 29.0154 46.605C29.172 46.5017 29.3637 46.4117 29.5904 46.335C29.8204 46.2583 30.087 46.1967 30.3904 46.15C30.6937 46.1 31.0404 46.07 31.4304 46.06V45.76C31.4304 45.4167 31.357 45.1633 31.2104 45C31.0637 44.8333 30.852 44.75 30.5754 44.75C30.3754 44.75 30.2087 44.7733 30.0754 44.82C29.9454 44.8667 29.8304 44.92 29.7304 44.98C29.6304 45.0367 29.5387 45.0883 29.4554 45.135C29.3754 45.1817 29.2854 45.205 29.1854 45.205C29.0987 45.205 29.0254 45.1833 28.9654 45.14C28.9054 45.0933 28.857 45.04 28.8204 44.98L28.6004 44.585ZM34.9635 44.76C35.1235 44.4533 35.3135 44.2133 35.5335 44.04C35.7535 43.8633 36.0135 43.775 36.3135 43.775C36.5501 43.775 36.7401 43.8267 36.8835 43.93L36.8035 44.855C36.7868 44.915 36.7618 44.9583 36.7285 44.985C36.6985 45.0083 36.6568 45.02 36.6035 45.02C36.5535 45.02 36.4785 45.0117 36.3785 44.995C36.2818 44.9783 36.1868 44.97 36.0935 44.97C35.9568 44.97 35.8351 44.99 35.7285 45.03C35.6218 45.07 35.5251 45.1283 35.4385 45.205C35.3551 45.2783 35.2801 45.3683 35.2135 45.475C35.1501 45.5817 35.0901 45.7033 35.0335 45.84V49H33.7985V43.87H34.5235C34.6501 43.87 34.7385 43.8933 34.7885 43.94C34.8385 43.9833 34.8718 44.0633 34.8885 44.18L34.9635 44.76ZM38.8089 43.87V49H37.5689V43.87H38.8089ZM38.9789 42.375C38.9789 42.4817 38.9573 42.5817 38.9139 42.675C38.8706 42.7683 38.8123 42.85 38.7389 42.92C38.6689 42.99 38.5856 43.0467 38.4889 43.09C38.3923 43.13 38.2889 43.15 38.1789 43.15C38.0723 43.15 37.9706 43.13 37.8739 43.09C37.7806 43.0467 37.6989 42.99 37.6289 42.92C37.5589 42.85 37.5023 42.7683 37.4589 42.675C37.4189 42.5817 37.3989 42.4817 37.3989 42.375C37.3989 42.265 37.4189 42.1617 37.4589 42.065C37.5023 41.9683 37.5589 41.885 37.6289 41.815C37.6989 41.745 37.7806 41.69 37.8739 41.65C37.9706 41.6067 38.0723 41.585 38.1789 41.585C38.2889 41.585 38.3923 41.6067 38.4889 41.65C38.5856 41.69 38.6689 41.745 38.7389 41.815C38.8123 41.885 38.8706 41.9683 38.9139 42.065C38.9573 42.1617 38.9789 42.265 38.9789 42.375ZM41.223 44.5C41.3263 44.3967 41.4347 44.3017 41.548 44.215C41.6647 44.125 41.7863 44.05 41.913 43.99C42.043 43.9267 42.1813 43.8783 42.328 43.845C42.4747 43.8083 42.6347 43.79 42.808 43.79C43.088 43.79 43.3363 43.8383 43.553 43.935C43.7697 44.0283 43.9497 44.1617 44.093 44.335C44.2397 44.505 44.3497 44.71 44.423 44.95C44.4997 45.1867 44.538 45.4483 44.538 45.735V49H43.303V45.735C43.303 45.4217 43.2313 45.18 43.088 45.01C42.9447 44.8367 42.7263 44.75 42.433 44.75C42.2197 44.75 42.0197 44.7983 41.833 44.895C41.6463 44.9917 41.4697 45.1233 41.303 45.29V49H40.068V43.87H40.823C40.983 43.87 41.088 43.945 41.138 44.095L41.223 44.5ZM47.5875 46.31C47.7409 46.31 47.8742 46.29 47.9875 46.25C48.1009 46.2067 48.1942 46.1483 48.2675 46.075C48.3442 46.0017 48.4009 45.9133 48.4375 45.81C48.4775 45.7067 48.4975 45.5933 48.4975 45.47C48.4975 45.2167 48.4209 45.0167 48.2675 44.87C48.1175 44.72 47.8909 44.645 47.5875 44.645C47.2842 44.645 47.0559 44.72 46.9025 44.87C46.7525 45.0167 46.6775 45.2167 46.6775 45.47C46.6775 45.59 46.6959 45.7017 46.7325 45.805C46.7725 45.9083 46.8292 45.9983 46.9025 46.075C46.9792 46.1483 47.0742 46.2067 47.1875 46.25C47.3042 46.29 47.4375 46.31 47.5875 46.31ZM48.9825 49.23C48.9825 49.13 48.9525 49.0483 48.8925 48.985C48.8325 48.9217 48.7509 48.8733 48.6475 48.84C48.5442 48.8033 48.4225 48.7767 48.2825 48.76C48.1459 48.7433 47.9992 48.7317 47.8425 48.725C47.6892 48.715 47.5292 48.7067 47.3625 48.7C47.1992 48.6933 47.0392 48.68 46.8825 48.66C46.7459 48.7367 46.6342 48.8267 46.5475 48.93C46.4642 49.0333 46.4225 49.1533 46.4225 49.29C46.4225 49.38 46.4442 49.4633 46.4875 49.54C46.5342 49.62 46.6059 49.6883 46.7025 49.745C46.8025 49.8017 46.9309 49.845 47.0875 49.875C47.2442 49.9083 47.4359 49.925 47.6625 49.925C47.8925 49.925 48.0909 49.9067 48.2575 49.87C48.4242 49.8367 48.5609 49.7883 48.6675 49.725C48.7775 49.665 48.8575 49.5917 48.9075 49.505C48.9575 49.4217 48.9825 49.33 48.9825 49.23ZM50.2125 44.045V44.505C50.2125 44.6517 50.1242 44.7417 49.9475 44.775L49.4875 44.86C49.5575 45.0367 49.5925 45.23 49.5925 45.44C49.5925 45.6933 49.5409 45.9233 49.4375 46.13C49.3375 46.3333 49.1975 46.5067 49.0175 46.65C48.8375 46.7933 48.6242 46.905 48.3775 46.985C48.1342 47.0617 47.8709 47.1 47.5875 47.1C47.4875 47.1 47.3909 47.095 47.2975 47.085C47.2042 47.075 47.1125 47.0617 47.0225 47.045C46.8625 47.1417 46.7825 47.25 46.7825 47.37C46.7825 47.4733 46.8292 47.55 46.9225 47.6C47.0192 47.6467 47.1459 47.68 47.3025 47.7C47.4592 47.72 47.6375 47.7333 47.8375 47.74C48.0375 47.7433 48.2425 47.7533 48.4525 47.77C48.6625 47.7867 48.8675 47.8167 49.0675 47.86C49.2675 47.9 49.4459 47.965 49.6025 48.055C49.7592 48.145 49.8842 48.2683 49.9775 48.425C50.0742 48.5783 50.1225 48.7767 50.1225 49.02C50.1225 49.2467 50.0659 49.4667 49.9525 49.68C49.8425 49.8933 49.6809 50.0833 49.4675 50.25C49.2575 50.4167 48.9975 50.55 48.6875 50.65C48.3809 50.7533 48.0309 50.805 47.6375 50.805C47.2509 50.805 46.9142 50.7667 46.6275 50.69C46.3409 50.6167 46.1025 50.5167 45.9125 50.39C45.7225 50.2667 45.5809 50.1233 45.4875 49.96C45.3942 49.7967 45.3475 49.6267 45.3475 49.45C45.3475 49.21 45.4192 49.01 45.5625 48.85C45.7092 48.6867 45.9092 48.5567 46.1625 48.46C46.0259 48.39 45.9175 48.2967 45.8375 48.18C45.7575 48.0633 45.7175 47.91 45.7175 47.72C45.7175 47.6433 45.7309 47.565 45.7575 47.485C45.7875 47.4017 45.8292 47.32 45.8825 47.24C45.9392 47.16 46.0092 47.085 46.0925 47.015C46.1759 46.9417 46.2742 46.8767 46.3875 46.82C46.1275 46.68 45.9225 46.4933 45.7725 46.26C45.6259 46.0267 45.5525 45.7533 45.5525 45.44C45.5525 45.1867 45.6025 44.9583 45.7025 44.755C45.8059 44.5483 45.9475 44.3733 46.1275 44.23C46.3109 44.0833 46.5259 43.9717 46.7725 43.895C47.0225 43.8183 47.2942 43.78 47.5875 43.78C47.8075 43.78 48.0142 43.8033 48.2075 43.85C48.4009 43.8933 48.5775 43.9583 48.7375 44.045H50.2125ZM54.1257 44.87C54.0924 44.9233 54.0574 44.9617 54.0207 44.985C53.9841 45.005 53.9374 45.015 53.8807 45.015C53.8207 45.015 53.7557 44.9983 53.6857 44.965C53.6191 44.9317 53.5407 44.895 53.4507 44.855C53.3607 44.8117 53.2574 44.7733 53.1407 44.74C53.0274 44.7067 52.8924 44.69 52.7357 44.69C52.4924 44.69 52.3007 44.7417 52.1607 44.845C52.0241 44.9483 51.9557 45.0833 51.9557 45.25C51.9557 45.36 51.9907 45.4533 52.0607 45.53C52.1341 45.6033 52.2291 45.6683 52.3457 45.725C52.4657 45.7817 52.6007 45.8333 52.7507 45.88C52.9007 45.9233 53.0524 45.9717 53.2057 46.025C53.3624 46.0783 53.5157 46.14 53.6657 46.21C53.8157 46.2767 53.9491 46.3633 54.0657 46.47C54.1857 46.5733 54.2807 46.6983 54.3507 46.845C54.4241 46.9917 54.4607 47.1683 54.4607 47.375C54.4607 47.6217 54.4157 47.85 54.3257 48.06C54.2391 48.2667 54.1091 48.4467 53.9357 48.6C53.7624 48.75 53.5474 48.8683 53.2907 48.955C53.0374 49.0383 52.7441 49.08 52.4107 49.08C52.2341 49.08 52.0607 49.0633 51.8907 49.03C51.7241 49 51.5624 48.9567 51.4057 48.9C51.2524 48.8433 51.1091 48.7767 50.9757 48.7C50.8457 48.6233 50.7307 48.54 50.6307 48.45L50.9157 47.98C50.9524 47.9233 50.9957 47.88 51.0457 47.85C51.0957 47.82 51.1591 47.805 51.2357 47.805C51.3124 47.805 51.3841 47.8267 51.4507 47.87C51.5207 47.9133 51.6007 47.96 51.6907 48.01C51.7807 48.06 51.8857 48.1067 52.0057 48.15C52.1291 48.1933 52.2841 48.215 52.4707 48.215C52.6174 48.215 52.7424 48.1983 52.8457 48.165C52.9524 48.1283 53.0391 48.0817 53.1057 48.025C53.1757 47.9683 53.2257 47.9033 53.2557 47.83C53.2891 47.7533 53.3057 47.675 53.3057 47.595C53.3057 47.475 53.2691 47.3767 53.1957 47.3C53.1257 47.2233 53.0307 47.1567 52.9107 47.1C52.7941 47.0433 52.6591 46.9933 52.5057 46.95C52.3557 46.9033 52.2007 46.8533 52.0407 46.8C51.8841 46.7467 51.7291 46.685 51.5757 46.615C51.4257 46.5417 51.2907 46.45 51.1707 46.34C51.0541 46.23 50.9591 46.095 50.8857 45.935C50.8157 45.775 50.7807 45.5817 50.7807 45.355C50.7807 45.145 50.8224 44.945 50.9057 44.755C50.9891 44.565 51.1107 44.4 51.2707 44.26C51.4341 44.1167 51.6357 44.0033 51.8757 43.92C52.1191 43.8333 52.3991 43.79 52.7157 43.79C53.0691 43.79 53.3907 43.8483 53.6807 43.965C53.9707 44.0817 54.2124 44.235 54.4057 44.425L54.1257 44.87Z" fill="#223647"/>
<path d="M29.667 11H47.0003" stroke="#808E99" stroke-width="2.5" stroke-linecap="round" stroke-linejoin="round"/>
<path d="M29.667 23H47.0003" stroke="#808E99" stroke-width="2.5" stroke-linecap="round" stroke-linejoin="round"/>
<path d="M29.667 17H47.0003" stroke="#808E99" stroke-width="2.5" stroke-linecap="round" stroke-linejoin="round"/>
<path d="M29.667 29H47.0003" stroke="#808E99" stroke-width="2.5" stroke-linecap="round" stroke-linejoin="round"/>
<path d="M29.667 35H47.0003" stroke="#808E99" stroke-width="2.5" stroke-linecap="round" stroke-linejoin="round"/>
<path d="M23 23H23.0139" stroke="#808E99" stroke-width="2.5" stroke-linecap="round" stroke-linejoin="round"/>
<path d="M23 17H23.0139" stroke="#808E99" stroke-width="2.5" stroke-linecap="round" stroke-linejoin="round"/>
<path d="M23 11H23.0139" stroke="#808E99" stroke-width="2.5" stroke-linecap="round" stroke-linejoin="round"/>
<path d="M23 29H23.0139" stroke="#808E99" stroke-width="2.5" stroke-linecap="round" stroke-linejoin="round"/>
<path d="M23 35H23.0139" stroke="#808E99" stroke-width="2.5" stroke-linecap="round" stroke-linejoin="round"/>
</svg>
