<svg width="70" height="60" viewBox="0 0 70 60" fill="none" xmlns="http://www.w3.org/2000/svg">
<path d="M28.3941 41.77V49H27.0441V45.84H23.6491V49H22.2991V41.77H23.6491V44.88H27.0441V41.77H28.3941ZM31.923 43.79C32.303 43.79 32.648 43.8517 32.958 43.975C33.2713 44.0983 33.538 44.2733 33.758 44.5C33.9813 44.7267 34.153 45.0033 34.273 45.33C34.393 45.6567 34.453 46.0217 34.453 46.425C34.453 46.8317 34.393 47.1983 34.273 47.525C34.153 47.8517 33.9813 48.13 33.758 48.36C33.538 48.59 33.2713 48.7667 32.958 48.89C32.648 49.0133 32.303 49.075 31.923 49.075C31.5396 49.075 31.1913 49.0133 30.878 48.89C30.5646 48.7667 30.2963 48.59 30.073 48.36C29.853 48.13 29.6813 47.8517 29.558 47.525C29.438 47.1983 29.378 46.8317 29.378 46.425C29.378 46.0217 29.438 45.6567 29.558 45.33C29.6813 45.0033 29.853 44.7267 30.073 44.5C30.2963 44.2733 30.5646 44.0983 30.878 43.975C31.1913 43.8517 31.5396 43.79 31.923 43.79ZM31.923 48.125C32.3496 48.125 32.6646 47.9817 32.868 47.695C33.0746 47.4083 33.178 46.9883 33.178 46.435C33.178 45.8817 33.0746 45.46 32.868 45.17C32.6646 44.88 32.3496 44.735 31.923 44.735C31.4896 44.735 31.168 44.8817 30.958 45.175C30.7513 45.465 30.648 45.885 30.648 46.435C30.648 46.985 30.7513 47.405 30.958 47.695C31.168 47.9817 31.4896 48.125 31.923 48.125ZM35.3952 49V43.87H36.1502C36.3102 43.87 36.4152 43.945 36.4652 44.095L36.5452 44.475C36.6352 44.375 36.7285 44.2833 36.8252 44.2C36.9252 44.1167 37.0302 44.045 37.1402 43.985C37.2535 43.925 37.3735 43.8783 37.5002 43.845C37.6302 43.8083 37.7718 43.79 37.9252 43.79C38.2485 43.79 38.5135 43.8783 38.7202 44.055C38.9302 44.2283 39.0868 44.46 39.1902 44.75C39.2702 44.58 39.3702 44.435 39.4902 44.315C39.6102 44.1917 39.7418 44.0917 39.8852 44.015C40.0285 43.9383 40.1802 43.8817 40.3402 43.845C40.5035 43.8083 40.6668 43.79 40.8302 43.79C41.1135 43.79 41.3652 43.8333 41.5852 43.92C41.8052 44.0067 41.9902 44.1333 42.1402 44.3C42.2902 44.4667 42.4035 44.67 42.4802 44.91C42.5602 45.15 42.6002 45.425 42.6002 45.735V49H41.3652V45.735C41.3652 45.4083 41.2935 45.1633 41.1502 45C41.0068 44.8333 40.7968 44.75 40.5202 44.75C40.3935 44.75 40.2752 44.7717 40.1652 44.815C40.0585 44.8583 39.9635 44.9217 39.8802 45.005C39.8002 45.085 39.7368 45.1867 39.6902 45.31C39.6435 45.4333 39.6202 45.575 39.6202 45.735V49H38.3802V45.735C38.3802 45.3917 38.3102 45.1417 38.1702 44.985C38.0335 44.8283 37.8318 44.75 37.5652 44.75C37.3852 44.75 37.2168 44.795 37.0602 44.885C36.9068 44.9717 36.7635 45.0917 36.6302 45.245V49H35.3952ZM47.0791 45.845C47.0791 45.685 47.0557 45.535 47.0091 45.395C46.9657 45.2517 46.8991 45.1267 46.8091 45.02C46.7191 44.9133 46.6041 44.83 46.4641 44.77C46.3274 44.7067 46.1674 44.675 45.9841 44.675C45.6274 44.675 45.3457 44.7767 45.1391 44.98C44.9357 45.1833 44.8057 45.4717 44.7491 45.845H47.0791ZM44.7241 46.59C44.7441 46.8533 44.7907 47.0817 44.8641 47.275C44.9374 47.465 45.0341 47.6233 45.1541 47.75C45.2741 47.8733 45.4157 47.9667 45.5791 48.03C45.7457 48.09 45.9291 48.12 46.1291 48.12C46.3291 48.12 46.5007 48.0967 46.6441 48.05C46.7907 48.0033 46.9174 47.9517 47.0241 47.895C47.1341 47.8383 47.2291 47.7867 47.3091 47.74C47.3924 47.6933 47.4724 47.67 47.5491 47.67C47.6524 47.67 47.7291 47.7083 47.7791 47.785L48.1341 48.235C47.9974 48.395 47.8441 48.53 47.6741 48.64C47.5041 48.7467 47.3257 48.8333 47.1391 48.9C46.9557 48.9633 46.7674 49.0083 46.5741 49.035C46.3841 49.0617 46.1991 49.075 46.0191 49.075C45.6624 49.075 45.3307 49.0167 45.0241 48.9C44.7174 48.78 44.4507 48.605 44.2241 48.375C43.9974 48.1417 43.8191 47.855 43.6891 47.515C43.5591 47.1717 43.4941 46.775 43.4941 46.325C43.4941 45.975 43.5507 45.6467 43.6641 45.34C43.7774 45.03 43.9391 44.7617 44.1491 44.535C44.3624 44.305 44.6207 44.1233 44.9241 43.99C45.2307 43.8567 45.5757 43.79 45.9591 43.79C46.2824 43.79 46.5807 43.8417 46.8541 43.945C47.1274 44.0483 47.3624 44.2 47.5591 44.4C47.7557 44.5967 47.9091 44.84 48.0191 45.13C48.1324 45.4167 48.1891 45.745 48.1891 46.115C48.1891 46.3017 48.1691 46.4283 48.1291 46.495C48.0891 46.5583 48.0124 46.59 47.8991 46.59H44.7241Z" fill="#081049"/>
<path d="M23 18.4L35 10L47 18.4V31.6C47 32.2365 46.719 32.847 46.219 33.2971C45.7189 33.7471 45.0406 34 44.3333 34H25.6667C24.9594 34 24.2811 33.7471 23.781 33.2971C23.281 32.847 23 32.2365 23 31.6V18.4Z" fill="#101F87"/>
<path d="M31 34V22H39V34" fill="white"/>
</svg>
