<svg width="70" height="60" viewBox="0 0 70 60" fill="none" xmlns="http://www.w3.org/2000/svg">
<path d="M19.9333 49H18.5833V41.77H19.9333V49ZM22.4339 44.5C22.5373 44.3967 22.6456 44.3017 22.7589 44.215C22.8756 44.125 22.9973 44.05 23.1239 43.99C23.2539 43.9267 23.3923 43.8783 23.5389 43.845C23.6856 43.8083 23.8456 43.79 24.0189 43.79C24.2989 43.79 24.5473 43.8383 24.7639 43.935C24.9806 44.0283 25.1606 44.1617 25.3039 44.335C25.4506 44.505 25.5606 44.71 25.6339 44.95C25.7106 45.1867 25.7489 45.4483 25.7489 45.735V49H24.5139V45.735C24.5139 45.4217 24.4423 45.18 24.2989 45.01C24.1556 44.8367 23.9373 44.75 23.6439 44.75C23.4306 44.75 23.2306 44.7983 23.0439 44.895C22.8573 44.9917 22.6806 45.1233 22.5139 45.29V49H21.2789V43.87H22.0339C22.1939 43.87 22.2989 43.945 22.3489 44.095L22.4339 44.5ZM30.0535 44.87C30.0201 44.9233 29.9851 44.9617 29.9485 44.985C29.9118 45.005 29.8651 45.015 29.8085 45.015C29.7485 45.015 29.6835 44.9983 29.6135 44.965C29.5468 44.9317 29.4685 44.895 29.3785 44.855C29.2885 44.8117 29.1851 44.7733 29.0685 44.74C28.9551 44.7067 28.8201 44.69 28.6635 44.69C28.4201 44.69 28.2285 44.7417 28.0885 44.845C27.9518 44.9483 27.8835 45.0833 27.8835 45.25C27.8835 45.36 27.9185 45.4533 27.9885 45.53C28.0618 45.6033 28.1568 45.6683 28.2735 45.725C28.3935 45.7817 28.5285 45.8333 28.6785 45.88C28.8285 45.9233 28.9801 45.9717 29.1335 46.025C29.2901 46.0783 29.4435 46.14 29.5935 46.21C29.7435 46.2767 29.8768 46.3633 29.9935 46.47C30.1135 46.5733 30.2085 46.6983 30.2785 46.845C30.3518 46.9917 30.3885 47.1683 30.3885 47.375C30.3885 47.6217 30.3435 47.85 30.2535 48.06C30.1668 48.2667 30.0368 48.4467 29.8635 48.6C29.6901 48.75 29.4751 48.8683 29.2185 48.955C28.9651 49.0383 28.6718 49.08 28.3385 49.08C28.1618 49.08 27.9885 49.0633 27.8185 49.03C27.6518 49 27.4901 48.9567 27.3335 48.9C27.1801 48.8433 27.0368 48.7767 26.9035 48.7C26.7735 48.6233 26.6585 48.54 26.5585 48.45L26.8435 47.98C26.8801 47.9233 26.9235 47.88 26.9735 47.85C27.0235 47.82 27.0868 47.805 27.1635 47.805C27.2401 47.805 27.3118 47.8267 27.3785 47.87C27.4485 47.9133 27.5285 47.96 27.6185 48.01C27.7085 48.06 27.8135 48.1067 27.9335 48.15C28.0568 48.1933 28.2118 48.215 28.3985 48.215C28.5451 48.215 28.6701 48.1983 28.7735 48.165C28.8801 48.1283 28.9668 48.0817 29.0335 48.025C29.1035 47.9683 29.1535 47.9033 29.1835 47.83C29.2168 47.7533 29.2335 47.675 29.2335 47.595C29.2335 47.475 29.1968 47.3767 29.1235 47.3C29.0535 47.2233 28.9585 47.1567 28.8385 47.1C28.7218 47.0433 28.5868 46.9933 28.4335 46.95C28.2835 46.9033 28.1285 46.8533 27.9685 46.8C27.8118 46.7467 27.6568 46.685 27.5035 46.615C27.3535 46.5417 27.2185 46.45 27.0985 46.34C26.9818 46.23 26.8868 46.095 26.8135 45.935C26.7435 45.775 26.7085 45.5817 26.7085 45.355C26.7085 45.145 26.7501 44.945 26.8335 44.755C26.9168 44.565 27.0385 44.4 27.1985 44.26C27.3618 44.1167 27.5635 44.0033 27.8035 43.92C28.0468 43.8333 28.3268 43.79 28.6435 43.79C28.9968 43.79 29.3185 43.8483 29.6085 43.965C29.8985 44.0817 30.1401 44.235 30.3335 44.425L30.0535 44.87ZM32.598 43.87V49H31.358V43.87H32.598ZM32.768 42.375C32.768 42.4817 32.7463 42.5817 32.703 42.675C32.6597 42.7683 32.6013 42.85 32.528 42.92C32.458 42.99 32.3747 43.0467 32.278 43.09C32.1813 43.13 32.078 43.15 31.968 43.15C31.8613 43.15 31.7597 43.13 31.663 43.09C31.5697 43.0467 31.488 42.99 31.418 42.92C31.348 42.85 31.2913 42.7683 31.248 42.675C31.208 42.5817 31.188 42.4817 31.188 42.375C31.188 42.265 31.208 42.1617 31.248 42.065C31.2913 41.9683 31.348 41.885 31.418 41.815C31.488 41.745 31.5697 41.69 31.663 41.65C31.7597 41.6067 31.8613 41.585 31.968 41.585C32.078 41.585 32.1813 41.6067 32.278 41.65C32.3747 41.69 32.458 41.745 32.528 41.815C32.6013 41.885 32.6597 41.9683 32.703 42.065C32.7463 42.1617 32.768 42.265 32.768 42.375ZM35.7321 46.31C35.8854 46.31 36.0187 46.29 36.1321 46.25C36.2454 46.2067 36.3387 46.1483 36.4121 46.075C36.4887 46.0017 36.5454 45.9133 36.5821 45.81C36.6221 45.7067 36.6421 45.5933 36.6421 45.47C36.6421 45.2167 36.5654 45.0167 36.4121 44.87C36.2621 44.72 36.0354 44.645 35.7321 44.645C35.4287 44.645 35.2004 44.72 35.0471 44.87C34.8971 45.0167 34.8221 45.2167 34.8221 45.47C34.8221 45.59 34.8404 45.7017 34.8771 45.805C34.9171 45.9083 34.9737 45.9983 35.0471 46.075C35.1237 46.1483 35.2187 46.2067 35.3321 46.25C35.4487 46.29 35.5821 46.31 35.7321 46.31ZM37.1271 49.23C37.1271 49.13 37.0971 49.0483 37.0371 48.985C36.9771 48.9217 36.8954 48.8733 36.7921 48.84C36.6887 48.8033 36.5671 48.7767 36.4271 48.76C36.2904 48.7433 36.1437 48.7317 35.9871 48.725C35.8337 48.715 35.6737 48.7067 35.5071 48.7C35.3437 48.6933 35.1837 48.68 35.0271 48.66C34.8904 48.7367 34.7787 48.8267 34.6921 48.93C34.6087 49.0333 34.5671 49.1533 34.5671 49.29C34.5671 49.38 34.5887 49.4633 34.6321 49.54C34.6787 49.62 34.7504 49.6883 34.8471 49.745C34.9471 49.8017 35.0754 49.845 35.2321 49.875C35.3887 49.9083 35.5804 49.925 35.8071 49.925C36.0371 49.925 36.2354 49.9067 36.4021 49.87C36.5687 49.8367 36.7054 49.7883 36.8121 49.725C36.9221 49.665 37.0021 49.5917 37.0521 49.505C37.1021 49.4217 37.1271 49.33 37.1271 49.23ZM38.3571 44.045V44.505C38.3571 44.6517 38.2687 44.7417 38.0921 44.775L37.6321 44.86C37.7021 45.0367 37.7371 45.23 37.7371 45.44C37.7371 45.6933 37.6854 45.9233 37.5821 46.13C37.4821 46.3333 37.3421 46.5067 37.1621 46.65C36.9821 46.7933 36.7687 46.905 36.5221 46.985C36.2787 47.0617 36.0154 47.1 35.7321 47.1C35.6321 47.1 35.5354 47.095 35.4421 47.085C35.3487 47.075 35.2571 47.0617 35.1671 47.045C35.0071 47.1417 34.9271 47.25 34.9271 47.37C34.9271 47.4733 34.9737 47.55 35.0671 47.6C35.1637 47.6467 35.2904 47.68 35.4471 47.7C35.6037 47.72 35.7821 47.7333 35.9821 47.74C36.1821 47.7433 36.3871 47.7533 36.5971 47.77C36.8071 47.7867 37.0121 47.8167 37.2121 47.86C37.4121 47.9 37.5904 47.965 37.7471 48.055C37.9037 48.145 38.0287 48.2683 38.1221 48.425C38.2187 48.5783 38.2671 48.7767 38.2671 49.02C38.2671 49.2467 38.2104 49.4667 38.0971 49.68C37.9871 49.8933 37.8254 50.0833 37.6121 50.25C37.4021 50.4167 37.1421 50.55 36.8321 50.65C36.5254 50.7533 36.1754 50.805 35.7821 50.805C35.3954 50.805 35.0587 50.7667 34.7721 50.69C34.4854 50.6167 34.2471 50.5167 34.0571 50.39C33.8671 50.2667 33.7254 50.1233 33.6321 49.96C33.5387 49.7967 33.4921 49.6267 33.4921 49.45C33.4921 49.21 33.5637 49.01 33.7071 48.85C33.8537 48.6867 34.0537 48.5567 34.3071 48.46C34.1704 48.39 34.0621 48.2967 33.9821 48.18C33.9021 48.0633 33.8621 47.91 33.8621 47.72C33.8621 47.6433 33.8754 47.565 33.9021 47.485C33.9321 47.4017 33.9737 47.32 34.0271 47.24C34.0837 47.16 34.1537 47.085 34.2371 47.015C34.3204 46.9417 34.4187 46.8767 34.5321 46.82C34.2721 46.68 34.0671 46.4933 33.9171 46.26C33.7704 46.0267 33.6971 45.7533 33.6971 45.44C33.6971 45.1867 33.7471 44.9583 33.8471 44.755C33.9504 44.5483 34.0921 44.3733 34.2721 44.23C34.4554 44.0833 34.6704 43.9717 34.9171 43.895C35.1671 43.8183 35.4387 43.78 35.7321 43.78C35.9521 43.78 36.1587 43.8033 36.3521 43.85C36.5454 43.8933 36.7221 43.9583 36.8821 44.045H38.3571ZM40.3753 44.42C40.5753 44.2333 40.7953 44.0817 41.0353 43.965C41.2753 43.8483 41.5569 43.79 41.8803 43.79C42.1603 43.79 42.4086 43.8383 42.6253 43.935C42.8419 44.0283 43.0219 44.1617 43.1653 44.335C43.3119 44.505 43.4219 44.71 43.4953 44.95C43.5719 45.1867 43.6103 45.4483 43.6103 45.735V49H42.3753V45.735C42.3753 45.4217 42.3036 45.18 42.1603 45.01C42.0169 44.8367 41.7986 44.75 41.5053 44.75C41.2919 44.75 41.0919 44.7983 40.9053 44.895C40.7186 44.9917 40.5419 45.1233 40.3753 45.29V49H39.1403V41.57H40.3753V44.42ZM46.4264 49.08C45.9798 49.08 45.6364 48.955 45.3964 48.705C45.1598 48.4517 45.0414 48.1033 45.0414 47.66V44.795H44.5164C44.4498 44.795 44.3931 44.7733 44.3464 44.73C44.2998 44.6867 44.2764 44.6217 44.2764 44.535V44.045L45.1014 43.91L45.3614 42.51C45.3781 42.4433 45.4098 42.3917 45.4564 42.355C45.5031 42.3183 45.5631 42.3 45.6364 42.3H46.2764V43.915H47.6464V44.795H46.2764V47.575C46.2764 47.735 46.3148 47.86 46.3914 47.95C46.4714 48.04 46.5798 48.085 46.7164 48.085C46.7931 48.085 46.8564 48.0767 46.9064 48.06C46.9598 48.04 47.0048 48.02 47.0414 48C47.0814 47.98 47.1164 47.9617 47.1464 47.945C47.1764 47.925 47.2064 47.915 47.2364 47.915C47.2731 47.915 47.3031 47.925 47.3264 47.945C47.3498 47.9617 47.3748 47.9883 47.4014 48.025L47.7714 48.625C47.5914 48.775 47.3848 48.8883 47.1514 48.965C46.9181 49.0417 46.6764 49.08 46.4264 49.08ZM51.5671 44.87C51.5338 44.9233 51.4988 44.9617 51.4621 44.985C51.4255 45.005 51.3788 45.015 51.3221 45.015C51.2621 45.015 51.1971 44.9983 51.1271 44.965C51.0605 44.9317 50.9821 44.895 50.8921 44.855C50.8021 44.8117 50.6988 44.7733 50.5821 44.74C50.4688 44.7067 50.3338 44.69 50.1771 44.69C49.9338 44.69 49.7421 44.7417 49.6021 44.845C49.4655 44.9483 49.3971 45.0833 49.3971 45.25C49.3971 45.36 49.4321 45.4533 49.5021 45.53C49.5755 45.6033 49.6705 45.6683 49.7871 45.725C49.9071 45.7817 50.0421 45.8333 50.1921 45.88C50.3421 45.9233 50.4938 45.9717 50.6471 46.025C50.8038 46.0783 50.9571 46.14 51.1071 46.21C51.2571 46.2767 51.3905 46.3633 51.5071 46.47C51.6271 46.5733 51.7221 46.6983 51.7921 46.845C51.8655 46.9917 51.9021 47.1683 51.9021 47.375C51.9021 47.6217 51.8571 47.85 51.7671 48.06C51.6805 48.2667 51.5505 48.4467 51.3771 48.6C51.2038 48.75 50.9888 48.8683 50.7321 48.955C50.4788 49.0383 50.1855 49.08 49.8521 49.08C49.6755 49.08 49.5021 49.0633 49.3321 49.03C49.1655 49 49.0038 48.9567 48.8471 48.9C48.6938 48.8433 48.5505 48.7767 48.4171 48.7C48.2871 48.6233 48.1721 48.54 48.0721 48.45L48.3571 47.98C48.3938 47.9233 48.4371 47.88 48.4871 47.85C48.5371 47.82 48.6005 47.805 48.6771 47.805C48.7538 47.805 48.8255 47.8267 48.8921 47.87C48.9621 47.9133 49.0421 47.96 49.1321 48.01C49.2221 48.06 49.3271 48.1067 49.4471 48.15C49.5705 48.1933 49.7255 48.215 49.9121 48.215C50.0588 48.215 50.1838 48.1983 50.2871 48.165C50.3938 48.1283 50.4805 48.0817 50.5471 48.025C50.6171 47.9683 50.6671 47.9033 50.6971 47.83C50.7305 47.7533 50.7471 47.675 50.7471 47.595C50.7471 47.475 50.7105 47.3767 50.6371 47.3C50.5671 47.2233 50.4721 47.1567 50.3521 47.1C50.2355 47.0433 50.1005 46.9933 49.9471 46.95C49.7971 46.9033 49.6421 46.8533 49.4821 46.8C49.3255 46.7467 49.1705 46.685 49.0171 46.615C48.8671 46.5417 48.7321 46.45 48.6121 46.34C48.4955 46.23 48.4005 46.095 48.3271 45.935C48.2571 45.775 48.2221 45.5817 48.2221 45.355C48.2221 45.145 48.2638 44.945 48.3471 44.755C48.4305 44.565 48.5521 44.4 48.7121 44.26C48.8755 44.1167 49.0771 44.0033 49.3171 43.92C49.5605 43.8333 49.8405 43.79 50.1571 43.79C50.5105 43.79 50.8321 43.8483 51.1221 43.965C51.4121 44.0817 51.6538 44.235 51.8471 44.425L51.5671 44.87Z" fill="#223647"/>
<path d="M47 35V20" stroke="#808E99" stroke-width="2.5" stroke-linecap="round" stroke-linejoin="round"/>
<path d="M35 35V11" stroke="#808E99" stroke-width="2.5" stroke-linecap="round" stroke-linejoin="round"/>
<path d="M41 35L41 24" stroke="#808E99" stroke-width="2.5" stroke-linecap="round" stroke-linejoin="round"/>
<path d="M29 35L29 17" stroke="#808E99" stroke-width="2.5" stroke-linecap="round" stroke-linejoin="round"/>
<path d="M23 35V26" stroke="#808E99" stroke-width="2.5" stroke-linecap="round" stroke-linejoin="round"/>
</svg>
