<svg width="70" height="60" viewBox="0 0 70 60" fill="none" xmlns="http://www.w3.org/2000/svg">
<path d="M29.362 49H28.012V41.77H29.362V49ZM33.3308 45.405C33.5774 45.405 33.7924 45.375 33.9758 45.315C34.1591 45.2517 34.3108 45.1633 34.4308 45.05C34.5541 44.9333 34.6458 44.7933 34.7058 44.63C34.7658 44.4633 34.7958 44.2783 34.7958 44.075C34.7958 43.8817 34.7658 43.7067 34.7058 43.55C34.6458 43.3933 34.5558 43.26 34.4358 43.15C34.3158 43.04 34.1641 42.9567 33.9808 42.9C33.7974 42.84 33.5808 42.81 33.3308 42.81H32.3258V45.405H33.3308ZM33.3308 41.77C33.8141 41.77 34.2324 41.8267 34.5858 41.94C34.9391 42.0533 35.2308 42.2117 35.4608 42.415C35.6908 42.6183 35.8608 42.8617 35.9708 43.145C36.0841 43.4283 36.1408 43.7383 36.1408 44.075C36.1408 44.425 36.0824 44.7467 35.9658 45.04C35.8491 45.33 35.6741 45.58 35.4408 45.79C35.2074 46 34.9141 46.1633 34.5608 46.28C34.2108 46.3967 33.8008 46.455 33.3308 46.455H32.3258V49H30.9808V41.77H33.3308ZM39.3572 45.21C39.6105 45.21 39.8305 45.1783 40.0172 45.115C40.2072 45.0517 40.3622 44.965 40.4822 44.855C40.6055 44.7417 40.6972 44.6083 40.7572 44.455C40.8172 44.3017 40.8472 44.1333 40.8472 43.95C40.8472 43.5833 40.7255 43.3017 40.4822 43.105C40.2422 42.9083 39.8739 42.81 39.3772 42.81H38.5172V45.21H39.3572ZM42.8172 49H41.6022C41.3722 49 41.2055 48.91 41.1022 48.73L39.5822 46.415C39.5255 46.3283 39.4622 46.2667 39.3922 46.23C39.3255 46.1933 39.2255 46.175 39.0922 46.175H38.5172V49H37.1722V41.77H39.3772C39.8672 41.77 40.2872 41.8217 40.6372 41.925C40.9905 42.025 41.2789 42.1667 41.5022 42.35C41.7289 42.5333 41.8955 42.7533 42.0022 43.01C42.1089 43.2633 42.1622 43.5433 42.1622 43.85C42.1622 44.0933 42.1255 44.3233 42.0522 44.54C41.9822 44.7567 41.8789 44.9533 41.7422 45.13C41.6089 45.3067 41.4422 45.4617 41.2422 45.595C41.0455 45.7283 40.8205 45.8333 40.5672 45.91C40.6539 45.96 40.7339 46.02 40.8072 46.09C40.8805 46.1567 40.9472 46.2367 41.0072 46.33L42.8172 49Z" fill="#223647"/>
<circle cx="35" cy="22" r="12" stroke="#808E99" stroke-width="2.5" stroke-linecap="round" stroke-linejoin="round"/>
<path d="M34.8125 22.01C35.1575 22.01 35.45 21.9675 35.69 21.8825C35.935 21.7925 36.135 21.67 36.29 21.515C36.445 21.36 36.5575 21.18 36.6275 20.975C36.6975 20.765 36.7325 20.54 36.7325 20.3C36.7325 19.82 36.575 19.445 36.26 19.175C35.95 18.905 35.4675 18.77 34.8125 18.77H33.7925V22.01H34.8125ZM40.1975 27.8H37.9025C37.4775 27.8 37.1725 27.64 36.9875 27.32L35.1725 24.1475C35.0875 24.0125 34.9925 23.915 34.8875 23.855C34.7825 23.79 34.6325 23.7575 34.4375 23.7575H33.7925V27.8H31.2575V16.8725H34.8125C35.6025 16.8725 36.275 16.955 36.83 17.12C37.39 17.28 37.845 17.505 38.195 17.795C38.55 18.085 38.8075 18.4275 38.9675 18.8225C39.1275 19.2175 39.2075 19.6475 39.2075 20.1125C39.2075 20.4675 39.16 20.8025 39.065 21.1175C38.97 21.4325 38.83 21.725 38.645 21.995C38.46 22.26 38.23 22.4975 37.955 22.7075C37.685 22.9175 37.3725 23.09 37.0175 23.225C37.1825 23.31 37.3375 23.4175 37.4825 23.5475C37.6275 23.6725 37.7575 23.8225 37.8725 23.9975L40.1975 27.8Z" fill="#808E99"/>
</svg>
