<svg width="70" height="60" viewBox="0 0 70 60" fill="none" xmlns="http://www.w3.org/2000/svg">
<path d="M18.8974 47.89V49H14.6624V41.77H16.0074V47.89H18.8974ZM20.9427 43.87V49H19.7027V43.87H20.9427ZM21.1127 42.375C21.1127 42.4817 21.0911 42.5817 21.0477 42.675C21.0044 42.7683 20.9461 42.85 20.8727 42.92C20.8027 42.99 20.7194 43.0467 20.6227 43.09C20.5261 43.13 20.4227 43.15 20.3127 43.15C20.2061 43.15 20.1044 43.13 20.0077 43.09C19.9144 43.0467 19.8327 42.99 19.7627 42.92C19.6927 42.85 19.6361 42.7683 19.5927 42.675C19.5527 42.5817 19.5327 42.4817 19.5327 42.375C19.5327 42.265 19.5527 42.1617 19.5927 42.065C19.6361 41.9683 19.6927 41.885 19.7627 41.815C19.8327 41.745 19.9144 41.69 20.0077 41.65C20.1044 41.6067 20.2061 41.585 20.3127 41.585C20.4227 41.585 20.5261 41.6067 20.6227 41.65C20.7194 41.69 20.8027 41.745 20.8727 41.815C20.9461 41.885 21.0044 41.9683 21.0477 42.065C21.0911 42.1617 21.1127 42.265 21.1127 42.375ZM27.3768 49H26.1418V44.795H23.7618V47.575C23.7618 47.735 23.8001 47.86 23.8768 47.95C23.9568 48.04 24.0651 48.085 24.2018 48.085C24.2785 48.085 24.3418 48.0767 24.3918 48.06C24.4451 48.04 24.4901 48.02 24.5268 48C24.5668 47.98 24.6018 47.9617 24.6318 47.945C24.6618 47.925 24.6918 47.915 24.7218 47.915C24.7585 47.915 24.7885 47.925 24.8118 47.945C24.8351 47.9617 24.8601 47.9883 24.8868 48.025L25.2568 48.625C25.0768 48.775 24.8701 48.8883 24.6368 48.965C24.4035 49.0417 24.1618 49.08 23.9118 49.08C23.4651 49.08 23.1218 48.955 22.8818 48.705C22.6451 48.4517 22.5268 48.1033 22.5268 47.66V44.795H22.0018C21.9351 44.795 21.8785 44.7733 21.8318 44.73C21.7851 44.6867 21.7618 44.6217 21.7618 44.535V44.045L22.5868 43.905L22.8468 42.51C22.8635 42.4433 22.8951 42.3917 22.9418 42.355C22.9885 42.3183 23.0485 42.3 23.1218 42.3H23.7618V43.915H27.3768V49ZM27.5918 42.355C27.5918 42.4617 27.5701 42.5633 27.5268 42.66C27.4835 42.7533 27.4251 42.835 27.3518 42.905C27.2818 42.975 27.1968 43.0317 27.0968 43.075C27.0001 43.115 26.8968 43.135 26.7868 43.135C26.6801 43.135 26.5801 43.115 26.4868 43.075C26.3935 43.0317 26.3118 42.975 26.2418 42.905C26.1718 42.835 26.1151 42.7533 26.0718 42.66C26.0318 42.5633 26.0118 42.4617 26.0118 42.355C26.0118 42.245 26.0318 42.1433 26.0718 42.05C26.1151 41.9533 26.1718 41.87 26.2418 41.8C26.3118 41.7267 26.3935 41.67 26.4868 41.63C26.5801 41.5867 26.6801 41.565 26.7868 41.565C26.8968 41.565 27.0001 41.5867 27.0968 41.63C27.1968 41.67 27.2818 41.7267 27.3518 41.8C27.4251 41.87 27.4835 41.9533 27.5268 42.05C27.5701 42.1433 27.5918 42.245 27.5918 42.355ZM30.5123 46.31C30.6657 46.31 30.799 46.29 30.9123 46.25C31.0257 46.2067 31.119 46.1483 31.1923 46.075C31.269 46.0017 31.3257 45.9133 31.3623 45.81C31.4023 45.7067 31.4223 45.5933 31.4223 45.47C31.4223 45.2167 31.3457 45.0167 31.1923 44.87C31.0423 44.72 30.8157 44.645 30.5123 44.645C30.209 44.645 29.9807 44.72 29.8273 44.87C29.6773 45.0167 29.6023 45.2167 29.6023 45.47C29.6023 45.59 29.6207 45.7017 29.6573 45.805C29.6973 45.9083 29.754 45.9983 29.8273 46.075C29.904 46.1483 29.999 46.2067 30.1123 46.25C30.229 46.29 30.3623 46.31 30.5123 46.31ZM31.9073 49.23C31.9073 49.13 31.8773 49.0483 31.8173 48.985C31.7573 48.9217 31.6757 48.8733 31.5723 48.84C31.469 48.8033 31.3473 48.7767 31.2073 48.76C31.0707 48.7433 30.924 48.7317 30.7673 48.725C30.614 48.715 30.454 48.7067 30.2873 48.7C30.124 48.6933 29.964 48.68 29.8073 48.66C29.6707 48.7367 29.559 48.8267 29.4723 48.93C29.389 49.0333 29.3473 49.1533 29.3473 49.29C29.3473 49.38 29.369 49.4633 29.4123 49.54C29.459 49.62 29.5307 49.6883 29.6273 49.745C29.7273 49.8017 29.8557 49.845 30.0123 49.875C30.169 49.9083 30.3607 49.925 30.5873 49.925C30.8173 49.925 31.0157 49.9067 31.1823 49.87C31.349 49.8367 31.4857 49.7883 31.5923 49.725C31.7023 49.665 31.7823 49.5917 31.8323 49.505C31.8823 49.4217 31.9073 49.33 31.9073 49.23ZM33.1373 44.045V44.505C33.1373 44.6517 33.049 44.7417 32.8723 44.775L32.4123 44.86C32.4823 45.0367 32.5173 45.23 32.5173 45.44C32.5173 45.6933 32.4657 45.9233 32.3623 46.13C32.2623 46.3333 32.1223 46.5067 31.9423 46.65C31.7623 46.7933 31.549 46.905 31.3023 46.985C31.059 47.0617 30.7957 47.1 30.5123 47.1C30.4123 47.1 30.3157 47.095 30.2223 47.085C30.129 47.075 30.0373 47.0617 29.9473 47.045C29.7873 47.1417 29.7073 47.25 29.7073 47.37C29.7073 47.4733 29.754 47.55 29.8473 47.6C29.944 47.6467 30.0707 47.68 30.2273 47.7C30.384 47.72 30.5623 47.7333 30.7623 47.74C30.9623 47.7433 31.1673 47.7533 31.3773 47.77C31.5873 47.7867 31.7923 47.8167 31.9923 47.86C32.1923 47.9 32.3707 47.965 32.5273 48.055C32.684 48.145 32.809 48.2683 32.9023 48.425C32.999 48.5783 33.0473 48.7767 33.0473 49.02C33.0473 49.2467 32.9907 49.4667 32.8773 49.68C32.7673 49.8933 32.6057 50.0833 32.3923 50.25C32.1823 50.4167 31.9223 50.55 31.6123 50.65C31.3057 50.7533 30.9557 50.805 30.5623 50.805C30.1757 50.805 29.839 50.7667 29.5523 50.69C29.2657 50.6167 29.0273 50.5167 28.8373 50.39C28.6473 50.2667 28.5057 50.1233 28.4123 49.96C28.319 49.7967 28.2723 49.6267 28.2723 49.45C28.2723 49.21 28.344 49.01 28.4873 48.85C28.634 48.6867 28.834 48.5567 29.0873 48.46C28.9507 48.39 28.8423 48.2967 28.7623 48.18C28.6823 48.0633 28.6423 47.91 28.6423 47.72C28.6423 47.6433 28.6557 47.565 28.6823 47.485C28.7123 47.4017 28.754 47.32 28.8073 47.24C28.864 47.16 28.934 47.085 29.0173 47.015C29.1007 46.9417 29.199 46.8767 29.3123 46.82C29.0523 46.68 28.8473 46.4933 28.6973 46.26C28.5507 46.0267 28.4773 45.7533 28.4773 45.44C28.4773 45.1867 28.5273 44.9583 28.6273 44.755C28.7307 44.5483 28.8723 44.3733 29.0523 44.23C29.2357 44.0833 29.4507 43.9717 29.6973 43.895C29.9473 43.8183 30.219 43.78 30.5123 43.78C30.7323 43.78 30.939 43.8033 31.1323 43.85C31.3257 43.8933 31.5023 43.9583 31.6623 44.045H33.1373ZM36.6305 46.81C36.2739 46.8267 35.9739 46.8583 35.7305 46.905C35.4872 46.9483 35.2922 47.005 35.1455 47.075C34.9989 47.145 34.8939 47.2267 34.8305 47.32C34.7672 47.4133 34.7355 47.515 34.7355 47.625C34.7355 47.8417 34.7989 47.9967 34.9255 48.09C35.0555 48.1833 35.2239 48.23 35.4305 48.23C35.6839 48.23 35.9022 48.185 36.0855 48.095C36.2722 48.0017 36.4539 47.8617 36.6305 47.675V46.81ZM33.8005 44.585C34.3905 44.045 35.1005 43.775 35.9305 43.775C36.2305 43.775 36.4989 43.825 36.7355 43.925C36.9722 44.0217 37.1722 44.1583 37.3355 44.335C37.4989 44.5083 37.6222 44.7167 37.7055 44.96C37.7922 45.2033 37.8355 45.47 37.8355 45.76V49H37.2755C37.1589 49 37.0689 48.9833 37.0055 48.95C36.9422 48.9133 36.8922 48.8417 36.8555 48.735L36.7455 48.365C36.6155 48.4817 36.4889 48.585 36.3655 48.675C36.2422 48.7617 36.1139 48.835 35.9805 48.895C35.8472 48.955 35.7039 49 35.5505 49.03C35.4005 49.0633 35.2339 49.08 35.0505 49.08C34.8339 49.08 34.6339 49.0517 34.4505 48.995C34.2672 48.935 34.1089 48.8467 33.9755 48.73C33.8422 48.6133 33.7389 48.4683 33.6655 48.295C33.5922 48.1217 33.5555 47.92 33.5555 47.69C33.5555 47.56 33.5772 47.4317 33.6205 47.305C33.6639 47.175 33.7339 47.0517 33.8305 46.935C33.9305 46.8183 34.0589 46.7083 34.2155 46.605C34.3722 46.5017 34.5639 46.4117 34.7905 46.335C35.0205 46.2583 35.2872 46.1967 35.5905 46.15C35.8939 46.1 36.2405 46.07 36.6305 46.06V45.76C36.6305 45.4167 36.5572 45.1633 36.4105 45C36.2639 44.8333 36.0522 44.75 35.7755 44.75C35.5755 44.75 35.4089 44.7733 35.2755 44.82C35.1455 44.8667 35.0305 44.92 34.9305 44.98C34.8305 45.0367 34.7389 45.0883 34.6555 45.135C34.5755 45.1817 34.4855 45.205 34.3855 45.205C34.2989 45.205 34.2255 45.1833 34.1655 45.14C34.1055 45.0933 34.0572 45.04 34.0205 44.98L33.8005 44.585ZM44.1053 49H42.8703V44.795H40.4903V47.575C40.4903 47.735 40.5286 47.86 40.6053 47.95C40.6853 48.04 40.7936 48.085 40.9303 48.085C41.007 48.085 41.0703 48.0767 41.1203 48.06C41.1736 48.04 41.2186 48.02 41.2553 48C41.2953 47.98 41.3303 47.9617 41.3603 47.945C41.3903 47.925 41.4203 47.915 41.4503 47.915C41.487 47.915 41.517 47.925 41.5403 47.945C41.5636 47.9617 41.5886 47.9883 41.6153 48.025L41.9853 48.625C41.8053 48.775 41.5986 48.8883 41.3653 48.965C41.132 49.0417 40.8903 49.08 40.6403 49.08C40.1936 49.08 39.8503 48.955 39.6103 48.705C39.3736 48.4517 39.2553 48.1033 39.2553 47.66V44.795H38.7303C38.6636 44.795 38.607 44.7733 38.5603 44.73C38.5136 44.6867 38.4903 44.6217 38.4903 44.535V44.045L39.3153 43.905L39.5753 42.51C39.592 42.4433 39.6236 42.3917 39.6703 42.355C39.717 42.3183 39.777 42.3 39.8503 42.3H40.4903V43.915H44.1053V49ZM44.3203 42.355C44.3203 42.4617 44.2986 42.5633 44.2553 42.66C44.212 42.7533 44.1536 42.835 44.0803 42.905C44.0103 42.975 43.9253 43.0317 43.8253 43.075C43.7286 43.115 43.6253 43.135 43.5153 43.135C43.4086 43.135 43.3086 43.115 43.2153 43.075C43.122 43.0317 43.0403 42.975 42.9703 42.905C42.9003 42.835 42.8436 42.7533 42.8003 42.66C42.7603 42.5633 42.7403 42.4617 42.7403 42.355C42.7403 42.245 42.7603 42.1433 42.8003 42.05C42.8436 41.9533 42.9003 41.87 42.9703 41.8C43.0403 41.7267 43.122 41.67 43.2153 41.63C43.3086 41.5867 43.4086 41.565 43.5153 41.565C43.6253 41.565 43.7286 41.5867 43.8253 41.63C43.9253 41.67 44.0103 41.7267 44.0803 41.8C44.1536 41.87 44.212 41.9533 44.2553 42.05C44.2986 42.1433 44.3203 42.245 44.3203 42.355ZM47.6359 43.79C48.0159 43.79 48.3609 43.8517 48.6709 43.975C48.9842 44.0983 49.2509 44.2733 49.4709 44.5C49.6942 44.7267 49.8659 45.0033 49.9859 45.33C50.1059 45.6567 50.1659 46.0217 50.1659 46.425C50.1659 46.8317 50.1059 47.1983 49.9859 47.525C49.8659 47.8517 49.6942 48.13 49.4709 48.36C49.2509 48.59 48.9842 48.7667 48.6709 48.89C48.3609 49.0133 48.0159 49.075 47.6359 49.075C47.2525 49.075 46.9042 49.0133 46.5909 48.89C46.2775 48.7667 46.0092 48.59 45.7859 48.36C45.5659 48.13 45.3942 47.8517 45.2709 47.525C45.1509 47.1983 45.0909 46.8317 45.0909 46.425C45.0909 46.0217 45.1509 45.6567 45.2709 45.33C45.3942 45.0033 45.5659 44.7267 45.7859 44.5C46.0092 44.2733 46.2775 44.0983 46.5909 43.975C46.9042 43.8517 47.2525 43.79 47.6359 43.79ZM47.6359 48.125C48.0625 48.125 48.3775 47.9817 48.5809 47.695C48.7875 47.4083 48.8909 46.9883 48.8909 46.435C48.8909 45.8817 48.7875 45.46 48.5809 45.17C48.3775 44.88 48.0625 44.735 47.6359 44.735C47.2025 44.735 46.8809 44.8817 46.6709 45.175C46.4642 45.465 46.3609 45.885 46.3609 46.435C46.3609 46.985 46.4642 47.405 46.6709 47.695C46.8809 47.9817 47.2025 48.125 47.6359 48.125ZM52.263 44.5C52.3664 44.3967 52.4747 44.3017 52.588 44.215C52.7047 44.125 52.8264 44.05 52.953 43.99C53.083 43.9267 53.2214 43.8783 53.368 43.845C53.5147 43.8083 53.6747 43.79 53.848 43.79C54.128 43.79 54.3764 43.8383 54.593 43.935C54.8097 44.0283 54.9897 44.1617 55.133 44.335C55.2797 44.505 55.3897 44.71 55.463 44.95C55.5397 45.1867 55.578 45.4483 55.578 45.735V49H54.343V45.735C54.343 45.4217 54.2714 45.18 54.128 45.01C53.9847 44.8367 53.7664 44.75 53.473 44.75C53.2597 44.75 53.0597 44.7983 52.873 44.895C52.6864 44.9917 52.5097 45.1233 52.343 45.29V49H51.108V43.87H51.863C52.023 43.87 52.128 43.945 52.178 44.095L52.263 44.5Z" fill="#223647"/>
<path d="M46.6395 23.1758L34.8586 17.9618C34.7882 17.9304 34.7127 17.914 34.6364 17.9138C34.5601 17.9136 34.4845 17.9295 34.414 17.9606C34.3435 17.9916 34.2794 18.0373 34.2254 18.0949C34.1714 18.1525 34.1286 18.2209 34.0994 18.2962L33.8155 19.0331L32.6913 18.5315L33.3809 16.81L33.885 17.033C33.9542 17.0664 34.0293 17.0833 34.1052 17.0825C34.2206 17.0831 34.3336 17.0469 34.4296 16.9785C34.5256 16.9101 34.6003 16.8126 34.6442 16.6986L35.6409 14.073C35.6704 13.9975 35.6855 13.9165 35.6855 13.8346C35.6855 13.7528 35.6704 13.6717 35.6409 13.5962C35.5795 13.4467 35.4678 13.3274 35.3279 13.2618L28.0554 10.048C27.985 10.0165 27.9095 10.0002 27.8333 10C27.757 9.99978 27.6814 10.0157 27.6109 10.0467C27.5403 10.0778 27.4762 10.1234 27.4223 10.181C27.3683 10.2386 27.3255 10.3071 27.2963 10.3824L26.2822 13.0141C26.2245 13.1653 26.225 13.3347 26.2836 13.4854C26.3423 13.6362 26.4542 13.7561 26.5951 13.8191L27.0993 14.0421L25.326 18.6306L24.8161 18.4077C24.6746 18.346 24.5161 18.3466 24.375 18.4092C24.234 18.4718 24.1217 18.5915 24.0628 18.7421L23.0429 21.38C22.9852 21.5312 22.9857 21.7005 23.0443 21.8513C23.1029 22.0021 23.2149 22.122 23.3558 22.185L30.6225 25.3988C30.6947 25.4282 30.7713 25.4429 30.8485 25.4422C30.9239 25.4432 30.9987 25.4284 31.0687 25.3988C31.2103 25.336 31.3229 25.2158 31.3817 25.0644L32.4015 22.4327C32.431 22.3575 32.4463 22.2768 32.4465 22.1953C32.4467 22.1138 32.4318 22.033 32.4027 21.9577C32.3737 21.8823 32.3309 21.8138 32.277 21.7561C32.2231 21.6984 32.1591 21.6527 32.0886 21.6215L31.5787 21.38L32.2219 19.6771L33.3461 20.1725L33.0622 20.9094C33.0042 21.0601 33.0042 21.2292 33.0622 21.38C33.0906 21.4561 33.133 21.5253 33.1867 21.5838C33.2404 21.6423 33.3044 21.6887 33.3751 21.7206L45.185 26.9531C45.255 26.9837 45.3296 27.0005 45.4052 27.0026C45.5206 27.0033 45.6335 26.9671 45.7295 26.8987C45.8255 26.8303 45.9002 26.7328 45.9441 26.6187L46.9524 24.0056C46.9838 23.9316 47 23.8514 47 23.7702C47 23.6891 46.9838 23.6089 46.9524 23.5349C46.9259 23.4554 46.8845 23.3826 46.8307 23.3208C46.7768 23.2591 46.7118 23.2097 46.6395 23.1758ZM28.1655 11.4289L34.366 14.1721L33.7865 15.6521L27.586 12.9151L28.1655 11.4289ZM30.5472 24.0179L24.3351 21.2747L24.9146 19.7886L31.1151 22.5318L30.5472 24.0179ZM28.1655 14.5189L32.2799 16.3394L30.4835 20.928L26.4271 19.1074L28.1655 14.5189ZM45.0865 25.5474L34.3776 20.8103L34.9571 19.3427L45.6659 24.0799L45.0865 25.5474ZM42.9829 29.9812H29C28.8463 29.9812 28.6989 30.0464 28.5902 30.1625C28.4815 30.2787 28.4205 30.4362 28.4205 30.6004V32.7615H27.2963C27.1426 32.7615 26.9952 32.8268 26.8865 32.9429C26.7779 33.059 26.7168 33.2165 26.7168 33.3808C26.7168 33.545 26.7779 33.7025 26.8865 33.8186C26.9952 33.9348 27.1426 34 27.2963 34H44.6808C44.8345 34 44.9819 33.9348 45.0906 33.8186C45.1993 33.7025 45.2603 33.545 45.2603 33.3808C45.2603 33.2165 45.1993 33.059 45.0906 32.9429C44.9819 32.8268 44.8345 32.7615 44.6808 32.7615H43.5624V30.6004C43.5624 30.4362 43.5014 30.2787 43.3927 30.1625C43.284 30.0464 43.1366 29.9812 42.9829 29.9812ZM29.5795 32.7615V31.2196H42.4034V32.7615H29.5795Z" fill="#808E99" stroke="#808E99" stroke-width="0.7"/>
</svg>
