<svg width="70" height="60" viewBox="0 0 70 60" fill="none" xmlns="http://www.w3.org/2000/svg">
<path d="M31.6626 41.77V49H30.4776V44.33C30.4776 44.1433 30.4876 43.9417 30.5076 43.725L28.3226 47.83C28.2192 48.0267 28.0609 48.125 27.8476 48.125H27.6576C27.4442 48.125 27.2859 48.0267 27.1826 47.83L24.9726 43.71C24.9826 43.82 24.9909 43.9283 24.9976 44.035C25.0042 44.1417 25.0076 44.24 25.0076 44.33V49H23.8226V41.77H24.8376C24.8976 41.77 24.9492 41.7717 24.9926 41.775C25.0359 41.7783 25.0742 41.7867 25.1076 41.8C25.1442 41.8133 25.1759 41.835 25.2026 41.865C25.2326 41.895 25.2609 41.935 25.2876 41.985L27.4526 46C27.5092 46.1067 27.5609 46.2167 27.6076 46.33C27.6576 46.4433 27.7059 46.56 27.7526 46.68C27.7992 46.5567 27.8476 46.4383 27.8976 46.325C27.9476 46.2083 28.0009 46.0967 28.0576 45.99L30.1926 41.985C30.2192 41.935 30.2476 41.895 30.2776 41.865C30.3076 41.835 30.3392 41.8133 30.3726 41.8C30.4092 41.7867 30.4492 41.7783 30.4926 41.775C30.5359 41.7717 30.5876 41.77 30.6476 41.77H31.6626ZM35.1945 43.79C35.5745 43.79 35.9195 43.8517 36.2295 43.975C36.5428 44.0983 36.8095 44.2733 37.0295 44.5C37.2528 44.7267 37.4245 45.0033 37.5445 45.33C37.6645 45.6567 37.7245 46.0217 37.7245 46.425C37.7245 46.8317 37.6645 47.1983 37.5445 47.525C37.4245 47.8517 37.2528 48.13 37.0295 48.36C36.8095 48.59 36.5428 48.7667 36.2295 48.89C35.9195 49.0133 35.5745 49.075 35.1945 49.075C34.8111 49.075 34.4628 49.0133 34.1495 48.89C33.8361 48.7667 33.5678 48.59 33.3445 48.36C33.1245 48.13 32.9528 47.8517 32.8295 47.525C32.7095 47.1983 32.6495 46.8317 32.6495 46.425C32.6495 46.0217 32.7095 45.6567 32.8295 45.33C32.9528 45.0033 33.1245 44.7267 33.3445 44.5C33.5678 44.2733 33.8361 44.0983 34.1495 43.975C34.4628 43.8517 34.8111 43.79 35.1945 43.79ZM35.1945 48.125C35.6211 48.125 35.9361 47.9817 36.1395 47.695C36.3461 47.4083 36.4495 46.9883 36.4495 46.435C36.4495 45.8817 36.3461 45.46 36.1395 45.17C35.9361 44.88 35.6211 44.735 35.1945 44.735C34.7611 44.735 34.4395 44.8817 34.2295 45.175C34.0228 45.465 33.9195 45.885 33.9195 46.435C33.9195 46.985 34.0228 47.405 34.2295 47.695C34.4395 47.9817 34.7611 48.125 35.1945 48.125ZM39.8316 44.76C39.9916 44.4533 40.1816 44.2133 40.4016 44.04C40.6216 43.8633 40.8816 43.775 41.1816 43.775C41.4183 43.775 41.6083 43.8267 41.7516 43.93L41.6716 44.855C41.655 44.915 41.63 44.9583 41.5966 44.985C41.5666 45.0083 41.525 45.02 41.4716 45.02C41.4216 45.02 41.3466 45.0117 41.2466 44.995C41.15 44.9783 41.055 44.97 40.9616 44.97C40.825 44.97 40.7033 44.99 40.5966 45.03C40.49 45.07 40.3933 45.1283 40.3066 45.205C40.2233 45.2783 40.1483 45.3683 40.0816 45.475C40.0183 45.5817 39.9583 45.7033 39.9016 45.84V49H38.6666V43.87H39.3916C39.5183 43.87 39.6066 43.8933 39.6566 43.94C39.7066 43.9833 39.74 44.0633 39.7566 44.18L39.8316 44.76ZM45.5556 45.845C45.5556 45.685 45.5323 45.535 45.4856 45.395C45.4423 45.2517 45.3756 45.1267 45.2856 45.02C45.1956 44.9133 45.0806 44.83 44.9406 44.77C44.804 44.7067 44.644 44.675 44.4606 44.675C44.104 44.675 43.8223 44.7767 43.6156 44.98C43.4123 45.1833 43.2823 45.4717 43.2256 45.845H45.5556ZM43.2006 46.59C43.2206 46.8533 43.2673 47.0817 43.3406 47.275C43.414 47.465 43.5106 47.6233 43.6306 47.75C43.7506 47.8733 43.8923 47.9667 44.0556 48.03C44.2223 48.09 44.4056 48.12 44.6056 48.12C44.8056 48.12 44.9773 48.0967 45.1206 48.05C45.2673 48.0033 45.394 47.9517 45.5006 47.895C45.6106 47.8383 45.7056 47.7867 45.7856 47.74C45.869 47.6933 45.949 47.67 46.0256 47.67C46.129 47.67 46.2056 47.7083 46.2556 47.785L46.6106 48.235C46.474 48.395 46.3206 48.53 46.1506 48.64C45.9806 48.7467 45.8023 48.8333 45.6156 48.9C45.4323 48.9633 45.244 49.0083 45.0506 49.035C44.8606 49.0617 44.6756 49.075 44.4956 49.075C44.139 49.075 43.8073 49.0167 43.5006 48.9C43.194 48.78 42.9273 48.605 42.7006 48.375C42.474 48.1417 42.2956 47.855 42.1656 47.515C42.0356 47.1717 41.9706 46.775 41.9706 46.325C41.9706 45.975 42.0273 45.6467 42.1406 45.34C42.254 45.03 42.4156 44.7617 42.6256 44.535C42.839 44.305 43.0973 44.1233 43.4006 43.99C43.7073 43.8567 44.0523 43.79 44.4356 43.79C44.759 43.79 45.0573 43.8417 45.3306 43.945C45.604 44.0483 45.839 44.2 46.0356 44.4C46.2323 44.5967 46.3856 44.84 46.4956 45.13C46.609 45.4167 46.6656 45.745 46.6656 46.115C46.6656 46.3017 46.6456 46.4283 46.6056 46.495C46.5656 46.5583 46.489 46.59 46.3756 46.59H43.2006Z" fill="#223647"/>
<mask id="path-2-inside-1_140_17868" fill="white">
<rect x="23" y="10" width="10.2857" height="10.2857" rx="2"/>
</mask>
<rect x="23" y="10" width="10.2857" height="10.2857" rx="2" stroke="#808E99" stroke-width="5" mask="url(#path-2-inside-1_140_17868)"/>
<mask id="path-3-inside-2_140_17868" fill="white">
<rect x="36.7142" y="10" width="10.2857" height="10.2857" rx="2"/>
</mask>
<rect x="36.7142" y="10" width="10.2857" height="10.2857" rx="2" stroke="#808E99" stroke-width="5" mask="url(#path-3-inside-2_140_17868)"/>
<mask id="path-4-inside-3_140_17868" fill="white">
<rect x="36.7142" y="23.7142" width="10.2857" height="10.2857" rx="2"/>
</mask>
<rect x="36.7142" y="23.7142" width="10.2857" height="10.2857" rx="2" stroke="#808E99" stroke-width="5" mask="url(#path-4-inside-3_140_17868)"/>
<mask id="path-5-inside-4_140_17868" fill="white">
<rect x="23" y="23.7142" width="10.2857" height="10.2857" rx="2"/>
</mask>
<rect x="23" y="23.7142" width="10.2857" height="10.2857" rx="2" stroke="#808E99" stroke-width="5" mask="url(#path-5-inside-4_140_17868)"/>
</svg>
