<svg width="70" height="60" viewBox="0 0 70 60" fill="none" xmlns="http://www.w3.org/2000/svg">
<path d="M10.6357 47.89V49H6.4007V41.77H7.7457V47.89H10.6357ZM13.4073 43.79C13.7873 43.79 14.1323 43.8517 14.4423 43.975C14.7557 44.0983 15.0223 44.2733 15.2423 44.5C15.4657 44.7267 15.6373 45.0033 15.7573 45.33C15.8773 45.6567 15.9373 46.0217 15.9373 46.425C15.9373 46.8317 15.8773 47.1983 15.7573 47.525C15.6373 47.8517 15.4657 48.13 15.2423 48.36C15.0223 48.59 14.7557 48.7667 14.4423 48.89C14.1323 49.0133 13.7873 49.075 13.4073 49.075C13.024 49.075 12.6757 49.0133 12.3623 48.89C12.049 48.7667 11.7807 48.59 11.5573 48.36C11.3373 48.13 11.1657 47.8517 11.0423 47.525C10.9223 47.1983 10.8623 46.8317 10.8623 46.425C10.8623 46.0217 10.9223 45.6567 11.0423 45.33C11.1657 45.0033 11.3373 44.7267 11.5573 44.5C11.7807 44.2733 12.049 44.0983 12.3623 43.975C12.6757 43.8517 13.024 43.79 13.4073 43.79ZM13.4073 48.125C13.834 48.125 14.149 47.9817 14.3523 47.695C14.559 47.4083 14.6623 46.9883 14.6623 46.435C14.6623 45.8817 14.559 45.46 14.3523 45.17C14.149 44.88 13.834 44.735 13.4073 44.735C12.974 44.735 12.6523 44.8817 12.4423 45.175C12.2357 45.465 12.1323 45.885 12.1323 46.435C12.1323 46.985 12.2357 47.405 12.4423 47.695C12.6523 47.9817 12.974 48.125 13.4073 48.125ZM20.0095 44.87C19.9762 44.9233 19.9412 44.9617 19.9045 44.985C19.8679 45.005 19.8212 45.015 19.7645 45.015C19.7045 45.015 19.6395 44.9983 19.5695 44.965C19.5029 44.9317 19.4245 44.895 19.3345 44.855C19.2445 44.8117 19.1412 44.7733 19.0245 44.74C18.9112 44.7067 18.7762 44.69 18.6195 44.69C18.3762 44.69 18.1845 44.7417 18.0445 44.845C17.9079 44.9483 17.8395 45.0833 17.8395 45.25C17.8395 45.36 17.8745 45.4533 17.9445 45.53C18.0179 45.6033 18.1129 45.6683 18.2295 45.725C18.3495 45.7817 18.4845 45.8333 18.6345 45.88C18.7845 45.9233 18.9362 45.9717 19.0895 46.025C19.2462 46.0783 19.3995 46.14 19.5495 46.21C19.6995 46.2767 19.8329 46.3633 19.9495 46.47C20.0695 46.5733 20.1645 46.6983 20.2345 46.845C20.3079 46.9917 20.3445 47.1683 20.3445 47.375C20.3445 47.6217 20.2995 47.85 20.2095 48.06C20.1229 48.2667 19.9929 48.4467 19.8195 48.6C19.6462 48.75 19.4312 48.8683 19.1745 48.955C18.9212 49.0383 18.6279 49.08 18.2945 49.08C18.1179 49.08 17.9445 49.0633 17.7745 49.03C17.6079 49 17.4462 48.9567 17.2895 48.9C17.1362 48.8433 16.9929 48.7767 16.8595 48.7C16.7295 48.6233 16.6145 48.54 16.5145 48.45L16.7995 47.98C16.8362 47.9233 16.8795 47.88 16.9295 47.85C16.9795 47.82 17.0429 47.805 17.1195 47.805C17.1962 47.805 17.2679 47.8267 17.3345 47.87C17.4045 47.9133 17.4845 47.96 17.5745 48.01C17.6645 48.06 17.7695 48.1067 17.8895 48.15C18.0129 48.1933 18.1679 48.215 18.3545 48.215C18.5012 48.215 18.6262 48.1983 18.7295 48.165C18.8362 48.1283 18.9229 48.0817 18.9895 48.025C19.0595 47.9683 19.1095 47.9033 19.1395 47.83C19.1729 47.7533 19.1895 47.675 19.1895 47.595C19.1895 47.475 19.1529 47.3767 19.0795 47.3C19.0095 47.2233 18.9145 47.1567 18.7945 47.1C18.6779 47.0433 18.5429 46.9933 18.3895 46.95C18.2395 46.9033 18.0845 46.8533 17.9245 46.8C17.7679 46.7467 17.6129 46.685 17.4595 46.615C17.3095 46.5417 17.1745 46.45 17.0545 46.34C16.9379 46.23 16.8429 46.095 16.7695 45.935C16.6995 45.775 16.6645 45.5817 16.6645 45.355C16.6645 45.145 16.7062 44.945 16.7895 44.755C16.8729 44.565 16.9945 44.4 17.1545 44.26C17.3179 44.1167 17.5195 44.0033 17.7595 43.92C18.0029 43.8333 18.2829 43.79 18.5995 43.79C18.9529 43.79 19.2745 43.8483 19.5645 43.965C19.8545 44.0817 20.0962 44.235 20.2895 44.425L20.0095 44.87ZM22.9841 49.08C22.5374 49.08 22.1941 48.955 21.9541 48.705C21.7174 48.4517 21.5991 48.1033 21.5991 47.66V44.795H21.0741C21.0074 44.795 20.9507 44.7733 20.9041 44.73C20.8574 44.6867 20.8341 44.6217 20.8341 44.535V44.045L21.6591 43.91L21.9191 42.51C21.9357 42.4433 21.9674 42.3917 22.0141 42.355C22.0607 42.3183 22.1207 42.3 22.1941 42.3H22.8341V43.915H24.2041V44.795H22.8341V47.575C22.8341 47.735 22.8724 47.86 22.9491 47.95C23.0291 48.04 23.1374 48.085 23.2741 48.085C23.3507 48.085 23.4141 48.0767 23.4641 48.06C23.5174 48.04 23.5624 48.02 23.5991 48C23.6391 47.98 23.6741 47.9617 23.7041 47.945C23.7341 47.925 23.7641 47.915 23.7941 47.915C23.8307 47.915 23.8607 47.925 23.8841 47.945C23.9074 47.9617 23.9324 47.9883 23.9591 48.025L24.3291 48.625C24.1491 48.775 23.9424 48.8883 23.7091 48.965C23.4757 49.0417 23.2341 49.08 22.9841 49.08ZM29.2064 45.62C28.9397 45.7933 28.7447 45.99 28.6214 46.21C28.5014 46.4267 28.4414 46.66 28.4414 46.91C28.4414 47.0933 28.4731 47.2583 28.5364 47.405C28.5997 47.5517 28.6847 47.6767 28.7914 47.78C28.9014 47.88 29.0281 47.9583 29.1714 48.015C29.3181 48.0683 29.4731 48.095 29.6364 48.095C29.9297 48.095 30.1981 48.05 30.4414 47.96C30.6847 47.8667 30.9047 47.7383 31.1014 47.575L29.2064 45.62ZM34.0214 49H32.8114C32.6847 49 32.5814 48.985 32.5014 48.955C32.4247 48.925 32.3431 48.8617 32.2564 48.765L31.7564 48.25C31.4397 48.51 31.0847 48.7133 30.6914 48.86C30.2981 49.0067 29.8731 49.08 29.4164 49.08C29.1397 49.08 28.8664 49.0333 28.5964 48.94C28.3297 48.8433 28.0914 48.705 27.8814 48.525C27.6714 48.345 27.5014 48.1283 27.3714 47.875C27.2447 47.6183 27.1814 47.33 27.1814 47.01C27.1814 46.7833 27.2181 46.57 27.2914 46.37C27.3647 46.1667 27.4664 45.9783 27.5964 45.805C27.7264 45.6317 27.8814 45.4767 28.0614 45.34C28.2414 45.2 28.4381 45.08 28.6514 44.98C28.4714 44.73 28.3414 44.4867 28.2614 44.25C28.1814 44.01 28.1414 43.7717 28.1414 43.535C28.1414 43.285 28.1864 43.0483 28.2764 42.825C28.3697 42.5983 28.5031 42.4017 28.6764 42.235C28.8497 42.0683 29.0631 41.9367 29.3164 41.84C29.5697 41.74 29.8564 41.69 30.1764 41.69C30.4697 41.69 30.7314 41.735 30.9614 41.825C31.1947 41.915 31.3931 42.035 31.5564 42.185C31.7231 42.335 31.8531 42.5067 31.9464 42.7C32.0431 42.8933 32.0997 43.0933 32.1164 43.3L31.3314 43.465C31.1847 43.495 31.0781 43.4317 31.0114 43.275C30.9814 43.1883 30.9414 43.1067 30.8914 43.03C30.8447 42.95 30.7881 42.8817 30.7214 42.825C30.6547 42.765 30.5764 42.7183 30.4864 42.685C30.3964 42.6483 30.2931 42.63 30.1764 42.63C30.0364 42.63 29.9114 42.655 29.8014 42.705C29.6914 42.7517 29.5981 42.8167 29.5214 42.9C29.4481 42.98 29.3914 43.075 29.3514 43.185C29.3114 43.2917 29.2914 43.405 29.2914 43.525C29.2914 43.625 29.3014 43.7217 29.3214 43.815C29.3414 43.9083 29.3747 44.0017 29.4214 44.095C29.4681 44.1883 29.5281 44.285 29.6014 44.385C29.6781 44.4817 29.7714 44.5867 29.8814 44.7L31.8014 46.695C31.9114 46.485 31.9997 46.2633 32.0664 46.03C32.1331 45.7967 32.1764 45.56 32.1964 45.32C32.2064 45.2433 32.2331 45.1817 32.2764 45.135C32.3197 45.0883 32.3797 45.065 32.4564 45.065H33.2264C33.2231 45.505 33.1597 45.925 33.0364 46.325C32.9131 46.725 32.7364 47.0933 32.5064 47.43L34.0214 49ZM38.6394 42.84V44.98H41.3494V46.055H38.6394V49H37.2894V41.77H41.8494V42.84H38.6394ZM44.5792 43.79C44.9592 43.79 45.3042 43.8517 45.6142 43.975C45.9276 44.0983 46.1942 44.2733 46.4142 44.5C46.6376 44.7267 46.8092 45.0033 46.9292 45.33C47.0492 45.6567 47.1092 46.0217 47.1092 46.425C47.1092 46.8317 47.0492 47.1983 46.9292 47.525C46.8092 47.8517 46.6376 48.13 46.4142 48.36C46.1942 48.59 45.9276 48.7667 45.6142 48.89C45.3042 49.0133 44.9592 49.075 44.5792 49.075C44.1959 49.075 43.8476 49.0133 43.5342 48.89C43.2209 48.7667 42.9526 48.59 42.7292 48.36C42.5092 48.13 42.3376 47.8517 42.2142 47.525C42.0942 47.1983 42.0342 46.8317 42.0342 46.425C42.0342 46.0217 42.0942 45.6567 42.2142 45.33C42.3376 45.0033 42.5092 44.7267 42.7292 44.5C42.9526 44.2733 43.2209 44.0983 43.5342 43.975C43.8476 43.8517 44.1959 43.79 44.5792 43.79ZM44.5792 48.125C45.0059 48.125 45.3209 47.9817 45.5242 47.695C45.7309 47.4083 45.8342 46.9883 45.8342 46.435C45.8342 45.8817 45.7309 45.46 45.5242 45.17C45.3209 44.88 45.0059 44.735 44.5792 44.735C44.1459 44.735 43.8242 44.8817 43.6142 45.175C43.4076 45.465 43.3042 45.885 43.3042 46.435C43.3042 46.985 43.4076 47.405 43.6142 47.695C43.8242 47.9817 44.1459 48.125 44.5792 48.125ZM52.4714 43.87V49H51.7164C51.5531 49 51.4497 48.925 51.4064 48.775L51.3214 48.365C51.1114 48.5783 50.8797 48.7517 50.6264 48.885C50.3731 49.015 50.0747 49.08 49.7314 49.08C49.4514 49.08 49.2031 49.0333 48.9864 48.94C48.7731 48.8433 48.5931 48.7083 48.4464 48.535C48.2997 48.3617 48.1881 48.1567 48.1114 47.92C48.0381 47.68 48.0014 47.4167 48.0014 47.13V43.87H49.2364V47.13C49.2364 47.4433 49.3081 47.6867 49.4514 47.86C49.5981 48.03 49.8164 48.115 50.1064 48.115C50.3197 48.115 50.5197 48.0683 50.7064 47.975C50.8931 47.8783 51.0697 47.7467 51.2364 47.58V43.87H52.4714ZM54.8509 44.5C54.9543 44.3967 55.0626 44.3017 55.1759 44.215C55.2926 44.125 55.4143 44.05 55.5409 43.99C55.6709 43.9267 55.8093 43.8783 55.9559 43.845C56.1026 43.8083 56.2626 43.79 56.4359 43.79C56.7159 43.79 56.9643 43.8383 57.1809 43.935C57.3976 44.0283 57.5776 44.1617 57.7209 44.335C57.8676 44.505 57.9776 44.71 58.0509 44.95C58.1276 45.1867 58.1659 45.4483 58.1659 45.735V49H56.9309V45.735C56.9309 45.4217 56.8593 45.18 56.7159 45.01C56.5726 44.8367 56.3543 44.75 56.0609 44.75C55.8476 44.75 55.6476 44.7983 55.4609 44.895C55.2743 44.9917 55.0976 45.1233 54.9309 45.29V49H53.6959V43.87H54.4509C54.6109 43.87 54.7159 43.945 54.7659 44.095L54.8509 44.5ZM62.5605 45.18C62.4205 45.01 62.2671 44.89 62.1005 44.82C61.9371 44.75 61.7605 44.715 61.5705 44.715C61.3838 44.715 61.2155 44.75 61.0655 44.82C60.9155 44.89 60.7871 44.9967 60.6805 45.14C60.5738 45.28 60.4921 45.46 60.4355 45.68C60.3788 45.8967 60.3505 46.1533 60.3505 46.45C60.3505 46.75 60.3738 47.005 60.4205 47.215C60.4705 47.4217 60.5405 47.5917 60.6305 47.725C60.7205 47.855 60.8305 47.95 60.9605 48.01C61.0905 48.0667 61.2355 48.095 61.3955 48.095C61.6521 48.095 61.8705 48.0417 62.0505 47.935C62.2305 47.8283 62.4005 47.6767 62.5605 47.48V45.18ZM63.7955 41.57V49H63.0405C62.8771 49 62.7738 48.925 62.7305 48.775L62.6255 48.28C62.4188 48.5167 62.1805 48.7083 61.9105 48.855C61.6438 49.0017 61.3321 49.075 60.9755 49.075C60.6955 49.075 60.4388 49.0167 60.2055 48.9C59.9721 48.7833 59.7705 48.615 59.6005 48.395C59.4338 48.1717 59.3038 47.8967 59.2105 47.57C59.1205 47.2433 59.0755 46.87 59.0755 46.45C59.0755 46.07 59.1271 45.7167 59.2305 45.39C59.3338 45.0633 59.4821 44.78 59.6755 44.54C59.8688 44.3 60.1005 44.1133 60.3705 43.98C60.6405 43.8433 60.9438 43.775 61.2805 43.775C61.5671 43.775 61.8121 43.82 62.0155 43.91C62.2188 44 62.4005 44.1217 62.5605 44.275V41.57H63.7955Z" fill="#223647"/>
<path d="M37.25 10H28.25C27.6533 10 27.081 10.2529 26.659 10.7029C26.2371 11.153 26 11.7635 26 12.4V31.6C26 32.2365 26.2371 32.847 26.659 33.2971C27.081 33.7471 27.6533 34 28.25 34H41.75C42.3467 34 42.919 33.7471 43.341 33.2971C43.7629 32.847 44 32.2365 44 31.6V17.2L37.25 10Z" stroke="#101F87" stroke-width="2.5" stroke-linecap="round" stroke-linejoin="round"/>
<path d="M37.25 10V17.2H44" stroke="#101F87" stroke-width="2.5" stroke-linecap="round" stroke-linejoin="round"/>
<path d="M39.5 23.2H30.5" stroke="#101F87" stroke-width="2.5" stroke-linecap="round" stroke-linejoin="round"/>
<path d="M39.5 28H30.5" stroke="#101F87" stroke-width="2.5" stroke-linecap="round" stroke-linejoin="round"/>
<path d="M32.75 18.4H31.625H30.5" stroke="#101F87" stroke-width="2.5" stroke-linecap="round" stroke-linejoin="round"/>
</svg>
