<svg width="70" height="60" viewBox="0 0 70 60" fill="none" xmlns="http://www.w3.org/2000/svg">
<rect width="70" height="60" rx="5" fill="#F9F9F9"/>
<path d="M27.3484 45.385C27.3484 45.915 27.2601 46.4067 27.0834 46.86C26.9101 47.31 26.6634 47.7 26.3434 48.03C26.0234 48.36 25.6384 48.6183 25.1884 48.805C24.7384 48.9883 24.2384 49.08 23.6884 49.08C23.1418 49.08 22.6434 48.9883 22.1934 48.805C21.7434 48.6183 21.3568 48.36 21.0334 48.03C20.7134 47.7 20.4651 47.31 20.2884 46.86C20.1118 46.4067 20.0234 45.915 20.0234 45.385C20.0234 44.855 20.1118 44.365 20.2884 43.915C20.4651 43.4617 20.7134 43.07 21.0334 42.74C21.3568 42.41 21.7434 42.1533 22.1934 41.97C22.6434 41.7833 23.1418 41.69 23.6884 41.69C24.0551 41.69 24.4001 41.7333 24.7234 41.82C25.0468 41.9033 25.3434 42.0233 25.6134 42.18C25.8834 42.3333 26.1251 42.5217 26.3384 42.745C26.5551 42.965 26.7384 43.2117 26.8884 43.485C27.0384 43.7583 27.1518 44.055 27.2284 44.375C27.3084 44.695 27.3484 45.0317 27.3484 45.385ZM25.9734 45.385C25.9734 44.9883 25.9201 44.6333 25.8134 44.32C25.7068 44.0033 25.5551 43.735 25.3584 43.515C25.1618 43.295 24.9218 43.1267 24.6384 43.01C24.3584 42.8933 24.0418 42.835 23.6884 42.835C23.3351 42.835 23.0168 42.8933 22.7334 43.01C22.4534 43.1267 22.2134 43.295 22.0134 43.515C21.8168 43.735 21.6651 44.0033 21.5584 44.32C21.4518 44.6333 21.3984 44.9883 21.3984 45.385C21.3984 45.7817 21.4518 46.1383 21.5584 46.455C21.6651 46.7683 21.8168 47.035 22.0134 47.255C22.2134 47.4717 22.4534 47.6383 22.7334 47.755C23.0168 47.8717 23.3351 47.93 23.6884 47.93C24.0418 47.93 24.3584 47.8717 24.6384 47.755C24.9218 47.6383 25.1618 47.4717 25.3584 47.255C25.5551 47.035 25.7068 46.7683 25.8134 46.455C25.9201 46.1383 25.9734 45.7817 25.9734 45.385ZM29.4117 44.76C29.5717 44.4533 29.7617 44.2133 29.9817 44.04C30.2017 43.8633 30.4617 43.775 30.7617 43.775C30.9984 43.775 31.1884 43.8267 31.3317 43.93L31.2517 44.855C31.2351 44.915 31.2101 44.9583 31.1767 44.985C31.1467 45.0083 31.1051 45.02 31.0517 45.02C31.0017 45.02 30.9267 45.0117 30.8267 44.995C30.7301 44.9783 30.6351 44.97 30.5417 44.97C30.4051 44.97 30.2834 44.99 30.1767 45.03C30.0701 45.07 29.9734 45.1283 29.8867 45.205C29.8034 45.2783 29.7284 45.3683 29.6617 45.475C29.5984 45.5817 29.5384 45.7033 29.4817 45.84V49H28.2467V43.87H28.9717C29.0984 43.87 29.1867 43.8933 29.2367 43.94C29.2867 43.9833 29.3201 44.0633 29.3367 44.18L29.4117 44.76ZM35.0605 45.18C34.9205 45.01 34.7671 44.89 34.6005 44.82C34.4371 44.75 34.2605 44.715 34.0705 44.715C33.8838 44.715 33.7155 44.75 33.5655 44.82C33.4155 44.89 33.2871 44.9967 33.1805 45.14C33.0738 45.28 32.9921 45.46 32.9355 45.68C32.8788 45.8967 32.8505 46.1533 32.8505 46.45C32.8505 46.75 32.8738 47.005 32.9205 47.215C32.9705 47.4217 33.0405 47.5917 33.1305 47.725C33.2205 47.855 33.3305 47.95 33.4605 48.01C33.5905 48.0667 33.7355 48.095 33.8955 48.095C34.1521 48.095 34.3705 48.0417 34.5505 47.935C34.7305 47.8283 34.9005 47.6767 35.0605 47.48V45.18ZM36.2955 41.57V49H35.5405C35.3771 49 35.2738 48.925 35.2305 48.775L35.1255 48.28C34.9188 48.5167 34.6805 48.7083 34.4105 48.855C34.1438 49.0017 33.8321 49.075 33.4755 49.075C33.1955 49.075 32.9388 49.0167 32.7055 48.9C32.4721 48.7833 32.2705 48.615 32.1005 48.395C31.9338 48.1717 31.8038 47.8967 31.7105 47.57C31.6205 47.2433 31.5755 46.87 31.5755 46.45C31.5755 46.07 31.6271 45.7167 31.7305 45.39C31.8338 45.0633 31.9821 44.78 32.1755 44.54C32.3688 44.3 32.6005 44.1133 32.8705 43.98C33.1405 43.8433 33.4438 43.775 33.7805 43.775C34.0671 43.775 34.3121 43.82 34.5155 43.91C34.7188 44 34.9005 44.1217 35.0605 44.275V41.57H36.2955ZM40.8193 45.845C40.8193 45.685 40.796 45.535 40.7493 45.395C40.706 45.2517 40.6393 45.1267 40.5493 45.02C40.4593 44.9133 40.3443 44.83 40.2043 44.77C40.0676 44.7067 39.9076 44.675 39.7243 44.675C39.3676 44.675 39.086 44.7767 38.8793 44.98C38.676 45.1833 38.546 45.4717 38.4893 45.845H40.8193ZM38.4643 46.59C38.4843 46.8533 38.531 47.0817 38.6043 47.275C38.6776 47.465 38.7743 47.6233 38.8943 47.75C39.0143 47.8733 39.156 47.9667 39.3193 48.03C39.486 48.09 39.6693 48.12 39.8693 48.12C40.0693 48.12 40.241 48.0967 40.3843 48.05C40.531 48.0033 40.6576 47.9517 40.7643 47.895C40.8743 47.8383 40.9693 47.7867 41.0493 47.74C41.1326 47.6933 41.2126 47.67 41.2893 47.67C41.3926 47.67 41.4693 47.7083 41.5193 47.785L41.8743 48.235C41.7376 48.395 41.5843 48.53 41.4143 48.64C41.2443 48.7467 41.066 48.8333 40.8793 48.9C40.696 48.9633 40.5076 49.0083 40.3143 49.035C40.1243 49.0617 39.9393 49.075 39.7593 49.075C39.4026 49.075 39.071 49.0167 38.7643 48.9C38.4576 48.78 38.191 48.605 37.9643 48.375C37.7376 48.1417 37.5593 47.855 37.4293 47.515C37.2993 47.1717 37.2343 46.775 37.2343 46.325C37.2343 45.975 37.291 45.6467 37.4043 45.34C37.5176 45.03 37.6793 44.7617 37.8893 44.535C38.1026 44.305 38.361 44.1233 38.6643 43.99C38.971 43.8567 39.316 43.79 39.6993 43.79C40.0226 43.79 40.321 43.8417 40.5943 43.945C40.8676 44.0483 41.1026 44.2 41.2993 44.4C41.496 44.5967 41.6493 44.84 41.7593 45.13C41.8726 45.4167 41.9293 45.745 41.9293 46.115C41.9293 46.3017 41.9093 46.4283 41.8693 46.495C41.8293 46.5583 41.7526 46.59 41.6393 46.59H38.4643ZM44.0211 44.76C44.1811 44.4533 44.3711 44.2133 44.5911 44.04C44.8111 43.8633 45.0711 43.775 45.3711 43.775C45.6078 43.775 45.7978 43.8267 45.9411 43.93L45.8611 44.855C45.8444 44.915 45.8194 44.9583 45.7861 44.985C45.7561 45.0083 45.7144 45.02 45.6611 45.02C45.6111 45.02 45.5361 45.0117 45.4361 44.995C45.3394 44.9783 45.2444 44.97 45.1511 44.97C45.0144 44.97 44.8928 44.99 44.7861 45.03C44.6794 45.07 44.5828 45.1283 44.4961 45.205C44.4128 45.2783 44.3378 45.3683 44.2711 45.475C44.2078 45.5817 44.1478 45.7033 44.0911 45.84V49H42.8561V43.87H43.5811C43.7078 43.87 43.7961 43.8933 43.8461 43.94C43.8961 43.9833 43.9294 44.0633 43.9461 44.18L44.0211 44.76ZM49.697 44.87C49.6637 44.9233 49.6287 44.9617 49.592 44.985C49.5554 45.005 49.5087 45.015 49.452 45.015C49.392 45.015 49.327 44.9983 49.257 44.965C49.1904 44.9317 49.112 44.895 49.022 44.855C48.932 44.8117 48.8287 44.7733 48.712 44.74C48.5987 44.7067 48.4637 44.69 48.307 44.69C48.0637 44.69 47.872 44.7417 47.732 44.845C47.5954 44.9483 47.527 45.0833 47.527 45.25C47.527 45.36 47.562 45.4533 47.632 45.53C47.7054 45.6033 47.8004 45.6683 47.917 45.725C48.037 45.7817 48.172 45.8333 48.322 45.88C48.472 45.9233 48.6237 45.9717 48.777 46.025C48.9337 46.0783 49.087 46.14 49.237 46.21C49.387 46.2767 49.5204 46.3633 49.637 46.47C49.757 46.5733 49.852 46.6983 49.922 46.845C49.9954 46.9917 50.032 47.1683 50.032 47.375C50.032 47.6217 49.987 47.85 49.897 48.06C49.8104 48.2667 49.6804 48.4467 49.507 48.6C49.3337 48.75 49.1187 48.8683 48.862 48.955C48.6087 49.0383 48.3154 49.08 47.982 49.08C47.8054 49.08 47.632 49.0633 47.462 49.03C47.2954 49 47.1337 48.9567 46.977 48.9C46.8237 48.8433 46.6804 48.7767 46.547 48.7C46.417 48.6233 46.302 48.54 46.202 48.45L46.487 47.98C46.5237 47.9233 46.567 47.88 46.617 47.85C46.667 47.82 46.7304 47.805 46.807 47.805C46.8837 47.805 46.9554 47.8267 47.022 47.87C47.092 47.9133 47.172 47.96 47.262 48.01C47.352 48.06 47.457 48.1067 47.577 48.15C47.7004 48.1933 47.8554 48.215 48.042 48.215C48.1887 48.215 48.3137 48.1983 48.417 48.165C48.5237 48.1283 48.6104 48.0817 48.677 48.025C48.747 47.9683 48.797 47.9033 48.827 47.83C48.8604 47.7533 48.877 47.675 48.877 47.595C48.877 47.475 48.8404 47.3767 48.767 47.3C48.697 47.2233 48.602 47.1567 48.482 47.1C48.3654 47.0433 48.2304 46.9933 48.077 46.95C47.927 46.9033 47.772 46.8533 47.612 46.8C47.4554 46.7467 47.3004 46.685 47.147 46.615C46.997 46.5417 46.862 46.45 46.742 46.34C46.6254 46.23 46.5304 46.095 46.457 45.935C46.387 45.775 46.352 45.5817 46.352 45.355C46.352 45.145 46.3937 44.945 46.477 44.755C46.5604 44.565 46.682 44.4 46.842 44.26C47.0054 44.1167 47.207 44.0033 47.447 43.92C47.6904 43.8333 47.9704 43.79 48.287 43.79C48.6404 43.79 48.962 43.8483 49.252 43.965C49.542 44.0817 49.7837 44.235 49.977 44.425L49.697 44.87Z" fill="#011627"/>
<path d="M37.5 11H27.5C26.837 11 26.2011 11.2529 25.7322 11.7029C25.2634 12.153 25 12.7635 25 13.4V32.6C25 33.2365 25.2634 33.847 25.7322 34.2971C26.2011 34.7471 26.837 35 27.5 35H42.5C43.163 35 43.7989 34.7471 44.2678 34.2971C44.7366 33.847 45 33.2365 45 32.6V18.2L37.5 11Z" stroke="#2667FF" stroke-width="2.5" stroke-linecap="round" stroke-linejoin="round"/>
<path d="M37.5 11V18.2H45" stroke="#2667FF" stroke-width="2.5" stroke-linecap="round" stroke-linejoin="round"/>
<path d="M35 30.2V23" stroke="#2667FF" stroke-width="2.5" stroke-linecap="round" stroke-linejoin="round"/>
<path d="M31.25 26.6001H38.75" stroke="#2667FF" stroke-width="2.5" stroke-linecap="round" stroke-linejoin="round"/>
</svg>
