<svg width="70" height="60" viewBox="0 0 70 60" fill="none" xmlns="http://www.w3.org/2000/svg">
<path d="M28.8042 42.875H26.6242V49H25.2792V42.875H23.0992V41.77H28.8042V42.875ZM31.1618 46.81C30.8051 46.8267 30.5051 46.8583 30.2618 46.905C30.0185 46.9483 29.8235 47.005 29.6768 47.075C29.5301 47.145 29.4251 47.2267 29.3618 47.32C29.2985 47.4133 29.2668 47.515 29.2668 47.625C29.2668 47.8417 29.3301 47.9967 29.4568 48.09C29.5868 48.1833 29.7551 48.23 29.9618 48.23C30.2151 48.23 30.4335 48.185 30.6168 48.095C30.8035 48.0017 30.9851 47.8617 31.1618 47.675V46.81ZM28.3318 44.585C28.9218 44.045 29.6318 43.775 30.4618 43.775C30.7618 43.775 31.0301 43.825 31.2668 43.925C31.5035 44.0217 31.7035 44.1583 31.8668 44.335C32.0301 44.5083 32.1535 44.7167 32.2368 44.96C32.3235 45.2033 32.3668 45.47 32.3668 45.76V49H31.8068C31.6901 49 31.6001 48.9833 31.5368 48.95C31.4735 48.9133 31.4235 48.8417 31.3868 48.735L31.2768 48.365C31.1468 48.4817 31.0201 48.585 30.8968 48.675C30.7735 48.7617 30.6451 48.835 30.5118 48.895C30.3785 48.955 30.2351 49 30.0818 49.03C29.9318 49.0633 29.7651 49.08 29.5818 49.08C29.3651 49.08 29.1651 49.0517 28.9818 48.995C28.7985 48.935 28.6401 48.8467 28.5068 48.73C28.3735 48.6133 28.2701 48.4683 28.1968 48.295C28.1235 48.1217 28.0868 47.92 28.0868 47.69C28.0868 47.56 28.1085 47.4317 28.1518 47.305C28.1951 47.175 28.2651 47.0517 28.3618 46.935C28.4618 46.8183 28.5901 46.7083 28.7468 46.605C28.9035 46.5017 29.0951 46.4117 29.3218 46.335C29.5518 46.2583 29.8185 46.1967 30.1218 46.15C30.4251 46.1 30.7718 46.07 31.1618 46.06V45.76C31.1618 45.4167 31.0885 45.1633 30.9418 45C30.7951 44.8333 30.5835 44.75 30.3068 44.75C30.1068 44.75 29.9401 44.7733 29.8068 44.82C29.6768 44.8667 29.5618 44.92 29.4618 44.98C29.3618 45.0367 29.2701 45.0883 29.1868 45.135C29.1068 45.1817 29.0168 45.205 28.9168 45.205C28.8301 45.205 28.7568 45.1833 28.6968 45.14C28.6368 45.0933 28.5885 45.04 28.5518 44.98L28.3318 44.585ZM36.6599 44.87C36.6266 44.9233 36.5916 44.9617 36.5549 44.985C36.5183 45.005 36.4716 45.015 36.4149 45.015C36.3549 45.015 36.2899 44.9983 36.2199 44.965C36.1533 44.9317 36.0749 44.895 35.9849 44.855C35.8949 44.8117 35.7916 44.7733 35.6749 44.74C35.5616 44.7067 35.4266 44.69 35.2699 44.69C35.0266 44.69 34.8349 44.7417 34.6949 44.845C34.5583 44.9483 34.4899 45.0833 34.4899 45.25C34.4899 45.36 34.5249 45.4533 34.5949 45.53C34.6683 45.6033 34.7633 45.6683 34.8799 45.725C34.9999 45.7817 35.1349 45.8333 35.2849 45.88C35.4349 45.9233 35.5866 45.9717 35.7399 46.025C35.8966 46.0783 36.0499 46.14 36.1999 46.21C36.3499 46.2767 36.4833 46.3633 36.5999 46.47C36.7199 46.5733 36.8149 46.6983 36.8849 46.845C36.9583 46.9917 36.9949 47.1683 36.9949 47.375C36.9949 47.6217 36.9499 47.85 36.8599 48.06C36.7733 48.2667 36.6433 48.4467 36.4699 48.6C36.2966 48.75 36.0816 48.8683 35.8249 48.955C35.5716 49.0383 35.2783 49.08 34.9449 49.08C34.7683 49.08 34.5949 49.0633 34.4249 49.03C34.2583 49 34.0966 48.9567 33.9399 48.9C33.7866 48.8433 33.6433 48.7767 33.5099 48.7C33.3799 48.6233 33.2649 48.54 33.1649 48.45L33.4499 47.98C33.4866 47.9233 33.5299 47.88 33.5799 47.85C33.6299 47.82 33.6933 47.805 33.7699 47.805C33.8466 47.805 33.9183 47.8267 33.9849 47.87C34.0549 47.9133 34.1349 47.96 34.2249 48.01C34.3149 48.06 34.4199 48.1067 34.5399 48.15C34.6633 48.1933 34.8183 48.215 35.0049 48.215C35.1516 48.215 35.2766 48.1983 35.3799 48.165C35.4866 48.1283 35.5733 48.0817 35.6399 48.025C35.7099 47.9683 35.7599 47.9033 35.7899 47.83C35.8233 47.7533 35.8399 47.675 35.8399 47.595C35.8399 47.475 35.8033 47.3767 35.7299 47.3C35.6599 47.2233 35.5649 47.1567 35.4449 47.1C35.3283 47.0433 35.1933 46.9933 35.0399 46.95C34.8899 46.9033 34.7349 46.8533 34.5749 46.8C34.4183 46.7467 34.2633 46.685 34.1099 46.615C33.9599 46.5417 33.8249 46.45 33.7049 46.34C33.5883 46.23 33.4933 46.095 33.4199 45.935C33.3499 45.775 33.3149 45.5817 33.3149 45.355C33.3149 45.145 33.3566 44.945 33.4399 44.755C33.5233 44.565 33.6449 44.4 33.8049 44.26C33.9683 44.1167 34.1699 44.0033 34.4099 43.92C34.6533 43.8333 34.9333 43.79 35.2499 43.79C35.6033 43.79 35.9249 43.8483 36.2149 43.965C36.5049 44.0817 36.7466 44.235 36.9399 44.425L36.6599 44.87ZM39.1595 41.57V45.825H39.3895C39.4728 45.825 39.5378 45.815 39.5845 45.795C39.6345 45.7717 39.6845 45.7267 39.7345 45.66L41.0095 44.085C41.0628 44.015 41.1211 43.9617 41.1845 43.925C41.2511 43.8883 41.3361 43.87 41.4395 43.87H42.5695L40.9745 45.775C40.8611 45.925 40.7378 46.04 40.6045 46.12C40.6745 46.17 40.7361 46.2283 40.7895 46.295C40.8461 46.3617 40.8995 46.4333 40.9495 46.51L42.6595 49H41.5445C41.4478 49 41.3645 48.985 41.2945 48.955C41.2245 48.9217 41.1661 48.8633 41.1195 48.78L39.8095 46.835C39.7628 46.7583 39.7145 46.7083 39.6645 46.685C39.6145 46.6617 39.5395 46.65 39.4395 46.65H39.1595V49H37.9245V41.57H39.1595ZM46.3963 44.87C46.3629 44.9233 46.3279 44.9617 46.2913 44.985C46.2546 45.005 46.2079 45.015 46.1513 45.015C46.0913 45.015 46.0263 44.9983 45.9563 44.965C45.8896 44.9317 45.8113 44.895 45.7213 44.855C45.6313 44.8117 45.5279 44.7733 45.4112 44.74C45.2979 44.7067 45.1629 44.69 45.0063 44.69C44.7629 44.69 44.5713 44.7417 44.4313 44.845C44.2946 44.9483 44.2263 45.0833 44.2263 45.25C44.2263 45.36 44.2613 45.4533 44.3313 45.53C44.4046 45.6033 44.4996 45.6683 44.6163 45.725C44.7363 45.7817 44.8713 45.8333 45.0213 45.88C45.1713 45.9233 45.3229 45.9717 45.4763 46.025C45.6329 46.0783 45.7863 46.14 45.9363 46.21C46.0863 46.2767 46.2196 46.3633 46.3363 46.47C46.4563 46.5733 46.5513 46.6983 46.6213 46.845C46.6946 46.9917 46.7313 47.1683 46.7313 47.375C46.7313 47.6217 46.6863 47.85 46.5963 48.06C46.5096 48.2667 46.3796 48.4467 46.2063 48.6C46.0329 48.75 45.8179 48.8683 45.5613 48.955C45.3079 49.0383 45.0146 49.08 44.6813 49.08C44.5046 49.08 44.3313 49.0633 44.1613 49.03C43.9946 49 43.8329 48.9567 43.6763 48.9C43.5229 48.8433 43.3796 48.7767 43.2463 48.7C43.1163 48.6233 43.0013 48.54 42.9013 48.45L43.1863 47.98C43.2229 47.9233 43.2663 47.88 43.3162 47.85C43.3662 47.82 43.4296 47.805 43.5063 47.805C43.5829 47.805 43.6546 47.8267 43.7213 47.87C43.7913 47.9133 43.8713 47.96 43.9613 48.01C44.0513 48.06 44.1563 48.1067 44.2763 48.15C44.3996 48.1933 44.5546 48.215 44.7413 48.215C44.8879 48.215 45.0129 48.1983 45.1163 48.165C45.2229 48.1283 45.3096 48.0817 45.3763 48.025C45.4463 47.9683 45.4962 47.9033 45.5263 47.83C45.5596 47.7533 45.5763 47.675 45.5763 47.595C45.5763 47.475 45.5396 47.3767 45.4663 47.3C45.3963 47.2233 45.3013 47.1567 45.1812 47.1C45.0646 47.0433 44.9296 46.9933 44.7763 46.95C44.6263 46.9033 44.4713 46.8533 44.3113 46.8C44.1546 46.7467 43.9996 46.685 43.8463 46.615C43.6963 46.5417 43.5613 46.45 43.4413 46.34C43.3246 46.23 43.2296 46.095 43.1563 45.935C43.0863 45.775 43.0513 45.5817 43.0513 45.355C43.0513 45.145 43.0929 44.945 43.1763 44.755C43.2596 44.565 43.3813 44.4 43.5413 44.26C43.7046 44.1167 43.9063 44.0033 44.1463 43.92C44.3896 43.8333 44.6696 43.79 44.9863 43.79C45.3396 43.79 45.6613 43.8483 45.9513 43.965C46.2413 44.0817 46.4829 44.235 46.6763 44.425L46.3963 44.87Z" fill="#223647"/>
<path d="M45 35L35 28.3333L25 35V13.6667C25 12.9594 25.301 12.2811 25.8368 11.781C26.3727 11.281 27.0994 11 27.8571 11H42.1429C42.9006 11 43.6273 11.281 44.1632 11.781C44.699 12.2811 45 12.9594 45 13.6667V35Z" stroke="#808E99" stroke-width="2.5" stroke-linecap="round" stroke-linejoin="round"/>
</svg>
